<svg id="Layer_1" xmlns="http://www.w3.org/2000/svg" viewBox="0 0 970 600"><style>.st0{fill:#f2f2f2}.st1{fill:url(#SVGID_1_)}.st2{opacity:2e-2;enable-background:new}.st3{fill:#66cc86}.st4{opacity:5e-2;enable-background:new}.st5{fill:#fff}.st6{fill:#82d4bb}.st7{opacity:.2}.st8{fill:url(#SVGID_2_)}.st9{fill:url(#SVGID_3_)}.st10{fill:#ca7070}.st11{fill:#00695c}.st12{opacity:.2;fill:#fff;enable-background:new}.st13{fill:#263238}.st14{fill:#ff5252}.st15{fill:#f6b9ad}.st16{fill:#fccc63}.st17{fill:none;stroke:#b3b3b3;stroke-miterlimit:10}.st18{fill:#82c8f3}.st19{fill:url(#SVGID_4_)}.st20{fill:url(#SVGID_5_)}.st21{fill:#7cc2e5}.st22{fill:url(#SVGID_6_)}.st23{fill:#f4ac71}</style><title>404</title><g id="Layer_2"><g id="_9b8dff4b-368a-4ab8-bc0b-59c96572f6a5"><path class="st0" d="M849.8 38.1h-37.7c1.6-1.8 2.7-4.1 2.7-6.8v-1.8c0-5.5-4.5-10-10-10H623.9c-5.5 0-10 4.5-10 10v1.8c0 5.5 4.5 10 10 10h37.7c-1.6 1.8-2.7 4.1-2.7 6.8v1.8c0 1.6.4 3 1 4.3h-67.4c-5.5 0-10 4.5-10 10V66c0 5.5 4.5 10 10 10h180.9c5.5 0 10-4.5 10-10v-1.8c0-1.6-.4-3-1-4.3h67.4c5.5 0 10-4.5 10-10V48c0-5.5-4.5-9.9-10-9.9z"/><linearGradient id="SVGID_1_" gradientUnits="userSpaceOnUse" x1="643.4" y1="821.495" x2="643.4" y2="675.478" gradientTransform="translate(-158.5 -221.51)"><stop offset="0" stop-color="gray" stop-opacity=".25"/><stop offset=".54" stop-color="gray" stop-opacity=".12"/><stop offset="1" stop-color="gray" stop-opacity=".1"/></linearGradient><path class="st1" d="M936.5 576.7c-5.4 0-127.3 75.2-268.5-51.7-76.7-69-151.7-76.3-204.3-68.6-32.3 4.7-61.9 19.1-85.3 39.9-18.9 16.8-64.3 39.7-171 33.5C43.1 520.2-.1 600-.1 600h970s-28.2-23.3-33.4-23.3z"/><path class="st0" d="M-.1 600s43.2-79.9 207.4-70.2c106.7 6.3 152.3-16.7 171-33.5 23.4-20.9 52.9-35.2 85.1-39.9C516 448.7 591.2 456 668 525c141.2 127 262.9 51.7 268.3 51.7 5.4 0 33.6 23.3 33.6 23.3H-.1z"/><path class="st2" d="M-.1 600s43.2-79.9 207.4-70.2c106.7 6.3 152.3-16.7 171-33.5 23.4-20.9 52.9-35.2 85.1-39.9 52.7-7.7 127.9-.4 204.5 68.6 141.2 127 262.9 51.7 268.3 51.7 5.4 0 33.6 23.3 33.6 23.3H-.1z"/><path class="st0" d="M41.3 41.3h180.9c5.5 0 10 4.5 10 10V53c0 5.5-4.5 10-10 10H41.3c-5.5 0-10-4.5-10-10v-1.8c0-5.5 4.5-9.9 10-9.9z"/><path class="st0" d="M86.3 59.8h180.9c5.5 0 10 4.5 10 10v1.8c0 5.5-4.5 10-10 10H86.3c-5.5 0-10-4.5-10-10v-1.8c0-5.6 4.5-10 10-10z"/><path class="st0" d="M10 75.8h180.9c5.5 0 10 4.5 10 10v1.8c0 5.5-4.5 10-10 10H10c-5.5 0-10-4.5-10-10v-1.8c0-5.5 4.5-10 10-10z"/><path class="st3" d="M204.4 508.2h62.9v46.7h-62.9z"/><path class="st3" d="M198.9 506.3l35.1-35.1c1.1-1.1 2.8-1.1 3.9 0l34.9 34.9c1.1 1.1 1.1 2.8 0 3.9-.5.5-1.2.8-1.9.8l-70 .3c-1.5 0-2.8-1.2-2.8-2.7 0-.8.3-1.5.8-2.1z"/><path class="st4" d="M199 506.3l35.1-35.1c1.1-1.1 2.8-1.1 3.9 0l34.9 34.9c1.1 1.1 1.1 2.8 0 3.9-.5.5-1.2.8-1.9.8l-70 .3c-1.5 0-2.8-1.2-2.8-2.7-.1-.9.2-1.6.8-2.1z"/><path class="st5" d="M235.1 533.8h1.3c3.9 0 7.1 3.2 7.1 7.1v14H228v-14c0-3.9 3.1-7.1 7.1-7.1z"/><circle class="st5" cx="236" cy="479.7" r="3.9"/><path class="st5" d="M209.3 514.2h14.8v11.2h-14.8z"/><path class="st6" d="M216 514.2h1.4v11.2H216z"/><path class="st5" d="M248.7 514.2h14.8v11.2h-14.8z"/><path class="st6" d="M255.4 514.2h1.4v11.2h-1.4z"/><g class="st7"><linearGradient id="SVGID_2_" gradientUnits="userSpaceOnUse" x1="2222.48" y1="704.21" x2="2222.48" y2="704.21" gradientTransform="matrix(-1 0 0 1 2718.38 -221.51)"><stop offset="0" stop-color="gray" stop-opacity=".25"/><stop offset=".54" stop-color="gray" stop-opacity=".12"/><stop offset="1" stop-color="gray" stop-opacity=".1"/></linearGradient></g><g class="st7"><linearGradient id="SVGID_3_" gradientUnits="userSpaceOnUse" x1="2217.019" y1="733.29" x2="2217.019" y2="703.417" gradientTransform="matrix(-1 0 0 1 2718.38 -221.51)"><stop offset="0" stop-color="gray" stop-opacity=".25"/><stop offset=".54" stop-color="gray" stop-opacity=".12"/><stop offset="1" stop-color="gray" stop-opacity=".1"/></linearGradient><path class="st9" d="M497.4 511.7h.1c.1 0 .1-.1.1-.1v-.2c-.1-.2-.3-.6-.5-.8l-.1-.1v-.3l2.2-7.1v-.2s2.8 1.2 3.5 3.5c.4 1.1.4 2.4.1 3.5v1.4h3c.2-.1-.1-.4-.4-.6l-.1-.1-.2-.2c-.1-.1-.1-.1-.1-.2v-.2h-.1c.8-3.5-.4-7.2-3.1-9.7.7-2.2.7-4.5 0-6.6.3-.2 5.7-4.1 5.7-9.2v-.8s.5-.4 0-1.1v-.1h-.4c-.2 0-.4.1-.6.2 0 0-.3 1 0 1.3h-.1s-3.2 7-5.4 8l-.1-.1v-1.1c.2-.1.5-.3.6-.5.1-.1.1-.2.2-.2l.1-.1.1-.1.1-.1c0-.1.1-.2.1-.3v-.8c0-.3-.1-.6-.1-.8 0-.1 0-.2-.1-.2v-.1l-.1-.1.2-.2c.1-.1.3-.1.5-.1h.5l.2-.1c.1-.1.2-.1.3-.1h-1.3l-.2-.1c.1 0 .2.1.3.1h.5v-.1h-1.1c.3.1.7 0 .9-.4.1-.3 0-.7-.4-.9l.1-.1c.1-.1.2-.2.2-.4v-.2l-.1.1h-.1c-.2.1-.4.2-.6.2h-.1c-.2-.1-.4-.1-.6-.2l-.2-.1h-.9c-.7 0-1.5.3-2 .8-.1.1-.2.3-.3.4-.1-.7.1-1.5.4-2.1h-.2l-.1.2c0-.2.1-.5.3-.7h-.1c.3-.3.3-.8 0-1.1-.5-.7-1.3-.2-1.3-.2-.1.2-.1.5-.1.7l-.1-.1c-.2.5-1.9 6.7 1 10.7v7l-2 9.2-.4 1.7 2.8.5-.4-.2zm.5-21.6c.2.1.3.2.5.3v1.1l-.2.1-.3-1.5z"/></g><path class="st10" d="M507.6 484.4s.5-.4 0-1.2-1.5-.2-1.5-.2-.4 1.1 0 1.4c.4.3 1.5 0 1.5 0z"/><path id="_39458adb-bcd5-4769-9abe-182f7ae0ca71" class="st11" d="M502.2 513.6h2.4c0 .2.1.5.2.6.3.4 1 .8.7 1h-3.3v-1.6z"/><path class="st12" d="M504.7 514.2c-.2-.2-.2-.4-.2-.6h.2c0 .2.1.5.2.6.3.4 1 .8.7 1h-.2c.2-.2-.4-.6-.7-1z"/><path id="_24b3a5d5-99f8-4317-aac1-7589e0408752" class="st11" d="M493.7 513.1l2.3.4c-.1.3 0 .5.1.8.3.5.8 1.2.5 1.3l-3.3-.5.4-2z"/><path class="st11" d="M494.8 483.4s-2.6 8.1 1.7 12.6l1.3-1s-2.5-8.9-1.1-10.9c-2.6-.9-1.9-.7-1.9-.7z"/><path class="st10" d="M496.5 484.1s.5-.4 0-1.2-1.5-.2-1.5-.2-.4 1.1 0 1.4c.4.3 1.5 0 1.5 0z"/><path class="st12" d="M495.8 514.2c-.1-.2-.2-.5-.1-.8l-2.1-.3 2.3.4c-.1.3 0 .5.1.8.3.5.8 1.2.5 1.3h-.1c.2-.3-.3-.9-.6-1.4z"/><path class="st10" d="M498.6 490.9h.2c.6 0 1.1.5 1.1 1.1v1.4c0 .6-.5 1.1-1.1 1.1h-.2c-.6 0-1.1-.5-1.1-1.1V492c0-.6.5-1.1 1.1-1.1z"/><path class="st12" d="M497.6 495.5s-2.5-8.7-1.1-10.9h.3c-1.4 2.1 1.1 10.9 1.1 10.9l-1.3 1-.1-.1 1.1-.9z"/><circle class="st10" cx="498.6" cy="489.5" r="2.7"/><path class="st12" d="M499.6 493.3v-1.5c1.3-.7 1.9-2.3 1.2-3.6-.4-.9-1.3-1.4-2.3-1.5h.1c1.5 0 2.7 1.2 2.7 2.7 0 1-.6 1.9-1.5 2.4v1.5c0 .7-.5 1.2-1.2 1.2h-.1c.6-.1 1.1-.6 1.1-1.2z"/><path class="st11" d="M495.9 502.9s5.2.6 5.4 0c.8-2.4.8-5 0-7.4 0-1.5-1.2-2.7-2.7-2.7-1.5 0-2.7 1.2-2.7 2.7v7.4z"/><path class="st13" d="M495.9 502.9l-2.4 10.8h2.4l2.4-8s3 1.3 3.8 3.9c.5 1.3.5 2.8 0 4.1h2.5v-.1c.9-3.9-.5-8-3.4-10.7"/><path class="st12" d="M500.9 502.9c.8-2.4.8-5 0-7.4 0-1.4-1.1-2.6-2.5-2.7h.2c1.5 0 2.7 1.2 2.7 2.7.8 2.4.8 5 0 7.4-.1.2-.8.3-1.7.3.8 0 1.3-.1 1.3-.3z"/><path class="st11" d="M501.3 495.5s7-4.9 6.3-11.1H506s-3.8 8.1-6.1 8.9c-2.3.8 1.4 2.2 1.4 2.2z"/><g class="st7"><path class="st5" d="M498.3 505.9l-2.4 7.9h-.4l2.4-8 .4.1zm2.6-2.9h.4c3 2.7 4.3 6.8 3.4 10.7v.1h-.4v-.1c.9-3.9-.4-8-3.4-10.7z"/></g><path class="st12" d="M507.3 484.5h.3c.7 6.2-6.3 11.1-6.3 11.1l-.2-.1c.8-.6 6.9-5.2 6.2-11z"/><path class="st13" d="M500.8 488.3c-.1.3-.3.7-.3 1.1-.1.8-.6 1.5-1.2 1.9-.4.2-.8.3-1.2.3-.6.1-1.3-.1-1.8-.5-.3-.3-.5-.7-.5-1.1-.3-1.2.1-2.5 1-3.4.9-.9 2.3-1.2 3.5-.7.2.1.4.2.7.2.4.1.7 0 1-.3.1.3-.1.7-.4.8h-.2c.4.2.9.2 1.3.1-.2.5-.8.8-1.4.5.5.2 1 .3 1.6.3-.1 0-.3.2-.5.3h-.5c-.6-.1-1 .1-1.1.5z"/><g class="st7"><path class="st5" d="M501.1 486.5c.2.1.4.1.6.2-.3 0-.6 0-.8-.2.3 0 .6-.3.6-.6l.1-.1c.1.3-.1.6-.4.8l-.1-.1zm-.5-.5c-.2-.1-.4-.1-.7-.2-.3-.1-.7-.2-1-.2.4 0 .8.1 1.2.2.2.1.4.2.7.2h.1-.3zm1.3 1.7c.1 0 .4-.3.5-.3-.5 0-1.1-.1-1.6-.3.1 0 .2.1.4.1.4.2.9.3 1.4.2-.1 0-.3.2-.5.3h-.4.2zm-4.1 3.9c.4 0 .8-.1 1.2-.3.7-.4 1.1-1.1 1.2-1.9.1-.4.2-.7.3-1.1.2-.3.5-.5.9-.6h.2c-.4 0-.7.2-.9.6-.1.3-.3.7-.3 1.1-.1.8-.6 1.5-1.2 1.9-.4.2-.8.3-1.2.3h-.2z"/><path class="st5" d="M501.4 487.2c.4 0 .7-.2.9-.6l.2-.1c-.3.5-.7.7-1.1.7z"/></g><path class="st12" d="M507.4 484.4s.5-.4 0-1.2c-.1-.2-.4-.4-.6-.4.3 0 .6.1.8.4.5.8 0 1.2 0 1.2-.3.1-.7.1-1 .1.3 0 .6 0 .8-.1z"/><path class="st14" d="M519.4 474.7s-2.6 8.1 1.7 12.6l1.3-1s-2.5-8.9-1.1-10.9c-2.6-.8-1.9-.7-1.9-.7z"/><path class="st15" d="M521.1 475.4s.5-.4 0-1.2-1.5-.2-1.5-.2-.4 1.1 0 1.4c.4.3 1.5 0 1.5 0zm2.1 6.9h.2c.6 0 1.1.5 1.1 1.1v1.4c0 .6-.5 1.1-1.1 1.1h-.2c-.6 0-1.1-.5-1.1-1.1v-1.4c-.1-.6.5-1.1 1.1-1.1z"/><path class="st12" d="M522.2 486.9s-2.5-8.7-1.1-10.9h.3c-1.4 2.1 1.1 10.9 1.1 10.9l-1.3 1-.1-.1 1.1-.9z"/><circle class="st15" cx="523.2" cy="480.8" r="2.7"/><path class="st12" d="M524.2 484.6v-1.5c1.3-.7 1.9-2.3 1.2-3.6-.4-.9-1.3-1.4-2.3-1.5h.1c1.5 0 2.7 1.2 2.7 2.7 0 1-.6 1.9-1.5 2.4v1.5c0 .7-.5 1.2-1.2 1.2h-.1c.6 0 1.1-.5 1.1-1.2z"/><path class="st14" d="M520.5 494.3s5.2.6 5.4 0c.6-1.9-1-4-.2-5 .5-.7.6-1.6.2-2.4 0-1.5-1.2-2.7-2.7-2.7-1.5 0-2.7 1.2-2.7 2.7v7.4z"/><path class="st12" d="M525.7 489.3c.5-.7.6-1.6.2-2.4 0-1.5-1.2-2.7-2.7-2.7h-.2c1.4.1 2.5 1.3 2.5 2.7.4.8.3 1.7-.2 2.4-.8 1 .8 3.1.2 5-.1.2-.6.3-1.3.3.9 0 1.6 0 1.7-.3.6-1.9-1.1-4-.2-5z"/><path class="st15" d="M524.8 494.1c2 3.2 2.8 7 2.2 10.7v.1h-1.6c.3-1.3.3-2.7 0-4.1-.3-1.6-1.2-3-2.5-3.9l-1.6 8h-1.5l1.5-10.8h3.5zm9.1-15.5s.6-.3.4-1.2-1.4-.6-1.4-.6-.7 1-.4 1.3c.3.3 1.4.5 1.4.5z"/><path class="st14" d="M524.7 487.3s8.1-2.6 9.2-8.7l-1.5-.5s-6 6.6-8.5 6.7.8 2.5.8 2.5z"/><path class="st12" d="M533.7 478.6l.3.1c-1.1 6.1-9.2 8.7-9.2 8.7l-.1-.1c.8-.3 7.9-3 9-8.7z"/><g class="st7"><path class="st5" d="M522.5 496.9l-1.6 8h.4l1.5-7.8-.3-.2zm2.3-2.8h-.4c2 3.2 2.8 7 2.2 10.7v.1h.3v-.1c.6-3.7-.1-7.5-2.1-10.7z"/></g><path class="st12" d="M533.8 478.5s.6-.3.4-1.2c-.1-.3-.3-.5-.5-.6.3.1.6.3.7.6.3.9-.4 1.2-.4 1.2-.3 0-.7-.1-1-.2.2.1.5.2.8.2z"/><path class="st13" d="M520.5 494l-3.3 6.9c1.9.1 3.8.3 5.7.7 3.6.7 5.4-1 5.4-1l-2.4-6.6h-5.4z"/><path class="st14" d="M521.4 504.9s1.7.4 1.4 1h-3.1l.2-1h1.5zm5.5 0s1.7.4 1.4 1h-3.1l.2-1h1.5z"/><path class="st16" d="M525.7 478.6s-4.1 5.9-2.3 8.3l-7.4-.2s2.1-13.3 9.7-8.1z"/><path class="st12" d="M525.7 478.6c-.9-.6-1.8-1-2.9-1.2.7.2 1.4.6 2 1 0 0-4.1 5.9-2.3 8.3l-6.5-.1v.1l7.4.2c-1.9-2.4 2.3-8.3 2.3-8.3zm.2 15.4h-.5l2.3 6.6c-1 .8-2.2 1.2-3.4 1.2 1.4.1 2.9-.3 4-1.2l-2.4-6.6zm-4.5 10.9h-.4s1.7.4 1.4 1h.4c.3-.7-1.4-1-1.4-1zm5.5 0h-.4s1.7.4 1.4 1h.4c.3-.7-1.4-1-1.4-1z"/><path class="st17" d="M822.4 318.5l-9.7-53.9 30.6-1.5v55.4h20.8L885 259"/><path class="st18" d="M828.8 312.9h29c15.1 0 27.3 12.2 27.3 27.3v4.9c0 15.1-12.2 27.3-27.3 27.3h-29c-15.1 0-27.3-12.2-27.3-27.3v-4.9c0-15.1 12.2-27.3 27.3-27.3z"/><path class="st4" d="M856.1 312.9H832c-16.4.1-29.7 13.3-29.7 29.7 0 .7 0 1.3.1 2 1.1-15.6 14-27.7 29.7-27.7h24.1c15.6.1 28.6 12.1 29.7 27.7 0-.7.1-1.3.1-2-.2-16.4-13.5-29.7-29.9-29.7z"/><linearGradient id="SVGID_4_" gradientUnits="userSpaceOnUse" x1="999.05" y1="584.07" x2="999.05" y2="545.32" gradientTransform="translate(-158.4 -222.97)"><stop offset="0" stop-opacity=".12"/><stop offset=".55" stop-opacity=".09"/><stop offset="1" stop-opacity=".02"/></linearGradient><path class="st19" d="M862.5 330.6l-7.9-6.2-19.1 24.1-10.2-7.9-6.5 8.2 15 11.3 3.7 3z"/><path class="st5" d="M861.9 330.4l-7.1-5.5-19 24.7-10.5-8-5.5 7.1 14.1 10.8 3.6 2.7z"/><linearGradient id="SVGID_5_" gradientUnits="userSpaceOnUse" x1="1007.45" y1="497.71" x2="1007.45" y2="249.11" gradientTransform="translate(-158.5 -221.51)"><stop offset="0" stop-color="gray" stop-opacity=".25"/><stop offset=".54" stop-color="gray" stop-opacity=".12"/><stop offset="1" stop-color="gray" stop-opacity=".1"/></linearGradient><path class="st20" d="M970 151.9c0 68.7-57.4 124.3-118.4 124.3s-123.7-55.7-123.7-124.3S790.5 27.6 851.6 27.6 970 83.3 970 151.9z"/><path class="st18" d="M964.3 151.9c0 65.4-54.7 118.5-112.9 118.5s-117.9-53-117.9-118.5 59.8-118.4 118-118.4 112.8 53 112.8 118.4z"/><path class="st21" d="M833.4 274.6h26.2v9.1h-26.2z"/><path d="M851.5 33c-1.4 0-2.8 0-4.2.1C903.9 35.6 956 87.6 956 151.5s-52.1 116-108.7 118.4c1.4.1 2.8.1 4.2.1 58.2 0 112.9-53 112.9-118.5S909.7 33 851.5 33z" class="st7"/><g class="st7"><path class="st5" d="M740.2 151.9c0-64.5 58-117 115.4-118.5h-2.5c-58.2.1-117.8 53.1-117.8 118.6S795 270.5 853.2 270.5h2.5c-57.5-1.6-115.5-54-115.5-118.6z"/></g><path class="st18" d="M810.1 253.8h75.3v24.5h-75.3z"/><path class="st12" d="M810.1 42.1s-89.4 102.2 0 219.7l29.5-.1s-81.5-97.1-3.7-227L821.3 38l-11.2 4.1zm77.7-1.6s89.4 103.7 0 221.3l-29.5-.1s81.5-98 3.7-227.9l14.5 2.9 11.3 3.8z"/><linearGradient id="SVGID_6_" gradientUnits="userSpaceOnUse" x1="139" y1="976" x2="139" y2="896.2" gradientTransform="matrix(1 0 0 -1 0 976)"><stop offset="0" stop-color="gray" stop-opacity=".25"/><stop offset=".54" stop-color="gray" stop-opacity=".12"/><stop offset="1" stop-color="gray" stop-opacity=".1"/></linearGradient><path class="st22" d="M57.9 0c.7 44.3 36.8 79.8 81.1 79.8S219.4 44.3 220.1 0H57.9z"/><path class="st23" d="M66.7 0c.7 39.4 32.9 71 72.3 71s71.6-31.6 72.3-71H66.7z"/></g></g></svg>