<svg id="Layer_1" xmlns="http://www.w3.org/2000/svg" viewBox="0 0 44.2 50"><style>.st0{fill:#e54e4e}.st1{fill:#fff}</style><path class="st0" d="M44 10.2l-.4-2.5-2.5.1h-.6c-.8 0-1.7-.1-2.6-.2-2.1-.3-4-1.7-6.3-3.3l-.3-.2c-2.8-2-5.7-4.1-9.1-4.1S15.8 2.1 13 4.1l-.3.2C10.4 6 8.4 7.4 6.3 7.6c-.9.2-1.7.2-2.6.2h-.6L.6 7.7l-.4 2.5c0 .3-.9 6.2 1.2 14 1.2 4.5 3.2 8.8 5.9 12.6 3.4 4.8 7.9 8.9 13.3 12.2l1.5.9 1.5-.9c5.5-3.4 10-7.5 13.3-12.2 2.7-3.8 4.7-8.1 5.9-12.6 2.2-7.8 1.2-13.7 1.2-14z"/><path class="st1" d="M17.4 29.9l5.7-5.7c.1-.1.2-.1.3 0 2 1.1 4.5.3 5.6-1.8 1.1-2 .3-4.5-1.8-5.6-2-1.1-4.5-.3-5.6 1.8-.6 1.2-.6 2.6 0 3.8.1.1 0 .2 0 .3l-2.4 2.4c-.1.1-.2.1-.3 0L17.8 24c-.1-.1-.4-.1-.5 0l-1.9 1.9c-.1.1-.1.4 0 .5l1.1 1.1c.1.1.1.2 0 .3l-.6.6c-.2.2-.2.6 0 .9l.7.7c.2.2.6.2.8-.1zm6.2-9.4c0-.9.8-1.7 1.7-1.7s1.7.8 1.7 1.7c0 .9-.8 1.7-1.7 1.7-.5 0-.9-.2-1.2-.5-.3-.3-.5-.7-.5-1.2z"/></svg>