<?xml version="1.0" encoding="utf-8"?>
<!-- Generator: Adobe Illustrator 21.1.0, SVG Export Plug-In . SVG Version: 6.00 Build 0)  -->
<svg version="1.1" id="Layer_1" xmlns="http://www.w3.org/2000/svg" xmlns:xlink="http://www.w3.org/1999/xlink" x="0px" y="0px"
	 viewBox="0 0 1126 377" style="enable-background:new 0 0 1126 377;" xml:space="preserve">
<style type="text/css">
	.st0{opacity:0.5;}
	.st1{fill:url(#SVGID_1_);}
	.st2{fill:#FDA57D;}
	.st3{fill:#4D8AF0;}
	.st4{fill:#344B66;}
	.st5{fill:#FFFFFF;}
	.st6{fill:#66CC86;}
	.st7{fill:#3A5273;}
	.st8{fill:#333333;}
	.st9{fill:#F49742;}
	.st10{opacity:0.25;fill:url(#SVGID_2_);enable-background:new    ;}
	.st11{opacity:0.25;fill:#7CC2E5;enable-background:new    ;}
	.st12{opacity:0.25;fill:#82C8F3;enable-background:new    ;}
	.st13{opacity:0.25;fill:url(#SVGID_3_);enable-background:new    ;}
	.st14{opacity:0.25;fill:url(#SVGID_4_);enable-background:new    ;}
	.st15{opacity:0.25;}
	.st16{fill:url(#SVGID_5_);}
	.st17{fill:#7CC2E5;}
	.st18{fill:#82C8F3;}
	.st19{opacity:0.25;fill:url(#SVGID_6_);enable-background:new    ;}
	.st20{fill:url(#SVGID_7_);}
	.st21{fill:url(#SVGID_8_);}
	.st22{opacity:0.25;fill:url(#SVGID_9_);enable-background:new    ;}
	.st23{fill:url(#SVGID_10_);}
	.st24{fill:url(#SVGID_11_);}
	.st25{opacity:0.25;fill:url(#SVGID_12_);enable-background:new    ;}
	.st26{opacity:0.25;fill:url(#SVGID_13_);enable-background:new    ;}
	.st27{fill:url(#SVGID_14_);}
	.st28{opacity:0.25;fill:url(#SVGID_15_);enable-background:new    ;}
	.st29{opacity:0.25;fill:url(#SVGID_16_);enable-background:new    ;}
	.st30{fill:url(#SVGID_17_);}
	.st31{opacity:0.25;fill:url(#SVGID_18_);enable-background:new    ;}
	.st32{opacity:0.25;fill:url(#SVGID_19_);enable-background:new    ;}
	.st33{fill:#6AA7BF;}
	.st34{fill:#6EADCC;}
	.st35{fill:#E0E0E0;}
	.st36{opacity:0.1;enable-background:new    ;}
	.st37{opacity:0.25;fill:url(#SVGID_20_);enable-background:new    ;}
	.st38{fill:#EEEEEE;}
</style>
<g id="Layer_2">
	<g id="c1beeda2-3973-4ae6-86a9-52f16471172f">
		<g class="st0">
			
				<linearGradient id="SVGID_1_" gradientUnits="userSpaceOnUse" x1="212.3963" y1="540.95" x2="212.3963" y2="763.45" gradientTransform="matrix(1 0 0 -1 -149.07 812.85)">
				<stop  offset="0" style="stop-color:#808080;stop-opacity:0.25"/>
				<stop  offset="0.54" style="stop-color:#808080;stop-opacity:0.12"/>
				<stop  offset="1" style="stop-color:#808080;stop-opacity:0.1"/>
			</linearGradient>
			<path class="st1" d="M115,49.4l-50.7,33c-0.5-2-1.7-3.9-3.3-5.2c0.6-1.6,0.7-3.3,0.3-5c-0.1-0.4-0.3-0.9-0.5-1.2
				c-0.5-0.5-1.3-0.7-2-0.6L50.7,71c-0.9,0-1.9,0.2-2.6,0.8c-1.1,0.9-1.5,2.9-2.6,3.8c-0.8,0.6-1.8,0.5-2.6,0.9
				c-1.9,1-2.3,3.9-2.4,6.4c-0.2,3.3-0.2,7.2,2,9.2c1.6,1.5,3.7,1.3,5.7,1.2l2-0.2c0.5,0.3,1,0.5,1.6,0.8v2.8h-0.4
				c0,0-22.8-6.7-47.8,62.2H3.1c0,0-3.7,12.5,2.2,10.3c5.1-1.9,5.3-8.3,5.2-9.9h0.4c0,0,10.3-30.2,26.5-33.9c0,0,11.8,14.7-7.4,44.2
				h15c-0.1,3.3,0.6,6.6,1.9,9.6c4.4,8.8-8.8,92.7-8.8,92.7h11l5.6-27.8l0.7,27.8h8.1l8.1-53.5L70.5,154v-16.7l1.5,2v-25.8h21.3
				L97,84.7h-0.4c0.1-2,0-4-0.3-6l27.5-5.8C128.2,54.6,115,49.4,115,49.4z M91,85.2l-6.4,16.5c0,0-17.7-8.1-24.3-5.2h-0.4V93
				c2.7-1.6,4.5-4.4,4.8-7.6l26.5-5.6C90.8,81.6,90.7,83.4,91,85.2L91,85.2z"/>
		</g>
		<path class="st2" d="M95,89.4c0,0,0.8-12.2-2.9-9.5S90,90.1,90,90.1L95,89.4z"/>
		<path class="st2" d="M6,158.8c0,0-3.5,11.9,2.1,9.8s4.9-9.8,4.9-9.8H6z"/>
		<rect x="52.3" y="95" class="st2" width="7.7" height="7"/>
		<rect x="46" y="133.6" class="st3" width="6.3" height="31.6"/>
		<rect x="46" y="133.6" class="st4" width="6.3" height="31.6"/>
		<path class="st5" d="M55.3,99.5h7.3c4.2,0,7.6,3.4,7.6,7.6v47.1H47.8v-47.1C47.8,102.9,51.1,99.6,55.3,99.5z"/>
		<circle class="st2" cx="55.4" cy="88.3" r="9.1"/>
		<path class="st6" d="M51.9,99.5c0,0-21.7-6.3-45.6,59.6h7c0,0,9.8-28.8,25.2-32.3c0,0,11.2,14-7,42.1h14.8v-9.4
			c-0.1-14.2,1.7-28.4,5.3-42.2C53.3,111.6,53.4,105.4,51.9,99.5z"/>
		<path class="st6" d="M60.3,99.5v2.1c0,0,4.9,21.7,9.1,35.8l2.2,2.9v-24.6h20.3l3.5-27.3h-5.6l-6.4,16.1
			C83.4,104.4,66.6,96.7,60.3,99.5z"/>
		<path class="st7" d="M47.7,154.2c0,0-4.2,15.4,0,23.8s-7.6,88.4-7.6,88.4h9.7L64.9,191l2.4-36.9L47.7,154.2z"/>
		<polygon class="st7" points="70.2,154.2 71.2,215.6 63.5,266.4 55.8,266.4 53,154.2 		"/>
		<path class="st8" d="M53.9,84.8c0.2-0.3,0.4-0.6,0.7-0.8c0.3-0.2,0.6-0.2,0.9-0.2c1.9-0.2,4.1-0.2,5.3-2c0.9-1.6,1.1-3.5,0.6-5.3
			c-0.1-0.5-0.2-0.9-0.5-1.3c-0.5-0.5-1.2-0.7-1.9-0.5l-7.7,0.5c-0.9,0-1.7,0.2-2.5,0.7c-1.1,0.9-1.4,2.8-2.5,3.6
			c-0.8,0.5-1.7,0.5-2.5,0.9c-1.8,0.9-2.2,3.7-2.3,6.1c-0.2,3.1-0.2,6.8,1.9,8.7c1.6,1.4,3.6,1.3,5.5,1.2l3.5-0.3
			c0.4,0,0.7-0.1,1-0.3c0.4-0.6,0.6-1.4,0.5-2.1c-0.1-1.8-0.3-3.8-1.4-4.8c-0.3-0.2-0.5-0.4-0.8-0.7C50.3,86.2,53.3,85.7,53.9,84.8z
			"/>
		<path class="st9" d="M112.6,54.7c0,0,12.6,4.9,8.4,22.4L64.2,89v-2.8L112.6,54.7z"/>
		
			<linearGradient id="SVGID_2_" gradientUnits="userSpaceOnUse" x1="429.4885" y1="410.0196" x2="429.4885" y2="429.9196" gradientTransform="matrix(1 -7.000000e-02 -7.000000e-02 -1 -236.63 502.2861)">
			<stop  offset="0" style="stop-color:#808080;stop-opacity:0.25"/>
			<stop  offset="0.54" style="stop-color:#808080;stop-opacity:0.12"/>
			<stop  offset="1" style="stop-color:#808080;stop-opacity:0.1"/>
		</linearGradient>
		<polygon class="st10" points="175.9,49.9 176.9,49.4 176.7,49.3 176.7,49.3 176.6,49.3 149.4,45.8 150,54.8 150.8,62.8 
			152.5,61.9 154.1,65.5 		"/>
		<polygon class="st11" points="150.9,54.7 151.7,62 176,49.6 154.9,50.1 		"/>
		<polygon class="st12" points="150.4,46.4 176,49.6 150.9,54.7 		"/>
		<polygon class="st12" points="154.7,64.4 175.8,49.6 151.3,56.9 		"/>
		
			<linearGradient id="SVGID_3_" gradientUnits="userSpaceOnUse" x1="348.2231" y1="366.8562" x2="348.2231" y2="386.7661" gradientTransform="matrix(0.95 0.32 0.32 -0.95 -235.5427 322.7476)">
			<stop  offset="0" style="stop-color:#808080;stop-opacity:0.25"/>
			<stop  offset="0.54" style="stop-color:#808080;stop-opacity:0.12"/>
			<stop  offset="1" style="stop-color:#808080;stop-opacity:0.1"/>
		</linearGradient>
		<polygon class="st13" points="228,79.4 229.2,79.3 228.9,79.2 229,79.2 228.9,79.2 205.2,65.5 202.2,74 199.9,81.7 201.8,81.5 
			201.9,85.4 		"/>
		<polygon class="st11" points="203.1,74.2 201.1,81.2 228.2,79.3 208.6,71.5 		"/>
		<polygon class="st12" points="205.8,66.4 228.2,79.3 203.1,74.2 		"/>
		<polygon class="st12" points="202.9,84.6 228.1,79.1 202.7,76.4 		"/>
		
			<linearGradient id="SVGID_4_" gradientUnits="userSpaceOnUse" x1="522.6096" y1="282.6396" x2="522.6096" y2="302.5396" gradientTransform="matrix(1 -7.000000e-02 -7.000000e-02 -1 -236.45 502.7262)">
			<stop  offset="0" style="stop-color:#808080;stop-opacity:0.25"/>
			<stop  offset="0.54" style="stop-color:#808080;stop-opacity:0.12"/>
			<stop  offset="1" style="stop-color:#808080;stop-opacity:0.1"/>
		</linearGradient>
		<polygon class="st14" points="278.1,170.9 279.1,170.4 278.9,170.4 279,170.3 278.8,170.4 251.6,166.9 252.2,175.9 253.1,183.8 
			254.8,183 256.3,186.5 		"/>
		<polygon class="st11" points="253.1,175.7 253.9,183 278.2,170.7 257.1,171.1 		"/>
		<polygon class="st12" points="252.6,167.4 278.2,170.7 253.1,175.7 		"/>
		<polygon class="st12" points="256.9,185.4 278.1,170.6 253.5,177.9 		"/>
		<g class="st15">
			
				<linearGradient id="SVGID_5_" gradientUnits="userSpaceOnUse" x1="615.8256" y1="381.4182" x2="615.8256" y2="401.3186" gradientTransform="matrix(0.99 0.12 0.12 -0.99 -240.9705 390.0766)">
				<stop  offset="0" style="stop-color:#808080;stop-opacity:0.25"/>
				<stop  offset="0.54" style="stop-color:#808080;stop-opacity:0.12"/>
				<stop  offset="1" style="stop-color:#808080;stop-opacity:0.1"/>
			</linearGradient>
			<polygon class="st16" points="428.6,74.7 429.6,74.4 429.4,74.3 429.5,74.3 429.3,74.3 403.3,65.8 402.2,74.7 401.5,82.7 
				403.3,82.2 404.2,85.9 			"/>
			<polygon class="st17" points="403.1,74.7 402.5,82 428.7,74.5 407.9,71 			"/>
			<polygon class="st18" points="404.1,66.5 428.7,74.5 403.1,74.7 			"/>
			<polygon class="st18" points="405,85 428.5,74.4 403.1,77 			"/>
		</g>
		
			<linearGradient id="SVGID_6_" gradientUnits="userSpaceOnUse" x1="599.8647" y1="261.1624" x2="599.8647" y2="281.0722" gradientTransform="matrix(0.98 0.18 0.18 -0.98 -215.9611 355.1399)">
			<stop  offset="0" style="stop-color:#808080;stop-opacity:0.25"/>
			<stop  offset="0.54" style="stop-color:#808080;stop-opacity:0.12"/>
			<stop  offset="1" style="stop-color:#808080;stop-opacity:0.1"/>
		</linearGradient>
		<polygon class="st19" points="433.6,197.1 434.7,196.8 434.4,196.8 434.5,196.7 434.4,196.7 408.9,186.6 407.2,195.4 406.1,203.4 
			407.9,203 408.6,206.8 		"/>
		<polygon class="st11" points="408.2,195.5 407.1,202.8 433.7,196.9 413.2,192.1 		"/>
		<polygon class="st12" points="409.7,187.4 433.7,196.9 408.2,195.5 		"/>
		<polygon class="st12" points="409.4,205.9 433.6,196.8 408,197.8 		"/>
		<g class="st15">
			
				<linearGradient id="SVGID_7_" gradientUnits="userSpaceOnUse" x1="865.7834" y1="396.8" x2="865.7834" y2="428.7176" gradientTransform="matrix(0.96 -0.28 -0.28 -0.96 -193.9622 648.4846)">
				<stop  offset="0" style="stop-color:#808080;stop-opacity:0.25"/>
				<stop  offset="0.54" style="stop-color:#808080;stop-opacity:0.12"/>
				<stop  offset="1" style="stop-color:#808080;stop-opacity:0.1"/>
			</linearGradient>
			<polygon class="st20" points="540.1,1.2 541.5,0.1 541.1,0.1 541.2,0 541,0.1 497.2,3.9 501.2,17.7 505.2,29.9 507.6,28 
				511.2,33 			"/>
			<polygon class="st17" points="502.6,17.2 506.3,28.3 540.1,0.8 507.3,8.7 			"/>
			<polygon class="st18" points="498.9,4.5 540.1,0.8 502.6,17.2 			"/>
			<polygon class="st18" points="511.8,31.1 539.9,0.7 504,20.5 			"/>
		</g>
		<g class="st15">
			
				<linearGradient id="SVGID_8_" gradientUnits="userSpaceOnUse" x1="889.0222" y1="332.38" x2="889.0222" y2="364.3176" gradientTransform="matrix(0.96 -0.28 -0.28 -0.96 -199.1622 651.5946)">
				<stop  offset="0" style="stop-color:#808080;stop-opacity:0.25"/>
				<stop  offset="0.54" style="stop-color:#808080;stop-opacity:0.12"/>
				<stop  offset="1" style="stop-color:#808080;stop-opacity:0.1"/>
			</linearGradient>
			<polygon class="st21" points="574.3,56.3 575.7,55.2 575.3,55.2 575.4,55.1 575.2,55.2 531.4,59.1 535.4,73 539.5,85.2 
				541.9,83.3 545.5,88.3 			"/>
			<polygon class="st17" points="536.8,72.4 540.6,83.6 574.3,55.9 541.5,63.9 			"/>
			<polygon class="st18" points="533.1,59.7 574.3,55.9 536.8,72.4 			"/>
			<polygon class="st18" points="546.1,86.4 574.1,55.8 538.2,75.8 			"/>
		</g>
		
			<linearGradient id="SVGID_9_" gradientUnits="userSpaceOnUse" x1="857.8723" y1="287.5196" x2="857.8723" y2="317.6295" gradientTransform="matrix(1 -7.000000e-02 -7.000000e-02 -1 -236.45 502.7262)">
			<stop  offset="0" style="stop-color:#808080;stop-opacity:0.25"/>
			<stop  offset="0.54" style="stop-color:#808080;stop-opacity:0.12"/>
			<stop  offset="1" style="stop-color:#808080;stop-opacity:0.1"/>
		</linearGradient>
		<polygon class="st22" points="619,136.1 620.5,135.4 620.2,135.4 620.3,135.3 620.1,135.3 579,130 579.9,143.6 581.2,155.7 
			583.7,154.4 586,159.8 		"/>
		<polygon class="st11" points="581.2,143.4 582.4,154.4 619.2,135.8 587.3,136.5 		"/>
		<polygon class="st12" points="580.4,130.9 619.2,135.8 581.2,143.4 		"/>
		<polygon class="st12" points="587,158.1 618.9,135.7 581.9,146.7 		"/>
		<g class="st15">
			
				<linearGradient id="SVGID_10_" gradientUnits="userSpaceOnUse" x1="972.9312" y1="189.0916" x2="972.9312" y2="216.7517" gradientTransform="matrix(0.97 -0.25 -0.25 -0.97 -225.5516 651.7363)">
				<stop  offset="0" style="stop-color:#808080;stop-opacity:0.25"/>
				<stop  offset="0.54" style="stop-color:#808080;stop-opacity:0.12"/>
				<stop  offset="1" style="stop-color:#808080;stop-opacity:0.1"/>
			</linearGradient>
			<polygon class="st23" points="682.8,200.9 684,200 683.7,200 683.7,199.9 683.6,200 645.5,202.3 648.7,214.4 651.9,225.1 
				654,223.4 657,227.9 			"/>
			<polygon class="st17" points="649.9,213.9 652.8,223.7 682.8,200.6 654.1,206.7 			"/>
			<polygon class="st18" points="647,202.8 682.8,200.6 649.9,213.9 			"/>
			<polygon class="st18" points="657.6,226.2 682.6,200.5 651,216.8 			"/>
		</g>
		<g class="st15">
			
				<linearGradient id="SVGID_11_" gradientUnits="userSpaceOnUse" x1="988.6509" y1="364.7596" x2="988.6509" y2="391.9695" gradientTransform="matrix(1 -7.000000e-02 -7.000000e-02 -1 -236.45 502.7262)">
				<stop  offset="0" style="stop-color:#808080;stop-opacity:0.25"/>
				<stop  offset="0.54" style="stop-color:#808080;stop-opacity:0.12"/>
				<stop  offset="1" style="stop-color:#808080;stop-opacity:0.1"/>
			</linearGradient>
			<polygon class="st24" points="742.8,52.6 744.1,51.9 743.8,51.9 743.9,51.8 743.7,51.9 706.6,47.1 707.4,59.4 708.5,70.3 
				710.8,69.1 712.9,73.9 			"/>
			<polygon class="st17" points="708.6,59.1 709.7,69.1 742.9,52.3 714,52.9 			"/>
			<polygon class="st18" points="707.9,47.9 742.9,52.3 708.6,59.1 			"/>
			<polygon class="st18" points="713.8,72.4 742.7,52.2 709.2,62.2 			"/>
		</g>
		
			<linearGradient id="SVGID_12_" gradientUnits="userSpaceOnUse" x1="1103.6106" y1="294.3495" x2="1103.6106" y2="323.9296" gradientTransform="matrix(1 -7.000000e-02 -7.000000e-02 -1 -236.45 502.7262)">
			<stop  offset="0" style="stop-color:#808080;stop-opacity:0.25"/>
			<stop  offset="0.54" style="stop-color:#808080;stop-opacity:0.12"/>
			<stop  offset="1" style="stop-color:#808080;stop-opacity:0.1"/>
		</linearGradient>
		<polygon class="st25" points="864.1,113.4 865.5,112.7 865.2,112.7 865.3,112.6 865.1,112.6 824.7,107.4 825.6,120.8 826.9,132.6 
			829.3,131.4 831.6,136.6 		"/>
		<polygon class="st11" points="826.9,120.5 828.1,131.4 864.2,113.1 832.8,113.8 		"/>
		<polygon class="st12" points="826.1,108.3 864.2,113.1 826.9,120.5 		"/>
		<polygon class="st12" points="832.6,135 864,113 827.6,123.8 		"/>
		
			<linearGradient id="SVGID_13_" gradientUnits="userSpaceOnUse" x1="1081.699" y1="267.1387" x2="1081.699" y2="287.0487" gradientTransform="matrix(0.98 0.21 0.21 -0.98 -199.3611 243.5416)">
			<stop  offset="0" style="stop-color:#808080;stop-opacity:0.25"/>
			<stop  offset="0.54" style="stop-color:#808080;stop-opacity:0.12"/>
			<stop  offset="1" style="stop-color:#808080;stop-opacity:0.1"/>
		</linearGradient>
		<polygon class="st26" points="931.9,198.5 933,198.3 932.7,198.2 932.8,198.2 932.7,198.2 907.5,187.4 905.6,196.2 904.2,204.1 
			906.1,203.7 906.6,207.5 		"/>
		<polygon class="st11" points="906.5,196.2 905.3,203.5 932,198.3 911.6,193 		"/>
		<polygon class="st12" points="908.2,188.2 932,198.3 906.5,196.2 		"/>
		<polygon class="st12" points="907.5,206.6 931.9,198.2 906.3,198.5 		"/>
		<g class="st15">
			
				<linearGradient id="SVGID_14_" gradientUnits="userSpaceOnUse" x1="869.9324" y1="182.1812" x2="869.9324" y2="247.0917" gradientTransform="matrix(0.86 0.51 0.51 -0.86 -58.5578 2.728)">
				<stop  offset="0" style="stop-color:#808080;stop-opacity:0.25"/>
				<stop  offset="0.54" style="stop-color:#808080;stop-opacity:0.12"/>
				<stop  offset="1" style="stop-color:#808080;stop-opacity:0.1"/>
			</linearGradient>
			<polygon class="st27" points="841.2,271 844.8,271.5 844.2,271 844.5,271 844.1,270.8 777.5,211.3 762.5,236.6 750.1,259.6 
				756.2,260.4 753.8,272.7 			"/>
			<polygon class="st17" points="765.3,237.8 753.9,258.9 841.9,270.5 784.3,232.9 			"/>
			<polygon class="st18" points="779,214.7 841.9,270.5 765.3,237.8 			"/>
			<polygon class="st18" points="757.5,270.9 841.6,270 762.3,244.5 			"/>
		</g>
		
			<linearGradient id="SVGID_15_" gradientUnits="userSpaceOnUse" x1="1250.3011" y1="164.22" x2="1250.3011" y2="184.13" gradientTransform="matrix(0.98 0.21 0.21 -0.98 -161.6611 245.8115)">
			<stop  offset="0" style="stop-color:#808080;stop-opacity:0.25"/>
			<stop  offset="0.54" style="stop-color:#808080;stop-opacity:0.12"/>
			<stop  offset="1" style="stop-color:#808080;stop-opacity:0.1"/>
		</linearGradient>
		<polygon class="st28" points="1114.2,332.4 1115.3,332.2 1115.1,332.1 1115.2,332.1 1115,332.1 1089.8,321.4 1087.9,330.2 
			1086.6,338.1 1088.4,337.8 1089,341.6 		"/>
		<polygon class="st11" points="1088.9,330.3 1087.6,337.5 1114.4,332.2 1093.9,327 		"/>
		<polygon class="st12" points="1090.6,322.2 1114.4,332.2 1088.9,330.3 		"/>
		<polygon class="st12" points="1089.9,340.7 1114.2,332.1 1088.7,332.5 		"/>
		
			<linearGradient id="SVGID_16_" gradientUnits="userSpaceOnUse" x1="1284.7714" y1="97.5093" x2="1284.7714" y2="126.0693" gradientTransform="matrix(0.99 -0.17 -0.17 -0.99 -240.0105 613.6406)">
			<stop  offset="0" style="stop-color:#808080;stop-opacity:0.25"/>
			<stop  offset="0.54" style="stop-color:#808080;stop-opacity:0.12"/>
			<stop  offset="1" style="stop-color:#808080;stop-opacity:0.1"/>
		</linearGradient>
		<polygon class="st29" points="1029.5,274.5 1030.8,273.6 1030.5,273.6 1030.6,273.5 1030.4,273.6 991.1,272.7 993.3,285.5 
			995.7,296.7 997.9,295.2 1000.7,300 		"/>
		<polygon class="st11" points="994.5,285.1 996.8,295.4 1029.6,274.1 999.5,278 		"/>
		<polygon class="st12" points="992.5,273.4 1029.6,274.1 994.5,285.1 		"/>
		<polygon class="st12" points="1001.4,298.4 1029.3,274 995.5,288.2 		"/>
		<g class="st15">
			
				<linearGradient id="SVGID_17_" gradientUnits="userSpaceOnUse" x1="1233.1082" y1="343.3394" x2="1233.1082" y2="404.4097" gradientTransform="matrix(1 -7.000000e-02 -7.000000e-02 -1 -236.45 502.7262)">
				<stop  offset="0" style="stop-color:#808080;stop-opacity:0.25"/>
				<stop  offset="0.54" style="stop-color:#808080;stop-opacity:0.12"/>
				<stop  offset="1" style="stop-color:#808080;stop-opacity:0.1"/>
			</linearGradient>
			<polygon class="st30" points="1008.5,32.3 1011.5,30.8 1010.8,30.7 1011,30.6 1010.6,30.7 927.2,20 929,47.5 931.7,72 
				936.8,69.4 941.6,80.2 			"/>
			<polygon class="st17" points="931.8,47 934.3,69.4 1008.7,31.6 944,33.1 			"/>
			<polygon class="st18" points="930.1,21.8 1008.7,31.6 931.8,47 			"/>
			<polygon class="st18" points="943.5,76.8 1008.3,31.4 933.1,53.8 			"/>
		</g>
		
			<linearGradient id="SVGID_18_" gradientUnits="userSpaceOnUse" x1="1367.9186" y1="368.6194" x2="1367.9186" y2="384.5695" gradientTransform="matrix(1 -7.000000e-02 -7.000000e-02 -1 -236.45 502.7262)">
			<stop  offset="0" style="stop-color:#808080;stop-opacity:0.25"/>
			<stop  offset="0.54" style="stop-color:#808080;stop-opacity:0.12"/>
			<stop  offset="1" style="stop-color:#808080;stop-opacity:0.1"/>
		</linearGradient>
		<polygon class="st31" points="1115.3,32.1 1116.1,31.7 1116,31.6 1116,31.6 1115.9,31.6 1094.1,28.8 1094.6,36 1095.3,42.4 
			1096.6,41.7 1097.9,44.6 		"/>
		<polygon class="st11" points="1095.3,35.9 1096,41.8 1115.4,31.9 1098.5,32.3 		"/>
		<polygon class="st12" points="1094.9,29.3 1115.4,31.9 1095.3,35.9 		"/>
		<polygon class="st12" points="1098.4,43.7 1115.3,31.8 1095.7,37.7 		"/>
		
			<linearGradient id="SVGID_19_" gradientUnits="userSpaceOnUse" x1="1267.3752" y1="269.8423" x2="1267.3752" y2="336.2552" gradientTransform="matrix(0.99 0.14 0.14 -0.99 -216.4905 270.2078)">
			<stop  offset="0" style="stop-color:#808080;stop-opacity:0.25"/>
			<stop  offset="0.54" style="stop-color:#808080;stop-opacity:0.12"/>
			<stop  offset="1" style="stop-color:#808080;stop-opacity:0.1"/>
		</linearGradient>
		<polygon class="st32" points="1123.3,145.4 1126.9,144.5 1126.1,144.2 1126.4,144.1 1125.9,144.1 1039.8,113.8 1035.4,143.5 
			1032.7,170.1 1038.7,168.5 1041.3,181 		"/>
		<polygon class="st11" points="1038.5,143.6 1036,167.9 1123.8,144.7 1054.7,131.5 		"/>
		<polygon class="st12" points="1042.5,116.3 1123.8,144.7 1038.5,143.6 		"/>
		<polygon class="st12" points="1044.1,177.9 1123.3,144.3 1038.3,151.1 		"/>
	</g>
</g>
<path class="st33" d="M55.8,266.4L56,271c-0.1,0.4,0.2,0.8,0.6,0.8h15.1c1.2,0,1.6-1.7,0.4-2.2c-2.2-0.9-3.8-1.8-8.8-2.5l0.1-0.7
	L55.8,266.4L55.8,266.4z"/>
<path class="st34" d="M40.2,266.4l-0.6,2.6c-0.3,1.4,0.7,2.7,2.2,2.7h16.7c1.2,0,1.6-1.7,0.5-2.2c-2.2-0.9-4.1-1.9-9.2-2.5l0.2-0.7
	h-9.8C40.2,266.3,40.2,266.4,40.2,266.4z"/>
<rect x="24.9" y="291.1" class="st18" width="66.8" height="10.1"/>
<rect x="38.5" y="370.9" class="st35" width="38.8" height="5.2"/>
<rect x="40.5" y="341.6" class="st35" width="36.8" height="5.7"/>
<rect x="42.4" y="312.9" class="st35" width="33.5" height="5.7"/>
<rect x="9.3" y="271.8" class="st18" width="98.2" height="20.8"/>
<rect x="25.1" y="292.3" class="st36" width="66.5" height="1.9"/>
<linearGradient id="SVGID_20_" gradientUnits="userSpaceOnUse" x1="280.9624" y1="145.884" x2="280.9624" y2="165.7941" gradientTransform="matrix(0.9933 -0.1348 -0.1348 -0.9933 47.1711 218.2557)">
	<stop  offset="0" style="stop-color:#808080;stop-opacity:0.25"/>
	<stop  offset="0.54" style="stop-color:#808080;stop-opacity:0.12"/>
	<stop  offset="1" style="stop-color:#808080;stop-opacity:0.1"/>
</linearGradient>
<polygon class="st37" points="317.5,23 318.6,22.4 318.2,22.4 318.3,22.4 318.2,22.4 290.9,20.7 292,29.6 293.4,37.6 295,36.5 
	296.8,40 "/>
<polygon class="st11" points="292.9,29.4 294.2,36.6 317.7,22.8 296.6,24.6 "/>
<polygon class="st12" points="291.9,21.2 317.7,22.8 292.9,29.4 "/>
<polygon class="st12" points="297.3,38.8 317.5,22.7 293.5,31.6 "/>
<polygon class="st38" points="25.6,377.2 32.5,301.3 24.9,301 20.8,377.2 "/>
<polygon class="st35" points="40.1,377.2 44.2,301 39.1,301.3 34.4,377.2 "/>
<polygon class="st35" points="82.7,377.2 78.9,301.3 73.8,301 77,377.2 "/>
<polygon class="st38" points="94.9,377.2 91.7,301 84.1,301.3 90.1,377.2 "/>
</svg>
