<svg id="Layer_1" xmlns="http://www.w3.org/2000/svg" viewBox="0 0 1920 226"><style>.st0{opacity:.1}.st1,.st2{fill:#fff}.st2{opacity:.1;enable-background:new}</style><title>ctabg</title><g id="Layer_2"><g id="Layer_1-2"><g class="st0"><path class="st1" d="M244.4 225.1h-9.6c-.7 0-1.3-.6-1.3-1.3v-24.1c0-.7.6-1.3 1.3-1.3h9.6c.7 0 1.3.6 1.3 1.3v24.1c0 .7-.6 1.3-1.3 1.3zm-8.2-2.6h6.9v-21.4h-6.9v21.4z"/></g><g class="st0"><path class="st1" d="M30.2 211.3c-2.1 0-3.8-1.7-3.8-3.8s1.7-3.8 3.8-3.8c2.1 0 3.8 1.7 3.8 3.8 0 2-1.7 3.7-3.8 3.8zm0-5c-.6 0-1.2.5-1.2 1.2 0 .6.5 1.2 1.2 1.2.6 0 1.2-.5 1.2-1.2-.1-.7-.6-1.2-1.2-1.2z"/></g><g class="st0"><path class="st1" d="M42.5 211.3c-2.1 0-3.8-1.7-3.8-3.8s1.7-3.8 3.8-3.8c2.1 0 3.8 1.7 3.8 3.8.1 2-1.6 3.7-3.8 3.8.1 0 0 0 0 0zm0-5c-.6 0-1.2.5-1.2 1.2 0 .6.5 1.2 1.2 1.2.6 0 1.2-.5 1.2-1.2s-.5-1.2-1.2-1.2z"/></g><g class="st0"><path class="st1" d="M54.9 211.3c-2.1 0-3.8-1.7-3.8-3.8s1.7-3.8 3.8-3.8c2.1 0 3.8 1.7 3.8 3.8 0 2-1.7 3.7-3.8 3.8zm0-5c-.6 0-1.2.5-1.2 1.2 0 .6.5 1.2 1.2 1.2.6 0 1.2-.5 1.2-1.2-.1-.7-.6-1.2-1.2-1.2z"/></g><g class="st0"><path class="st1" d="M68.3 175.5H52.7c-4.2 0-7.7-3.4-7.7-7.7v-26.1c0-.7.6-1.3 1.3-1.3h28.2c.7 0 1.3.6 1.3 1.3v26.1c0 4.2-3.3 7.6-7.5 7.7zm-20.6-32.4v24.8c0 2.7 2.3 5 5 5h15.5c2.7 0 5-2.3 5-5v-24.8H47.7z"/></g><g class="st0"><path class="st1" d="M74.6 168c-.7 0-1.3-.6-1.3-1.3v-21c0-.7.6-1.3 1.3-1.3 6.5 0 11.8 5.3 11.8 11.8 0 6.5-5.3 11.7-11.8 11.8zm1.3-20.8v18c5-.7 8.4-5.4 7.7-10.4-.6-4-3.7-7.1-7.7-7.6z"/></g><g class="st0"><path class="st1" d="M276.4 63.3h-61.5c-.7 0-1.3-.6-1.3-1.3v-9.4c0-.7.6-1.3 1.3-1.3h61.5c.7 0 1.3.6 1.3 1.3V62c0 .7-.6 1.3-1.3 1.3zm-60.2-2.7H275v-6.7h-58.8v6.7z"/></g><g class="st0"><path class="st1" d="M276.4 58.5h-61.5c-.7 0-1.3-.6-1.3-1.3s.6-1.3 1.3-1.3h61.5c.7 0 1.3.6 1.3 1.3 0 .8-.6 1.3-1.3 1.3z"/></g><g class="st0"><path class="st1" d="M214.9 63.3c-.2 0-.3 0-.5-.1l-12-4.7c-.5-.2-.9-.7-.9-1.2s.3-1 .9-1.2l12-4.7c.7-.3 1.4 0 1.7.7.3.7 0 1.4-.7 1.7l-8.8 3.4 8.8 3.4c.7.3 1 1 .7 1.7-.1.6-.6 1-1.2 1z"/></g><g class="st0"><path class="st1" d="M207.7 60.4c-.7 0-1.3-.6-1.3-1.3v-3.7c0-.7.6-1.3 1.3-1.3.7 0 1.3.6 1.3 1.3v3.7c0 .7-.6 1.3-1.3 1.3z"/></g><g class="st0"><path class="st1" d="M525.4 183.2h-31.6c-.7 0-1.3-.6-1.3-1.3s.6-1.3 1.3-1.3h31.6c.7 0 1.3.6 1.3 1.3s-.6 1.3-1.3 1.3z"/></g><g class="st0"><path class="st1" d="M525.4 190.4h-31.6c-.7 0-1.3-.6-1.3-1.3 0-.7.6-1.3 1.3-1.3h31.6c.7 0 1.3.6 1.3 1.3s-.6 1.3-1.3 1.3z"/></g><g class="st0"><path class="st1" d="M525.4 197.7h-31.6c-.7 0-1.3-.6-1.3-1.3 0-.7.6-1.3 1.3-1.3h31.6c.7 0 1.3.6 1.3 1.3s-.6 1.3-1.3 1.3z"/></g><g class="st0"><path class="st1" d="M525.4 204.9h-31.6c-.7 0-1.3-.6-1.3-1.3 0-.7.6-1.3 1.3-1.3h31.6c.7 0 1.3.6 1.3 1.3s-.6 1.3-1.3 1.3z"/></g><g class="st0"><path class="st1" d="M525.4 212.2h-31.6c-.7 0-1.3-.6-1.3-1.3 0-.7.6-1.3 1.3-1.3h31.6c.7 0 1.3.6 1.3 1.3s-.6 1.3-1.3 1.3z"/></g><g class="st0"><path class="st1" d="M525.4 219.4h-31.6c-.7 0-1.3-.6-1.3-1.3 0-.7.6-1.3 1.3-1.3h31.6c.7 0 1.3.6 1.3 1.3s-.6 1.3-1.3 1.3z"/></g><g class="st0"><path class="st1" d="M568.9 183.2h-31.6c-.7 0-1.3-.6-1.3-1.3s.6-1.3 1.3-1.3h31.6c.7 0 1.3.6 1.3 1.3s-.6 1.3-1.3 1.3z"/></g><g class="st0"><path class="st1" d="M568.9 190.4h-31.6c-.7 0-1.3-.6-1.3-1.3 0-.7.6-1.3 1.3-1.3h31.6c.7 0 1.3.6 1.3 1.3s-.6 1.3-1.3 1.3z"/></g><g class="st0"><path class="st1" d="M568.9 197.7h-31.6c-.7 0-1.3-.6-1.3-1.3 0-.7.6-1.3 1.3-1.3h31.6c.7 0 1.3.6 1.3 1.3s-.6 1.3-1.3 1.3z"/></g><g class="st0"><path class="st1" d="M568.9 204.9h-31.6c-.7 0-1.3-.6-1.3-1.3 0-.7.6-1.3 1.3-1.3h31.6c.7 0 1.3.6 1.3 1.3s-.6 1.3-1.3 1.3z"/></g><g class="st0"><path class="st1" d="M568.9 212.2h-31.6c-.7 0-1.3-.6-1.3-1.3 0-.7.6-1.3 1.3-1.3h31.6c.7 0 1.3.6 1.3 1.3s-.6 1.3-1.3 1.3z"/></g><g class="st0"><path class="st1" d="M568.9 219.4h-31.6c-.7 0-1.3-.6-1.3-1.3 0-.7.6-1.3 1.3-1.3h31.6c.7 0 1.3.6 1.3 1.3s-.6 1.3-1.3 1.3z"/></g><g class="st0"><path class="st1" d="M148.2 99.6H44.9c-.7 0-1.3-.6-1.3-1.3v-9.8c0-.7.6-1.3 1.3-1.3h103.3c.7 0 1.3.6 1.3 1.3v9.8c0 .7-.5 1.3-1.1 1.3h-.2zM46.2 97h100.6v-7.1H46.2V97z"/></g><g class="st0"><path class="st1" d="M141.7 89.9H96.6c-.7 0-1.3-.6-1.3-1.3v-2.8c0-.7.5-1.3 1.2-1.3l45.2-2.8c.4 0 .7.1 1 .4.3.3.4.6.4 1v5.6c-.1.6-.7 1.2-1.4 1.2zm-43.8-2.7h42.5v-2.8L97.9 87v.2z"/></g><g class="st0"><path class="st1" d="M96.6 89.9H51.5c-.7 0-1.3-.6-1.3-1.3V83c0-.4.1-.7.4-1 .3-.3.6-.4 1-.4l45.2 2.8c.7.1 1.2.6 1.2 1.3v2.8c0 .7-.7 1.3-1.4 1.4zm-43.8-2.7h42.5V87l-42.5-2.6v2.8z"/></g><g class="st0"><path class="st1" d="M96.6 87.1c-.6 0-1.1-.4-1.3-1-.2-.7.2-1.4.9-1.6L140 71.7c.7-.2 1.4.2 1.6.9.2.7-.2 1.4-.9 1.6L96.9 87.1h-.3z"/></g><g class="st0"><path class="st1" d="M45.5 10.3H13.9c-.7 0-1.3-.6-1.3-1.3 0-.7.6-1.3 1.3-1.3h31.6c.7 0 1.3.6 1.3 1.3 0 .7-.6 1.3-1.3 1.3z"/></g><g class="st0"><path class="st1" d="M45.5 17.6H13.9c-.7 0-1.3-.6-1.3-1.3 0-.7.6-1.3 1.3-1.3h31.6c.7 0 1.3.6 1.3 1.3 0 .7-.6 1.3-1.3 1.3z"/></g><g class="st0"><path class="st1" d="M45.5 24.8H13.9c-.7 0-1.3-.6-1.3-1.3 0-.7.6-1.3 1.3-1.3h31.6c.7 0 1.3.6 1.3 1.3s-.6 1.3-1.3 1.3z"/></g><g class="st0"><path class="st1" d="M45.5 32.1H13.9c-.7 0-1.3-.6-1.3-1.3 0-.7.6-1.3 1.3-1.3h31.6c.7 0 1.3.6 1.3 1.3s-.6 1.3-1.3 1.3z"/></g><g class="st0"><path class="st1" d="M45.5 39.3H13.9c-.7 0-1.3-.6-1.3-1.3 0-.7.6-1.3 1.3-1.3h31.6c.7 0 1.3.6 1.3 1.3s-.6 1.3-1.3 1.3z"/></g><g class="st0"><path class="st1" d="M45.5 46.5H13.9c-.7 0-1.3-.6-1.3-1.3 0-.7.6-1.3 1.3-1.3h31.6c.7 0 1.3.6 1.3 1.3s-.6 1.3-1.3 1.3z"/></g><g class="st0"><path class="st1" d="M89 10.3H57.4c-.7 0-1.3-.6-1.3-1.3 0-.7.6-1.3 1.3-1.3H89c.7 0 1.3.6 1.3 1.3 0 .7-.6 1.3-1.3 1.3z"/></g><g class="st0"><path class="st1" d="M89 17.6H57.4c-.7 0-1.3-.6-1.3-1.3 0-.7.6-1.3 1.3-1.3H89c.7 0 1.3.6 1.3 1.3 0 .7-.6 1.3-1.3 1.3z"/></g><g class="st0"><path class="st1" d="M89 24.8H57.4c-.7 0-1.3-.6-1.3-1.3 0-.7.6-1.3 1.3-1.3H89c.7 0 1.3.6 1.3 1.3 0 .7-.6 1.3-1.3 1.3z"/></g><g class="st0"><path class="st1" d="M89 32.1H57.4c-.7 0-1.3-.6-1.3-1.3 0-.7.6-1.3 1.3-1.3H89c.7 0 1.3.6 1.3 1.3 0 .7-.6 1.3-1.3 1.3z"/></g><g class="st0"><path class="st1" d="M89 39.3H57.4c-.7 0-1.3-.6-1.3-1.3 0-.7.6-1.3 1.3-1.3H89c.7 0 1.3.6 1.3 1.3 0 .7-.6 1.3-1.3 1.3z"/></g><g class="st0"><path class="st1" d="M89 46.5H57.4c-.7 0-1.3-.6-1.3-1.3 0-.7.6-1.3 1.3-1.3H89c.7 0 1.3.6 1.3 1.3 0 .8-.6 1.3-1.3 1.3z"/></g><g class="st0"><path class="st1" d="M147.3 44.2c-.4 0-.7-.1-1-.4l-6.8-6.9c-2.6.7-5.4 1.1-8.1 1.1-12.8 0-23.2-7.9-23.2-17.6s10.4-17.6 23.2-17.6 23.2 7.9 23.2 17.6c-.1 4.6-2.3 8.9-5.9 11.8v10.6c0 .5-.3 1-.8 1.2-.2.2-.4.2-.6.2zm-7.4-10c.4 0 .7.1 1 .4l5.1 5.1v-8.1c0-.4.2-.8.5-1.1 3.5-2.8 5.4-6.4 5.4-10.1 0-8.3-9.2-15-20.5-15s-20.5 6.7-20.5 15 9.2 15 20.5 15c2.7 0 5.5-.4 8.1-1.2h.4z"/></g><g class="st0"><path class="st1" d="M119 24c-2.1 0-3.8-1.7-3.8-3.8 0-2.1 1.7-3.8 3.8-3.8 2.1 0 3.8 1.7 3.8 3.8 0 2.1-1.7 3.8-3.8 3.8zm0-5c-.6 0-1.2.5-1.2 1.2s.5 1.2 1.2 1.2 1.2-.5 1.2-1.2-.6-1.2-1.2-1.2z"/></g><g class="st0"><path class="st1" d="M131.4 24c-2.1 0-3.8-1.7-3.8-3.8 0-2.1 1.7-3.8 3.8-3.8 2.1 0 3.8 1.7 3.8 3.8 0 2.1-1.7 3.8-3.8 3.8zm0-5c-.6 0-1.2.5-1.2 1.2 0 .6.5 1.2 1.2 1.2.6 0 1.2-.5 1.2-1.2s-.5-1.2-1.2-1.2z"/></g><g class="st0"><path class="st1" d="M143.7 24c-2.1 0-3.8-1.7-3.8-3.8s1.7-3.8 3.8-3.8c2.1 0 3.8 1.7 3.8 3.8 0 2.1-1.7 3.8-3.8 3.8zm0-5c-.6 0-1.2.5-1.2 1.2 0 .6.5 1.2 1.2 1.2.6 0 1.2-.5 1.2-1.2s-.5-1.2-1.2-1.2z"/></g><g class="st0"><path class="st1" d="M186.8 93.9h-9.6c-.7 0-1.3-.6-1.3-1.3v-56c0-.7.6-1.3 1.3-1.3h9.6c.7 0 1.3.6 1.3 1.3v55.9c0 .8-.5 1.4-1.3 1.4zm-8.3-2.7h6.9V37.9h-6.9v53.3z"/></g><g class="st0"><path class="st1" d="M186.8 62h-9.6c-.7 0-1.3-.6-1.3-1.3V36.6c0-.7.6-1.3 1.3-1.3h9.6c.7 0 1.3.6 1.3 1.3v24.1c0 .7-.6 1.3-1.3 1.3zm-8.3-2.6h6.9V37.9h-6.9v21.5z"/></g><g class="st0"><path class="st1" d="M186.8 65.9h-9.6c-.7 0-1.3-.6-1.3-1.3v-3.9c0-.7.6-1.3 1.3-1.3h9.6c.7 0 1.3.6 1.3 1.3v3.9c0 .7-.5 1.3-1.3 1.3zm-8.3-2.6h6.9V62h-6.9v1.3z"/></g><g class="st0"><path class="st1" d="M185.7 98.1h-7.4c-.7 0-1.3-.6-1.3-1.3v-4.2c0-.7.6-1.3 1.3-1.3h7.4c.7 0 1.3.6 1.3 1.3v4.2c0 .7-.6 1.3-1.3 1.3zm-6.1-2.6h4.8v-1.6h-4.8v1.6z"/></g><g class="st0"><path class="st1" d="M182 123.4c-.1 0-.3 0-.4-.1-.3-.1-.5-.3-.7-.5l-7.4-10.3c-.2-.3-.3-.7-.2-1.1l3.7-15c.2-.6.7-1 1.3-1h7.4c.6 0 1.1.4 1.3 1l3.7 15c.1.4 0 .8-.2 1.1l-7.4 10.4c-.1.2-.3.3-.5.4-.2.1-.4.1-.6.1zm-6-11.9l6 8.3 6-8.3-3.3-13.4h-5.3l-3.4 13.4z"/></g><g class="st0"><path class="st1" d="M182 123.4c-.7 0-1.3-.6-1.3-1.3v-14.7c0-.7.6-1.3 1.3-1.3.7 0 1.3.6 1.3 1.3v14.7c0 .7-.6 1.3-1.3 1.3z"/></g><g class="st0"><path class="st1" d="M147.8 165.6h-14.4c-.7 0-1.3-.6-1.3-1.3v-7c-8.5-4.7-11.7-15.4-7-24 4.7-8.5 15.4-11.7 24-7 8.5 4.7 11.7 15.4 7 24-1.6 2.9-4 5.4-7 7v7c-.1.7-.6 1.3-1.3 1.3zm-13.2-2.6h11.8v-6.5c0-.5.3-1 .7-1.2 7.4-3.7 10.5-12.6 6.9-20.1-3.7-7.4-12.6-10.5-20.1-6.9-7.4 3.7-10.5 12.6-6.9 20.1 1.5 3 3.9 5.4 6.9 6.9.5.2.7.7.7 1.2v6.5z"/></g><g class="st0"><path class="st1" d="M140.5 181.2c-2.8 0-5.1-2.3-5.1-5.1s2.3-5.1 5.1-5.1 5.1 2.3 5.1 5.1-2.3 5.1-5.1 5.1zm0-7.6c-1.4 0-2.5 1.1-2.5 2.5s1.1 2.5 2.5 2.5 2.5-1.1 2.5-2.5-1.1-2.5-2.5-2.5z"/></g><g class="st0"><path class="st1" d="M141.4 177.4h-1.7c-4.2 0-7.7-3.4-7.7-7.7v-5.4c0-.7.6-1.3 1.3-1.3h14.4c.7 0 1.3.6 1.3 1.3v5.4c.1 4.3-3.4 7.7-7.6 7.7zm-6.8-11.8v4.1c0 2.7 2.3 5 5 5h1.7c2.7 0 5-2.3 5-5v-4.1h-11.7z"/></g><g class="st0"><path class="st1" d="M140.5 165.6c-.7 0-1.3-.6-1.3-1.3v-18.6c0-.7.6-1.3 1.3-1.3.7 0 1.3.6 1.3 1.3v18.6c0 .8-.6 1.3-1.3 1.3z"/></g><g class="st0"><path class="st1" d="M103.1 125.8H41.6c-.7 0-1.3-.6-1.3-1.3v-9.4c0-.7.6-1.3 1.3-1.3h61.5c.7 0 1.3.6 1.3 1.3v9.4c0 .7-.5 1.3-1.3 1.3zM43 123.2h58.8v-6.7H43v6.7z"/></g><g class="st0"><path class="st1" d="M103.1 121.1H41.6c-.7 0-1.3-.6-1.3-1.3 0-.7.6-1.3 1.3-1.3h61.5c.7 0 1.3.6 1.3 1.3 0 .7-.6 1.3-1.3 1.3z"/></g><g class="st0"><path class="st1" d="M41.6 125.8c-.2 0-.3 0-.5-.1l-12-4.7c-.5-.2-.9-.7-.9-1.2s.3-1 .9-1.2l12-4.7c.7-.3 1.4 0 1.7.7.3.7 0 1.4-.7 1.7l-8.8 3.4 8.8 3.4c.7.3 1 1 .7 1.7-.1.6-.6 1-1.2 1z"/></g><g class="st0"><path class="st1" d="M34.4 123c-.7 0-1.3-.6-1.3-1.3V118c0-.7.6-1.3 1.3-1.3.7 0 1.3.6 1.3 1.3v3.7c0 .7-.6 1.3-1.3 1.3z"/></g><g class="st0"><path class="st1" d="M413.5 90.1H310.2c-.7 0-1.3-.6-1.3-1.3V79c0-.7.6-1.3 1.3-1.3h103.3c.7 0 1.3.6 1.3 1.3v9.8c0 .7-.6 1.3-1.3 1.3zm-101.9-2.7h100.6v-7.1H311.6v7.1z"/></g><g class="st0"><path class="st1" d="M407 80.3h-45.1c-.7 0-1.3-.6-1.3-1.3v-2.8c0-.7.5-1.3 1.2-1.3l45.2-2.8c.4 0 .7.1 1 .4.3.3.4.6.4 1V79c-.1.7-.7 1.3-1.4 1.3zm-43.8-2.6h42.5v-2.8l-42.5 2.6v.2z"/></g><g class="st0"><path class="st1" d="M361.9 80.3h-45.1c-.7 0-1.3-.6-1.3-1.3v-5.6c0-.4.1-.7.4-1 .3-.3.6-.4 1-.4l45.1 2.8c.7.1 1.2.6 1.2 1.3v2.8c.1.7-.5 1.4-1.3 1.4zm-43.8-2.6h42.5v-.2l-42.5-2.6v2.8z"/></g><g class="st0"><path class="st1" d="M361.9 77.5c-.6 0-1.1-.4-1.3-1-.2-.7.2-1.4.9-1.6l43.8-12.8c.7-.2 1.4.2 1.6.9s-.2 1.4-.9 1.6l-43.8 12.8c0 .1-.2.1-.3.1z"/></g><g class="st0"><path class="st1" d="M598 93h-43.5c-.7 0-1.3-.6-1.3-1.3V32.4c0-.7.6-1.3 1.3-1.3H598c.7 0 1.3.6 1.3 1.3v59.2c0 .8-.6 1.4-1.3 1.4zm-42.2-2.6h40.9V33.8h-40.9v56.6z"/></g><g class="st0"><path class="st1" d="M592 42.3h-31.6c-.7 0-1.3-.6-1.3-1.3s.6-1.3 1.3-1.3H592c.7 0 1.3.6 1.3 1.3s-.6 1.3-1.3 1.3z"/></g><g class="st0"><path class="st1" d="M592 49.6h-31.6c-.7 0-1.3-.6-1.3-1.3s.6-1.3 1.3-1.3H592c.7 0 1.3.6 1.3 1.3s-.6 1.3-1.3 1.3z"/></g><g class="st0"><path class="st1" d="M592 56.8h-31.6c-.7 0-1.3-.6-1.3-1.3s.6-1.3 1.3-1.3H592c.7 0 1.3.6 1.3 1.3s-.6 1.3-1.3 1.3z"/></g><g class="st0"><path class="st1" d="M592 64.1h-31.6c-.7 0-1.3-.6-1.3-1.3s.6-1.3 1.3-1.3H592c.7 0 1.3.6 1.3 1.3s-.6 1.2-1.3 1.3z"/></g><g class="st0"><path class="st1" d="M592 71.3h-31.6c-.7 0-1.3-.6-1.3-1.3 0-.7.6-1.3 1.3-1.3H592c.7 0 1.3.6 1.3 1.3 0 .7-.6 1.3-1.3 1.3z"/></g><g class="st0"><path class="st1" d="M592 78.5h-31.6c-.7 0-1.3-.6-1.3-1.3 0-.7.6-1.3 1.3-1.3H592c.7 0 1.3.6 1.3 1.3 0 .7-.6 1.3-1.3 1.3z"/></g><g class="st0"><path class="st1" d="M450.1 120.7h-9.6c-.7 0-1.3-.6-1.3-1.3v-56c0-.7.5-1.3 1.3-1.4h9.7c.7 0 1.3.6 1.3 1.3v55.9c0 .8-.6 1.4-1.4 1.5.1 0 .1 0 0 0zm-8.2-2.7h6.9V64.7h-6.9V118z"/></g><g class="st0"><path class="st1" d="M450.1 88.8h-9.6c-.7 0-1.3-.6-1.3-1.3V63.4c0-.7.5-1.3 1.2-1.4h9.7c.7 0 1.3.6 1.3 1.3v24.1c.1.7-.5 1.3-1.3 1.4.1 0 .1 0 0 0zm-8.2-2.7h6.9V64.7h-6.9v21.4z"/></g><g class="st0"><path class="st1" d="M450.1 92.7h-9.6c-.7 0-1.3-.6-1.3-1.3v-3.9c0-.7.6-1.3 1.3-1.3h9.6c.7 0 1.3.6 1.3 1.3v3.9c.1.7-.5 1.2-1.3 1.3.1 0 .1 0 0 0zm-8.2-2.7h6.9v-1.3h-6.9V90z"/></g><g class="st0"><path class="st1" d="M449 124.9h-7.4c-.7 0-1.3-.6-1.3-1.3v-4.2c0-.7.6-1.3 1.3-1.3h7.4c.7 0 1.3.6 1.3 1.3v4.2c0 .7-.6 1.3-1.3 1.3zm-6-2.7h4.8v-1.6H443v1.6z"/></g><g class="st0"><path class="st1" d="M445.3 150.2c-.1 0-.3 0-.4-.1-.3-.1-.5-.3-.7-.5l-7.4-10.3c-.2-.3-.3-.7-.2-1.1l3.7-15c.2-.6.7-1 1.3-1h7.4c.6 0 1.1.4 1.3 1l3.7 15c.1.4 0 .8-.2 1.1l-7.4 10.4c-.1.2-.3.3-.5.4-.2 0-.4.1-.6.1zm-6-12l6 8.4 6-8.4-3.3-13.3h-5.3l-3.4 13.3z"/></g><g class="st0"><path class="st1" d="M445.3 150.2c-.7 0-1.3-.6-1.3-1.3v-14.6c0-.7.6-1.3 1.3-1.3s1.3.6 1.3 1.3v14.6c.1.7-.5 1.3-1.3 1.3.1 0 0 0 0 0z"/></g><g class="st0"><path class="st1" d="M538.7 144.8h-15.5c-4.2 0-7.7-3.4-7.7-7.7V111c0-.7.6-1.3 1.3-1.3H545c.7 0 1.3.6 1.3 1.3v26.1c0 4.2-3.4 7.7-7.6 7.7zm-20.5-32.5v24.8c0 2.7 2.3 5 5 5h15.5c2.7 0 5-2.3 5-5v-24.7l-25.5-.1z"/></g><g class="st0"><path class="st1" d="M545 137.2c-.7 0-1.3-.6-1.3-1.3V115c0-.7.6-1.3 1.3-1.3 6.5 0 11.8 5.3 11.8 11.8 0 6.5-5.3 11.8-11.8 11.7zm1.3-20.8v18.1c5-.7 8.4-5.4 7.7-10.4-.6-4-3.7-7.1-7.7-7.7z"/></g><g class="st0"><path class="st1" d="M483.9 52.7h-14.4c-.7 0-1.3-.6-1.3-1.3v-7c-8.5-4.7-11.7-15.4-7-24 4.7-8.5 15.4-11.7 24-7s11.7 15.4 7 24c-1.6 2.9-4 5.4-7 7v7c0 .6-.5 1.2-1.3 1.3.1 0 .1 0 0 0zM470.8 50h11.8v-6.5c0-.5.3-1 .7-1.2 7.4-3.7 10.5-12.6 6.9-20.1s-12.6-10.5-20.1-6.9-10.5 12.6-6.9 20.1c1.5 3 3.9 5.4 6.9 6.9.5.2.7.7.7 1.2V50z"/></g><g class="st0"><path class="st1" d="M476.8 68.2c-2.8 0-5.1-2.3-5.1-5.1s2.3-5.1 5.1-5.1 5.1 2.3 5.1 5.1-2.3 5.1-5.1 5.1zm0-7.5c-1.4 0-2.5 1.1-2.5 2.5s1.1 2.5 2.5 2.5 2.5-1.1 2.5-2.5c-.1-1.4-1.2-2.5-2.5-2.5z"/></g><g class="st0"><path class="st1" d="M477.6 64.4h-1.7c-4.2 0-7.7-3.4-7.7-7.7v-5.4c0-.7.6-1.3 1.3-1.3H484c.7 0 1.3.6 1.3 1.3v5.5c0 4.2-3.5 7.6-7.7 7.6zm-6.8-11.7v4.1c0 2.7 2.3 5 5 5h1.7c2.7 0 5-2.3 5-5v-4.1h-11.7z"/></g><g class="st0"><path class="st1" d="M476.8 52.7c-.7 0-1.3-.6-1.3-1.3V32.8c0-.7.6-1.3 1.3-1.3s1.3.6 1.3 1.3v18.6c0 .7-.6 1.3-1.3 1.3z"/></g><g class="st0"><path class="st1" d="M154.1 218.1h-31.6c-.7 0-1.3-.6-1.3-1.3 0-.7.6-1.3 1.3-1.3h31.6c.7 0 1.3.6 1.3 1.3s-.5 1.3-1.3 1.3c.1 0 .1 0 0 0z"/></g><g class="st0"><path class="st1" d="M154.1 225.3h-31.6c-.7 0-1.3-.6-1.3-1.3 0-.7.6-1.3 1.3-1.3h31.6c.7 0 1.3.6 1.3 1.3s-.5 1.3-1.3 1.3c.1 0 .1 0 0 0z"/></g><g class="st0"><path class="st1" d="M197.7 218.1H166c-.7 0-1.3-.6-1.3-1.3 0-.7.6-1.3 1.3-1.3h31.6c.7 0 1.3.6 1.3 1.3.1.7-.4 1.3-1.2 1.3.1 0 0 0 0 0z"/></g><g class="st0"><path class="st1" d="M197.7 225.3H166c-.7 0-1.3-.6-1.3-1.3 0-.7.6-1.3 1.3-1.3h31.6c.7 0 1.3.6 1.3 1.3.1.7-.4 1.3-1.2 1.3.1 0 0 0 0 0z"/></g><g class="st0"><path class="st1" d="M426.4 27.3h-61.5c-.7 0-1.3-.6-1.3-1.3v-9.4c0-.7.6-1.3 1.3-1.3h61.5c.7 0 1.3.6 1.3 1.3V26c0 .7-.6 1.3-1.3 1.3zm-60.2-2.6h58.9V18h-58.9v6.7z"/></g><g class="st0"><path class="st1" d="M426.4 22.6h-61.5c-.7 0-1.3-.6-1.3-1.3s.6-1.3 1.3-1.3h61.5c.7 0 1.3.6 1.3 1.3 0 .8-.6 1.3-1.3 1.3z"/></g><g class="st0"><path class="st1" d="M364.9 27.3c-.2 0-.3 0-.5-.1l-12-4.7c-.5-.2-.9-.7-.9-1.2s.3-1 .9-1.2l12-4.7c.7-.3 1.4 0 1.7.7.3.7 0 1.4-.7 1.7l-8.8 3.4 8.8 3.4c.7.3 1 1 .7 1.7-.1.6-.6 1-1.2 1z"/></g><g class="st0"><path class="st1" d="M357.7 24.5c-.7 0-1.3-.6-1.3-1.3v-3.7c0-.7.6-1.3 1.3-1.3s1.3.6 1.3 1.3v3.7c0 .7-.5 1.3-1.3 1.3z"/></g><g class="st0"><path class="st1" d="M312.5 43.7H298c-.7 0-1.3-.6-1.3-1.3v-7c-8.5-4.7-11.7-15.4-7-24 4.7-8.5 15.4-11.7 24-7s11.7 15.4 7 24c-1.6 2.9-4 5.4-7 7v7c0 .7-.5 1.3-1.2 1.3zm-13.1-2.6h11.8v-6.5c0-.5.3-1 .7-1.2 7.4-3.7 10.5-12.6 6.9-20.1s-12.6-10.5-20.1-6.9-10.5 12.6-6.9 20.1c1.5 3 3.9 5.4 6.9 6.9.5.2.7.7.7 1.2v6.5z"/></g><g class="st0"><path class="st1" d="M305.2 59.3c-2.8 0-5.1-2.3-5.1-5.1s2.3-5.1 5.1-5.1 5.1 2.3 5.1 5.1c.1 2.8-2.2 5.1-5.1 5.1zm0-7.6c-1.4 0-2.5 1.1-2.5 2.5s1.1 2.5 2.5 2.5 2.5-1.1 2.5-2.5-1.1-2.5-2.5-2.5z"/></g><g class="st0"><path class="st1" d="M306.1 55.5h-1.7c-4.2 0-7.7-3.4-7.7-7.7v-5.5c0-.7.6-1.3 1.3-1.3h14.4c.7 0 1.3.6 1.3 1.3v5.5c.1 4.2-3.4 7.7-7.6 7.7zm-6.7-11.8v4.1c0 2.7 2.3 5 5 5h1.7c2.7 0 5-2.3 5-5v-4.1h-11.7z"/></g><g class="st0"><path class="st1" d="M305.2 43.7c-.7 0-1.3-.6-1.3-1.3V23.8c0-.7.6-1.3 1.3-1.3s1.3.6 1.3 1.3v18.6c.1.7-.5 1.3-1.3 1.3z"/></g><g class="st0"><path class="st1" d="M309 172.5h-43.5c-.7 0-1.3-.6-1.3-1.3V112c0-.7.6-1.3 1.3-1.3H309c.7 0 1.3.6 1.3 1.3v59.2c0 .7-.6 1.3-1.3 1.3zm-42.2-2.6h40.9v-56.6h-40.8l-.1 56.6z"/></g><g class="st0"><path class="st1" d="M352.6 172.5h-43.5c-.7 0-1.3-.6-1.3-1.3V112c0-.7.6-1.3 1.3-1.3h43.5c.7 0 1.3.6 1.3 1.3v59.2c0 .7-.6 1.3-1.3 1.3zm-42.2-2.6h40.9v-56.6h-40.9v56.6z"/></g><g class="st0"><path class="st1" d="M303.1 121.8h-31.6c-.7 0-1.3-.6-1.3-1.3 0-.7.6-1.3 1.3-1.3h31.6c.7 0 1.3.6 1.3 1.3 0 .8-.6 1.3-1.3 1.3z"/></g><g class="st0"><path class="st1" d="M303.1 129h-31.6c-.7 0-1.3-.6-1.3-1.3 0-.7.6-1.3 1.3-1.3h31.6c.7 0 1.3.6 1.3 1.3 0 .7-.6 1.3-1.3 1.3z"/></g><g class="st0"><path class="st1" d="M303.1 136.3h-31.6c-.7 0-1.3-.6-1.3-1.3 0-.7.6-1.3 1.3-1.3h31.6c.7 0 1.3.6 1.3 1.3 0 .7-.6 1.3-1.3 1.3z"/></g><g class="st0"><path class="st1" d="M303.1 143.5h-31.6c-.7 0-1.3-.6-1.3-1.3 0-.7.6-1.3 1.3-1.3h31.6c.7 0 1.3.6 1.3 1.3 0 .7-.6 1.3-1.3 1.3z"/></g><g class="st0"><path class="st1" d="M303.1 150.8h-31.6c-.7 0-1.3-.6-1.3-1.3s.6-1.3 1.3-1.3h31.6c.7 0 1.3.6 1.3 1.3 0 .7-.6 1.3-1.3 1.3z"/></g><g class="st0"><path class="st1" d="M303.1 158h-31.6c-.7 0-1.3-.6-1.3-1.3 0-.7.6-1.3 1.3-1.3h31.6c.7 0 1.3.6 1.3 1.3 0 .7-.6 1.3-1.3 1.3z"/></g><g class="st0"><path class="st1" d="M346.6 121.8H315c-.7 0-1.3-.6-1.3-1.3 0-.7.6-1.3 1.3-1.3h31.6c.7 0 1.3.6 1.3 1.3 0 .8-.6 1.3-1.3 1.3z"/></g><g class="st0"><path class="st1" d="M346.6 129H315c-.7 0-1.3-.6-1.3-1.3 0-.7.6-1.3 1.3-1.3h31.6c.7 0 1.3.6 1.3 1.3s-.5 1.3-1.3 1.3z"/></g><g class="st0"><path class="st1" d="M346.6 136.3H315c-.7 0-1.3-.6-1.3-1.3s.6-1.3 1.3-1.3h31.6c.7 0 1.3.6 1.3 1.3s-.5 1.3-1.3 1.3z"/></g><g class="st0"><path class="st1" d="M346.6 143.5H315c-.7 0-1.3-.6-1.3-1.3s.6-1.3 1.3-1.3h31.6c.7 0 1.3.6 1.3 1.3s-.5 1.3-1.3 1.3z"/></g><g class="st0"><path class="st1" d="M346.6 150.8H315c-.7 0-1.3-.6-1.3-1.3s.6-1.3 1.3-1.3h31.6c.7 0 1.3.6 1.3 1.3s-.5 1.3-1.3 1.3z"/></g><g class="st0"><path class="st1" d="M346.6 158H315c-.7 0-1.3-.6-1.3-1.3s.6-1.3 1.3-1.3h31.6c.7 0 1.3.6 1.3 1.3s-.5 1.3-1.3 1.3z"/></g><g class="st0"><path class="st1" d="M371.4 220.3H268.1c-.7 0-1.3-.6-1.3-1.3v-9.8c0-.7.6-1.3 1.3-1.3h103.3c.7 0 1.3.6 1.3 1.3v9.8c0 .7-.5 1.3-1.3 1.3zm-102-2.6H370v-7.1H269.4v7.1z"/></g><g class="st0"><path class="st1" d="M364.9 210.6h-45.2c-.7 0-1.3-.6-1.3-1.3v-2.8c0-.7.5-1.3 1.2-1.3l45.2-2.8c.4 0 .7.1 1 .4.3.3.4.6.4 1v5.6c0 .6-.6 1.2-1.3 1.2zm-43.8-2.7h42.5v-2.8l-42.5 2.6v.2z"/></g><g class="st0"><path class="st1" d="M319.8 210.6h-45.2c-.7 0-1.3-.6-1.3-1.3v-5.6c0-.4.1-.7.4-1 .3-.3.6-.4 1-.4l45.2 2.8c.7.1 1.2.6 1.2 1.3v2.8c.1.7-.5 1.4-1.2 1.4h-.1zm-43.9-2.7h42.5v-.2l-42.5-2.6v2.8z"/></g><g class="st0"><path class="st1" d="M319.8 207.8c-.6 0-1.1-.4-1.3-1-.2-.7.2-1.4.9-1.6l43.8-12.9c.7-.2 1.4.2 1.6.9.2.7-.2 1.4-.9 1.6l-43.8 12.9c-.1 0-.2.1-.3.1z"/></g><g class="st0"><path class="st1" d="M396.5 144.4H382c-.7 0-1.3-.6-1.3-1.3v-7c-8.5-4.7-11.7-15.4-7-24 4.7-8.5 15.4-11.7 24-7s11.7 15.4 7 24c-1.6 2.9-4 5.4-7 7v7c0 .6-.5 1.2-1.2 1.3zm-13.1-2.7h11.8v-6.5c0-.5.3-1 .7-1.2 7.4-3.7 10.5-12.6 6.9-20.1-3.7-7.4-12.6-10.5-20.1-6.9s-10.5 12.6-6.9 20.1c1.5 3 3.9 5.4 6.9 6.9.5.2.7.7.7 1.2v6.5z"/></g><g class="st0"><path class="st1" d="M389.2 160c-2.8 0-5.1-2.3-5.1-5.1s2.3-5.1 5.1-5.1 5.1 2.3 5.1 5.1-2.2 5.1-5.1 5.1zm0-7.6c-1.4 0-2.5 1.1-2.5 2.5s1.1 2.5 2.5 2.5 2.5-1.1 2.5-2.5c.1-1.4-1-2.5-2.5-2.5.1 0 .1 0 0 0z"/></g><g class="st0"><path class="st1" d="M390.1 156.2h-1.7c-4.2 0-7.7-3.4-7.7-7.7V143c0-.7.6-1.3 1.3-1.3h14.4c.7 0 1.3.6 1.3 1.3v5.4c.1 4.3-3.3 7.7-7.6 7.8.1 0 .1 0 0 0zm-6.7-11.8v4.1c0 2.7 2.3 5 5 5h1.7c2.7 0 5-2.3 5-5v-4.1h-11.7z"/></g><g class="st0"><path class="st1" d="M389.2 144.4c-.7 0-1.3-.6-1.3-1.3v-18.6c0-.7.6-1.3 1.3-1.3s1.3.6 1.3 1.3V143c.1.7-.5 1.3-1.3 1.4.1 0 .1 0 0 0z"/></g><g class="st0"><path class="st1" d="M426.1 208.3c-.4 0-.7-.1-1-.4l-6.9-6.9c-2.6.7-5.4 1.1-8.1 1.1-12.8 0-23.2-7.9-23.2-17.6s10.4-17.6 23.2-17.6 23.2 7.9 23.2 17.6c-.1 4.6-2.3 8.9-5.9 11.8V207c0 .5-.3 1-.8 1.2-.1.1-.2.1-.5.1zm-7.3-10c.4 0 .7.1 1 .4l5.2 5.2v-8.1c0-.4.2-.8.5-1.1 3.5-2.8 5.5-6.4 5.5-10.1 0-8.3-9.2-15-20.5-15s-20.6 6.8-20.6 15 9.2 15 20.5 15c2.7 0 5.5-.4 8.1-1.2 0-.1.1-.1.3-.1z"/></g><g class="st0"><path class="st1" d="M397.9 188c-2.1 0-3.8-1.7-3.8-3.8s1.7-3.8 3.8-3.8c2.1 0 3.8 1.7 3.8 3.8 0 2.1-1.7 3.8-3.8 3.8zm0-4.9c-.6 0-1.2.5-1.2 1.2s.5 1.2 1.2 1.2c.6 0 1.2-.5 1.2-1.2-.1-.7-.6-1.2-1.2-1.2z"/></g><g class="st0"><path class="st1" d="M410.2 188c-2.1 0-3.8-1.7-3.8-3.8s1.7-3.8 3.8-3.8c2.1 0 3.8 1.7 3.8 3.8.1 2.1-1.6 3.8-3.8 3.8.1 0 0 0 0 0zm0-4.9c-.6 0-1.2.5-1.2 1.2s.5 1.2 1.2 1.2c.6 0 1.2-.5 1.2-1.2s-.6-1.2-1.2-1.2z"/></g><g class="st0"><path class="st1" d="M422.5 188c-2.1 0-3.8-1.7-3.8-3.8s1.7-3.8 3.8-3.8c2.1 0 3.8 1.7 3.8 3.8.1 2.1-1.6 3.8-3.8 3.8.1 0 .1 0 0 0zm0-4.9c-.6 0-1.2.5-1.2 1.2s.5 1.2 1.2 1.2c.6 0 1.2-.5 1.2-1.2s-.5-1.2-1.2-1.2z"/></g><g class="st0"><path class="st1" d="M218.3 192.1c-.4 0-.7-.1-1-.4l-6.9-6.9c-2.6.7-5.4 1.1-8.1 1.1-12.8 0-23.2-7.9-23.2-17.6s10.4-17.6 23.2-17.6 23.2 7.9 23.2 17.6c-.1 4.6-2.3 8.9-5.9 11.8v10.6c0 .5-.3 1-.8 1.2-.2.1-.4.2-.5.2zm-7.5-10c.4 0 .7.1 1 .4l5.2 5.2v-8.1c0-.4.2-.8.5-1.1 3.5-2.8 5.4-6.4 5.4-10.1 0-8.3-9.2-15-20.5-15s-20.5 6.7-20.5 15 9.2 15 20.5 15c2.7 0 5.5-.4 8.1-1.2l.3-.1z"/></g><g class="st0"><path class="st1" d="M190 171.8c-2.1 0-3.8-1.7-3.8-3.8s1.7-3.8 3.8-3.8 3.8 1.7 3.8 3.8c0 2.1-1.7 3.8-3.8 3.8zm0-5c-.6 0-1.2.5-1.2 1.2 0 .6.5 1.2 1.2 1.2.6 0 1.2-.5 1.2-1.2-.1-.7-.6-1.2-1.2-1.2z"/></g><g class="st0"><path class="st1" d="M202.3 171.8c-2.1 0-3.8-1.7-3.8-3.8s1.7-3.8 3.8-3.8 3.8 1.7 3.8 3.8c0 2.1-1.6 3.8-3.8 3.8zm0-5c-.6 0-1.2.5-1.2 1.2 0 .6.5 1.2 1.2 1.2.6 0 1.2-.5 1.2-1.2s-.6-1.2-1.2-1.2z"/></g><g class="st0"><path class="st1" d="M214.6 171.8c-2.1 0-3.8-1.7-3.8-3.8s1.7-3.8 3.8-3.8 3.8 1.7 3.8 3.8c.1 2.1-1.6 3.8-3.8 3.8.1 0 .1 0 0 0zm0-5c-.6 0-1.2.5-1.2 1.2 0 .6.5 1.2 1.2 1.2.6 0 1.2-.5 1.2-1.2s-.5-1.2-1.2-1.2z"/></g><g class="st0"><path class="st1" d="M237.1 126.5h-15.5c-4.2 0-7.7-3.4-7.7-7.7v-26c0-.7.6-1.3 1.3-1.3h28.2c.7 0 1.3.6 1.3 1.3v26.1c.1 4.2-3.4 7.6-7.6 7.6zm-20.5-32.4v24.8c0 2.7 2.3 5 5 5h15.5c2.7 0 5-2.3 5-5V94.1h-25.5z"/></g><g class="st0"><path class="st1" d="M243.5 119c-.7 0-1.3-.6-1.3-1.3v-21c0-.7.6-1.3 1.3-1.3 6.5 0 11.8 5.3 11.8 11.8S250 119 243.5 119zm1.3-20.8v18.1c5-.7 8.4-5.4 7.7-10.4-.6-4-3.7-7.1-7.7-7.7z"/></g><g class="st0"><path class="st1" d="M923.9 225.1h-9.6c-.7 0-1.3-.6-1.3-1.3v-24.1c0-.7.6-1.3 1.3-1.3h9.6c.7 0 1.3.6 1.3 1.3v24.1c0 .7-.6 1.3-1.3 1.3zm-8.3-2.6h6.9v-21.4h-6.9v21.4z"/></g><g class="st0"><path class="st1" d="M666.4 211.3c-2.1 0-3.8-1.7-3.8-3.8s1.7-3.8 3.8-3.8 3.8 1.7 3.8 3.8c0 2-1.7 3.7-3.8 3.8zm0-5c-.6 0-1.2.5-1.2 1.2s.5 1.2 1.2 1.2c.6 0 1.2-.5 1.2-1.2-.1-.7-.6-1.2-1.2-1.2z"/></g><g class="st0"><path class="st1" d="M678.7 211.3c-2.1 0-3.8-1.7-3.8-3.8s1.7-3.8 3.8-3.8 3.8 1.7 3.8 3.8c0 2-1.7 3.7-3.8 3.8zm0-5c-.6 0-1.2.5-1.2 1.2s.5 1.2 1.2 1.2c.6 0 1.2-.5 1.2-1.2-.1-.7-.6-1.2-1.2-1.2z"/></g><g class="st0"><path class="st1" d="M691.1 211.3c-2.1 0-3.8-1.7-3.8-3.8s1.7-3.8 3.8-3.8 3.8 1.7 3.8 3.8c-.1 2-1.7 3.7-3.8 3.8zm0-5c-.6 0-1.2.5-1.2 1.2s.5 1.2 1.2 1.2c.6 0 1.2-.5 1.2-1.2-.1-.7-.6-1.2-1.2-1.2z"/></g><g class="st0"><path class="st1" d="M764.9 207.3h-9.6c-.7 0-1.3-.6-1.3-1.3v-24.1c0-.7.6-1.3 1.3-1.3h9.6c.7 0 1.3.6 1.3 1.3V206c0 .7-.6 1.3-1.3 1.3zm-8.3-2.6h6.9v-21.4h-6.9v21.4z"/></g><g class="st0"><path class="st1" d="M764.9 211.2h-9.6c-.7 0-1.3-.6-1.3-1.3V206c0-.7.6-1.3 1.3-1.3h9.6c.7 0 1.3.6 1.3 1.3v3.9c0 .7-.5 1.3-1.3 1.3.1 0 0 0 0 0zm-8.3-2.6h6.9v-1.3h-6.9v1.3z"/></g><g class="st0"><path class="st1" d="M658.2 175.5h-15.5c-4.2 0-7.7-3.4-7.7-7.7v-26.1c0-.7.6-1.3 1.3-1.3h28.2c.7 0 1.3.6 1.3 1.3v26.1c.1 4.2-3.3 7.7-7.6 7.7.1 0 .1 0 0 0zm-20.5-32.4v24.8c0 2.7 2.3 5 5 5h15.5c2.7 0 5-2.3 5-5v-24.8h-25.5z"/></g><g class="st0"><path class="st1" d="M664.6 168c-.7 0-1.3-.6-1.3-1.3v-21c0-.7.6-1.3 1.3-1.3 6.5 0 11.8 5.3 11.8 11.8-.1 6.5-5.3 11.7-11.8 11.8zm1.3-20.8v18c5-.7 8.4-5.4 7.7-10.4-.6-4-3.7-7.1-7.7-7.6z"/></g><g class="st0"><path class="st1" d="M955.8 63.3h-61.5c-.7 0-1.3-.6-1.3-1.3v-9.4c0-.7.6-1.3 1.3-1.3h61.5c.7 0 1.3.6 1.3 1.3V62c0 .7-.5 1.3-1.3 1.3zm-60.2-2.7h58.8v-6.7h-58.8v6.7z"/></g><g class="st0"><path class="st1" d="M955.8 58.5h-61.5c-.7 0-1.3-.6-1.3-1.3s.6-1.3 1.3-1.3h61.5c.7 0 1.3.6 1.3 1.3 0 .8-.6 1.3-1.3 1.3z"/></g><g class="st0"><path class="st1" d="M894.3 63.3c-.2 0-.3 0-.5-.1l-12-4.7c-.5-.2-.9-.7-.8-1.2 0-.5.3-1 .8-1.2l12-4.7c.7-.3 1.4 0 1.7.7.3.7 0 1.4-.7 1.7l-8.8 3.5 8.8 3.4c.7.3 1 1 .7 1.7-.1.5-.6.9-1.2.9z"/></g><g class="st0"><path class="st1" d="M887.1 60.4c-.7 0-1.3-.6-1.3-1.3v-3.7c0-.7.6-1.3 1.3-1.3s1.3.6 1.3 1.3v3.7c0 .7-.5 1.3-1.3 1.3z"/></g><g class="st0"><path class="st1" d="M1222.1 183.2h-31.6c-.7 0-1.3-.6-1.3-1.3 0-.7.6-1.3 1.3-1.3h31.6c.7 0 1.3.6 1.3 1.3 0 .7-.6 1.3-1.3 1.3z"/></g><g class="st0"><path class="st1" d="M1222.1 190.4h-31.6c-.7 0-1.3-.6-1.3-1.3 0-.7.6-1.3 1.3-1.3h31.6c.7 0 1.3.6 1.3 1.3 0 .7-.6 1.3-1.3 1.3z"/></g><g class="st0"><path class="st1" d="M1222.1 197.7h-31.6c-.7 0-1.3-.6-1.3-1.3 0-.7.6-1.3 1.3-1.3h31.6c.7 0 1.3.6 1.3 1.3 0 .7-.6 1.3-1.3 1.3z"/></g><g class="st0"><path class="st1" d="M1222.1 204.9h-31.6c-.7 0-1.3-.6-1.3-1.3 0-.7.6-1.3 1.3-1.3h31.6c.7 0 1.3.6 1.3 1.3 0 .7-.6 1.3-1.3 1.3z"/></g><g class="st0"><path class="st1" d="M1222.1 212.2h-31.6c-.7 0-1.3-.6-1.3-1.3 0-.7.6-1.3 1.3-1.3h31.6c.7 0 1.3.6 1.3 1.3 0 .7-.6 1.3-1.3 1.3z"/></g><g class="st0"><path class="st1" d="M1222.1 219.4h-31.6c-.7 0-1.3-.6-1.3-1.3 0-.7.6-1.3 1.3-1.3h31.6c.7 0 1.3.6 1.3 1.3 0 .7-.6 1.3-1.3 1.3z"/></g><g class="st0"><path class="st1" d="M1265.6 183.2H1234c-.7 0-1.3-.6-1.3-1.3 0-.7.6-1.3 1.3-1.3h31.6c.7 0 1.3.6 1.3 1.3 0 .7-.5 1.3-1.3 1.3z"/></g><g class="st0"><path class="st1" d="M1265.6 190.4H1234c-.7 0-1.3-.6-1.3-1.3 0-.7.6-1.3 1.3-1.3h31.6c.7 0 1.3.6 1.3 1.3 0 .7-.5 1.3-1.3 1.3z"/></g><g class="st0"><path class="st1" d="M1265.6 197.7H1234c-.7 0-1.3-.6-1.3-1.3 0-.7.6-1.3 1.3-1.3h31.6c.7 0 1.3.6 1.3 1.3 0 .7-.5 1.3-1.3 1.3z"/></g><g class="st0"><path class="st1" d="M1265.6 204.9H1234c-.7 0-1.3-.6-1.3-1.3 0-.7.6-1.3 1.3-1.3h31.6c.7 0 1.3.6 1.3 1.3 0 .7-.5 1.3-1.3 1.3z"/></g><g class="st0"><path class="st1" d="M1265.6 212.2H1234c-.7 0-1.3-.6-1.3-1.3 0-.7.6-1.3 1.3-1.3h31.6c.7 0 1.3.6 1.3 1.3 0 .7-.5 1.3-1.3 1.3z"/></g><g class="st0"><path class="st1" d="M1265.6 219.4H1234c-.7 0-1.3-.6-1.3-1.3 0-.7.6-1.3 1.3-1.3h31.6c.7 0 1.3.6 1.3 1.3 0 .7-.5 1.3-1.3 1.3z"/></g><g class="st0"><path class="st1" d="M827.7 99.6H724.4c-.7 0-1.3-.5-1.4-1.2v-9.9c0-.7.6-1.3 1.3-1.3h103.3c.7 0 1.3.5 1.4 1.3v9.9c.1.7-.5 1.3-1.1 1.3-.1-.1-.2-.1-.2-.1zm-102-2.6h100.6v-7.1H725.7V97z"/></g><g class="st0"><path class="st1" d="M821.2 89.9H776c-.7 0-1.3-.6-1.3-1.3v-2.8c0-.7.5-1.3 1.2-1.3l45.2-2.8c.4 0 .7.1 1 .4.3.3.4.6.4 1v5.6c-.1.6-.6 1.2-1.3 1.2zm-43.8-2.7h42.5v-2.8L777.3 87l.1.2z"/></g><g class="st0"><path class="st1" d="M776 89.9h-45.1c-.7 0-1.3-.6-1.3-1.3V83c0-.4.1-.7.4-1 .3-.3.6-.4 1-.4l45.2 2.8c.7.1 1.2.6 1.2 1.3v2.8c0 .7-.6 1.3-1.4 1.4zm-43.8-2.7h42.5V87l-42.5-2.6v2.8z"/></g><g class="st0"><path class="st1" d="M776 87.1c-.6 0-1.1-.4-1.3-1-.2-.7.2-1.4.9-1.6l43.8-12.8c.7-.2 1.4.2 1.6.9.2.7-.2 1.4-.9 1.6l-43.8 12.9h-.3z"/></g><g class="st0"><path class="st1" d="M677.4 10.3h-31.6c-.7 0-1.3-.6-1.3-1.3 0-.7.6-1.3 1.3-1.3h31.6c.7 0 1.3.6 1.3 1.3.1.7-.5 1.3-1.3 1.3z"/></g><g class="st0"><path class="st1" d="M677.4 17.6h-31.6c-.7 0-1.3-.6-1.3-1.3 0-.7.6-1.3 1.3-1.3h31.6c.7 0 1.3.6 1.3 1.3.1.7-.5 1.3-1.3 1.3z"/></g><g class="st0"><path class="st1" d="M677.4 24.8h-31.6c-.7 0-1.3-.6-1.3-1.3s.6-1.3 1.3-1.3h31.6c.7 0 1.3.6 1.3 1.3s-.5 1.3-1.3 1.3z"/></g><g class="st0"><path class="st1" d="M677.4 32.1h-31.6c-.7 0-1.3-.6-1.3-1.3s.6-1.3 1.3-1.3h31.6c.7 0 1.3.6 1.3 1.3s-.5 1.3-1.3 1.3z"/></g><g class="st0"><path class="st1" d="M677.4 39.3h-31.6c-.7 0-1.3-.6-1.3-1.3s.6-1.3 1.3-1.3h31.6c.7 0 1.3.6 1.3 1.3s-.5 1.3-1.3 1.3z"/></g><g class="st0"><path class="st1" d="M677.4 46.5h-31.6c-.7 0-1.3-.6-1.3-1.3s.6-1.3 1.3-1.3h31.6c.7 0 1.3.6 1.3 1.3s-.5 1.3-1.3 1.3z"/></g><g class="st0"><path class="st1" d="M721 10.3h-31.7c-.7 0-1.3-.6-1.3-1.3 0-.7.6-1.3 1.3-1.3H721c.7 0 1.3.6 1.3 1.3 0 .7-.6 1.3-1.3 1.3z"/></g><g class="st0"><path class="st1" d="M721 17.6h-31.7c-.7 0-1.3-.6-1.3-1.3 0-.7.6-1.3 1.3-1.3H721c.7 0 1.3.6 1.3 1.3 0 .7-.6 1.3-1.3 1.3z"/></g><g class="st0"><path class="st1" d="M721 24.8h-31.7c-.7 0-1.3-.6-1.3-1.3s.6-1.3 1.3-1.3H721c.7 0 1.3.6 1.3 1.3s-.6 1.3-1.3 1.3z"/></g><g class="st0"><path class="st1" d="M721 32.1h-31.7c-.7 0-1.3-.6-1.3-1.3s.6-1.3 1.3-1.3H721c.7 0 1.3.6 1.3 1.3s-.6 1.3-1.3 1.3z"/></g><g class="st0"><path class="st1" d="M721 39.3h-31.7c-.7 0-1.3-.6-1.3-1.3s.6-1.3 1.3-1.3H721c.7 0 1.3.6 1.3 1.3s-.6 1.3-1.3 1.3z"/></g><g class="st0"><path class="st1" d="M721 46.5h-31.7c-.7 0-1.3-.6-1.3-1.3s.6-1.3 1.3-1.3H721c.7 0 1.3.6 1.3 1.3s-.6 1.3-1.3 1.3z"/></g><g class="st0"><path class="st1" d="M826.8 44.2c-.4 0-.7-.1-1-.4L819 37c-2.6.7-5.4 1.1-8.1 1.1-12.8 0-23.2-7.9-23.2-17.6s10.4-17.6 23.1-17.6S834 10.8 834 20.5c-.1 4.6-2.3 8.9-5.9 11.8v10.6c0 .5-.3 1-.8 1.2-.2.1-.3.1-.5.1zm-7.5-10c.4 0 .7.1 1 .4l5.2 5.2v-8.1c0-.4.2-.8.5-1.1 3.5-2.8 5.5-6.4 5.5-10.1 0-8.3-9.2-15-20.5-15s-20.5 6.7-20.5 15 9.2 15 20.5 15c2.7 0 5.5-.4 8.1-1.3h.2z"/></g><g class="st0"><path class="st1" d="M798.5 24c-2.1 0-3.8-1.7-3.8-3.8s1.7-3.8 3.8-3.8c2.1 0 3.8 1.7 3.8 3.8 0 2.1-1.7 3.8-3.8 3.8zm0-5c-.6 0-1.2.5-1.2 1.2s.5 1.2 1.2 1.2c.6 0 1.2-.5 1.2-1.2s-.6-1.2-1.2-1.2z"/></g><g class="st0"><path class="st1" d="M810.9 24c-2.1 0-3.8-1.7-3.8-3.8s1.7-3.8 3.8-3.8c2.1 0 3.8 1.7 3.8 3.8-.1 2.1-1.7 3.8-3.8 3.8zm0-5c-.6 0-1.2.5-1.2 1.1 0 .6.5 1.2 1.1 1.2.6 0 1.2-.5 1.2-1.1 0-.7-.5-1.2-1.1-1.2z"/></g><g class="st0"><path class="st1" d="M823.2 24c-2.1 0-3.8-1.7-3.8-3.8 0-2.1 1.7-3.8 3.8-3.8 2.1 0 3.8 1.7 3.8 3.8 0 2.1-1.7 3.8-3.8 3.8zm0-5c-.6 0-1.2.5-1.2 1.2s.5 1.2 1.2 1.2c.6 0 1.2-.5 1.2-1.2-.1-.7-.6-1.2-1.2-1.2z"/></g><g class="st0"><path class="st1" d="M866.3 93.9h-9.6c-.7 0-1.3-.6-1.3-1.3v-56c0-.7.6-1.3 1.3-1.3h9.6c.7 0 1.3.6 1.3 1.3v55.9c0 .8-.6 1.4-1.3 1.4zm-8.3-2.7h6.9V37.9H858v53.3z"/></g><g class="st0"><path class="st1" d="M866.3 62h-9.6c-.7 0-1.3-.6-1.3-1.3V36.6c0-.7.6-1.3 1.3-1.3h9.6c.7 0 1.3.6 1.3 1.3v24.1c0 .7-.6 1.3-1.3 1.3zm-8.3-2.7h6.9V37.9H858v21.4z"/></g><g class="st0"><path class="st1" d="M866.3 65.9h-9.6c-.7 0-1.3-.6-1.3-1.3v-3.9c0-.7.6-1.3 1.3-1.3h9.6c.7 0 1.3.6 1.3 1.3v3.9c0 .7-.6 1.3-1.3 1.3zm-8.3-2.6h6.9V62H858v1.3z"/></g><g class="st0"><path class="st1" d="M865.2 98.1h-7.4c-.7 0-1.3-.6-1.3-1.3v-4.2c0-.7.6-1.3 1.3-1.3h7.4c.7 0 1.3.6 1.3 1.3v4.2c0 .7-.6 1.3-1.3 1.3zm-6.1-2.6h4.8v-1.6h-4.8v1.6z"/></g><g class="st0"><path class="st1" d="M861.5 123.4c-.1 0-.3 0-.4-.1-.3-.1-.5-.3-.7-.5l-7.4-10.3c-.2-.3-.3-.7-.2-1.1l3.7-15c.2-.6.7-1 1.3-1h7.4c.6 0 1.1.4 1.3 1l3.7 15c.1.4 0 .8-.2 1.1l-7.4 10.4c-.1.2-.3.3-.5.4-.2.1-.4.1-.6.1zm-6-11.9l6 8.3 6-8.3-3.4-13.4h-5.3l-3.3 13.4z"/></g><g class="st0"><path class="st1" d="M861.5 123.4c-.7 0-1.3-.6-1.3-1.3v-14.7c0-.7.6-1.3 1.3-1.3s1.3.6 1.3 1.3v14.7c0 .7-.6 1.3-1.3 1.3z"/></g><g class="st0"><path class="st1" d="M827.2 165.6h-14.4c-.7 0-1.3-.6-1.3-1.3v-7c-8.5-4.7-11.7-15.4-7-24 4.7-8.5 15.4-11.7 24-7 8.5 4.7 11.7 15.4 7 24-1.6 2.9-4 5.4-7 7v7c0 .7-.5 1.3-1.3 1.3.1 0 0 0 0 0zm-13.1-2.6h11.8v-6.5c0-.5.3-1 .7-1.2 7.4-3.7 10.5-12.6 6.9-20.1-3.7-7.4-12.6-10.5-20.1-6.9-7.4 3.7-10.5 12.6-6.9 20.1 1.5 3 3.9 5.4 6.9 6.9.5.2.7.7.7 1.2v6.5z"/></g><g class="st0"><path class="st1" d="M820 181.2c-2.8 0-5.1-2.3-5.1-5.1s2.3-5.1 5.1-5.1 5.1 2.3 5.1 5.1-2.3 5.1-5.1 5.1zm0-7.6c-1.4 0-2.5 1.1-2.5 2.5s1.1 2.5 2.5 2.5 2.5-1.1 2.5-2.5-1.1-2.5-2.5-2.5z"/></g><g class="st0"><path class="st1" d="M820.9 177.4h-1.7c-4.2 0-7.7-3.4-7.7-7.7v-5.4c0-.7.6-1.3 1.3-1.3h14.4c.7 0 1.3.6 1.3 1.3v5.4c0 4.3-3.4 7.7-7.6 7.7zm-6.8-11.8v4.1c0 2.7 2.3 5 5 5h1.7c2.7 0 5-2.3 5-5v-4.1h-11.7z"/></g><g class="st0"><path class="st1" d="M820 165.6c-.7 0-1.3-.6-1.3-1.3v-18.6c0-.7.6-1.3 1.3-1.3s1.3.6 1.3 1.3v18.6c0 .8-.6 1.3-1.3 1.3z"/></g><g class="st0"><path class="st1" d="M693.1 125.8h-61.5c-.7 0-1.3-.6-1.3-1.3v-9.4c0-.7.6-1.3 1.3-1.3h61.5c.7 0 1.3.6 1.3 1.3v9.4c0 .7-.6 1.3-1.3 1.3zm-60.2-2.6h58.8v-6.7h-58.8v6.7z"/></g><g class="st0"><path class="st1" d="M693.1 121.1h-61.5c-.7 0-1.3-.6-1.3-1.3 0-.7.6-1.3 1.3-1.3h61.5c.7 0 1.3.6 1.3 1.3 0 .7-.6 1.3-1.3 1.3z"/></g><g class="st0"><path class="st1" d="M631.6 125.8c-.2 0-.3 0-.5-.1l-12-4.7c-.5-.2-.9-.7-.8-1.2 0-.5.3-1 .8-1.2l12-4.7c.7-.3 1.4 0 1.7.7.3.7 0 1.4-.7 1.7l-8.8 3.4 8.8 3.4c.7.3 1 1 .7 1.7-.1.6-.6 1-1.2 1z"/></g><g class="st0"><path class="st1" d="M624.4 123c-.7 0-1.3-.6-1.3-1.3V118c0-.7.6-1.3 1.3-1.3s1.3.6 1.3 1.3v3.7c-.1.7-.6 1.3-1.3 1.3z"/></g><g class="st0"><path class="st1" d="M1093 90.1H989.7c-.7 0-1.3-.6-1.3-1.3V79c0-.7.6-1.3 1.3-1.3H1093c.7 0 1.3.6 1.3 1.3v9.8c0 .7-.6 1.3-1.3 1.3zm-102-2.7h100.6v-7.1H991v7.1z"/></g><g class="st0"><path class="st1" d="M1086.5 80.3h-45.2c-.7 0-1.3-.6-1.3-1.3v-2.8c0-.7.5-1.3 1.2-1.3l45.2-2.8c.4 0 .7.1 1 .4.3.3.4.6.4 1V79c0 .7-.6 1.3-1.3 1.3zm-43.8-2.6h42.5v-2.8l-42.5 2.6v.2z"/></g><g class="st0"><path class="st1" d="M1041.4 80.3h-45.1c-.7 0-1.3-.6-1.3-1.3v-5.6c0-.4.1-.7.4-1 .3-.3.6-.4 1-.4l45.2 2.8c.7.1 1.2.6 1.2 1.3v2.8c.1.7-.5 1.4-1.2 1.4h-.2zm-43.9-2.6h42.5v-.2l-42.5-2.6v2.8z"/></g><g class="st0"><path class="st1" d="M1041.4 77.5c-.6 0-1.1-.4-1.3-1-.2-.7.2-1.4.9-1.6l43.8-12.8c.7-.2 1.4.2 1.6.9s-.2 1.4-.9 1.6l-43.8 12.8c-.1.1-.2.1-.3.1z"/></g><g class="st0"><path class="st1" d="M1296.4 10.3h-31.6c-.7 0-1.3-.6-1.3-1.3 0-.7.6-1.3 1.3-1.3h31.6c.7 0 1.3.6 1.3 1.3.1.7-.5 1.3-1.3 1.3z"/></g><g class="st0"><path class="st1" d="M1296.4 17.6h-31.6c-.7 0-1.3-.6-1.3-1.3 0-.7.6-1.3 1.3-1.3h31.6c.7 0 1.3.6 1.3 1.3.1.7-.5 1.3-1.3 1.3z"/></g><g class="st0"><path class="st1" d="M1296.4 24.8h-31.6c-.7 0-1.3-.6-1.3-1.3 0-.7.6-1.3 1.3-1.3h31.6c.7 0 1.3.6 1.3 1.3 0 .7-.5 1.3-1.3 1.3z"/></g><g class="st0"><path class="st1" d="M1296.4 32.1h-31.6c-.7 0-1.3-.6-1.3-1.3 0-.7.6-1.3 1.3-1.3h31.6c.7 0 1.3.6 1.3 1.3 0 .7-.5 1.3-1.3 1.3z"/></g><g class="st0"><path class="st1" d="M1296.4 39.3h-31.6c-.7 0-1.3-.6-1.3-1.3 0-.7.6-1.3 1.3-1.3h31.6c.7 0 1.3.6 1.3 1.3 0 .7-.5 1.3-1.3 1.3z"/></g><g class="st0"><path class="st1" d="M1296.4 46.5h-31.6c-.7 0-1.3-.6-1.3-1.3 0-.7.6-1.3 1.3-1.3h31.6c.7 0 1.3.6 1.3 1.3 0 .8-.5 1.3-1.3 1.3z"/></g><g class="st0"><path class="st1" d="M1153.5 120.7h-9.6c-.7 0-1.3-.6-1.3-1.3v-56c0-.7.6-1.3 1.3-1.3h9.6c.7 0 1.3.6 1.3 1.3v55.9c0 .7-.5 1.4-1.3 1.4zm-8.2-2.7h6.9V64.7h-6.9V118z"/></g><g class="st0"><path class="st1" d="M1153.5 88.8h-9.6c-.7 0-1.3-.6-1.3-1.3V63.4c0-.7.6-1.3 1.3-1.3h9.6c.7 0 1.3.6 1.3 1.3v24c0 .7-.5 1.3-1.3 1.4zm-8.2-2.7h6.9V64.7h-6.9v21.4z"/></g><g class="st0"><path class="st1" d="M1153.5 92.7h-9.6c-.7 0-1.3-.6-1.3-1.3v-3.9c0-.7.6-1.3 1.3-1.3h9.6c.7 0 1.3.6 1.3 1.3v3.9c0 .7-.5 1.2-1.3 1.3zm-8.2-2.7h6.9v-1.3h-6.9V90z"/></g><g class="st0"><path class="st1" d="M1152.4 124.9h-7.4c-.7 0-1.3-.6-1.3-1.3v-4.2c0-.7.6-1.3 1.3-1.3h7.4c.7 0 1.3.6 1.3 1.3v4.2c0 .7-.6 1.3-1.3 1.3zm-6.1-2.7h4.8v-1.6h-4.8v1.6z"/></g><g class="st0"><path class="st1" d="M1148.7 150.2c-.1 0-.3 0-.4-.1-.3-.1-.5-.3-.7-.5l-7.3-10.3c-.2-.3-.3-.7-.2-1.1l3.7-15c.2-.6.7-1 1.3-1h7.4c.6 0 1.1.4 1.3 1l3.7 15c.1.4 0 .8-.2 1.1l-7.4 10.4c-.1.2-.3.3-.5.4-.3 0-.5.1-.7.1zm-6-12l6 8.4 6-8.4-3.3-13.4h-5.4l-3.3 13.4z"/></g><g class="st0"><path class="st1" d="M1148.7 150.2c-.7 0-1.3-.6-1.3-1.3v-14.6c0-.7.6-1.3 1.3-1.3.7 0 1.3.6 1.3 1.3v14.6c0 .7-.6 1.3-1.3 1.3z"/></g><g class="st0"><path class="st1" d="M1268.9 144.8h-15.5c-4.2 0-7.7-3.4-7.7-7.7V111c0-.7.6-1.3 1.3-1.3h28.2c.7 0 1.3.6 1.3 1.3v26.1c0 4.3-3.4 7.7-7.6 7.7zm-20.5-32.5v24.8c0 2.7 2.3 5 5 5h15.5c2.7 0 5-2.3 5-5v-24.7l-25.5-.1z"/></g><g class="st0"><path class="st1" d="M1275.2 137.2c-.7 0-1.3-.6-1.3-1.3V115c0-.7.6-1.3 1.3-1.3 6.5 0 11.8 5.3 11.8 11.8 0 6.5-5.3 11.8-11.8 11.7zm1.3-20.8v18.1c5-.7 8.4-5.4 7.7-10.4-.6-4-3.7-7.1-7.7-7.7z"/></g><g class="st0"><path class="st1" d="M1201.5 52.7h-14.4c-.7 0-1.3-.6-1.3-1.3v-7c-8.5-4.7-11.7-15.4-7-24s15.4-11.7 24-7 11.7 15.4 7 24c-1.6 2.9-4 5.4-7 7v7c0 .6-.5 1.2-1.3 1.3.1 0 0 0 0 0zm-13.1-2.7h11.8v-6.5c0-.5.3-1 .7-1.2 7.4-3.7 10.5-12.6 6.9-20.1s-12.6-10.5-20.1-6.9-10.5 12.6-6.9 20.1c1.5 3 3.9 5.4 6.9 6.9.5.2.7.7.7 1.2V50z"/></g><g class="st0"><path class="st1" d="M1194.3 68.2c-2.8 0-5.1-2.3-5.1-5.1s2.3-5.1 5.1-5.1 5.1 2.3 5.1 5.1-2.3 5.1-5.1 5.1zm0-7.5c-1.4 0-2.5 1.1-2.5 2.5s1.1 2.5 2.5 2.5 2.5-1.1 2.5-2.5-1.1-2.5-2.5-2.5z"/></g><g class="st0"><path class="st1" d="M1195.2 64.4h-1.7c-4.2 0-7.7-3.4-7.7-7.7v-5.4c0-.7.6-1.3 1.3-1.3h14.4c.7 0 1.3.6 1.3 1.3v5.5c0 4.2-3.4 7.6-7.6 7.6zm-6.8-11.7v4.1c0 2.7 2.3 5 5 5h1.7c2.7 0 5-2.3 5-5v-4.1h-11.7z"/></g><g class="st0"><path class="st1" d="M1194.3 52.7c-.7 0-1.3-.6-1.3-1.3V32.8c0-.7.6-1.3 1.3-1.3.7 0 1.3.6 1.3 1.3v18.6c0 .7-.5 1.3-1.3 1.3z"/></g><g class="st0"><path class="st1" d="M833.6 217.8H802c-.7 0-1.3-.6-1.3-1.3 0-.7.6-1.3 1.3-1.3h31.6c.7 0 1.3.6 1.3 1.3s-.5 1.3-1.3 1.3z"/></g><g class="st0"><path class="st1" d="M833.6 225.1H802c-.7 0-1.3-.6-1.3-1.3s.6-1.3 1.3-1.3h31.6c.7 0 1.3.6 1.3 1.3s-.5 1.3-1.3 1.3z"/></g><g class="st0"><path class="st1" d="M877.2 217.8h-31.7c-.7 0-1.3-.6-1.3-1.3 0-.7.6-1.3 1.3-1.3h31.6c.7 0 1.3.6 1.3 1.3.1.7-.5 1.3-1.2 1.3z"/></g><g class="st0"><path class="st1" d="M877.2 224.3h-31.7c-.7 0-1.3-.6-1.3-1.3 0-.7.6-1.3 1.3-1.3h31.6c.7 0 1.3.6 1.3 1.3.1.7-.5 1.3-1.2 1.3z"/></g><g class="st0"><path class="st1" d="M1145 27.3h-61.5c-.7 0-1.3-.6-1.3-1.3v-9.4c0-.7.6-1.3 1.3-1.3h61.5c.7 0 1.3.6 1.3 1.3V26c0 .7-.6 1.3-1.3 1.3zm-60.2-2.6h58.8V18h-58.8v6.7z"/></g><g class="st0"><path class="st1" d="M1145 22.6h-61.5c-.7 0-1.3-.6-1.3-1.3 0-.7.6-1.3 1.3-1.3h61.5c.7 0 1.3.6 1.3 1.3 0 .8-.6 1.3-1.3 1.3z"/></g><g class="st0"><path class="st1" d="M1083.5 27.3c-.2 0-.3 0-.5-.1l-11.9-4.7c-.5-.2-.9-.7-.8-1.2 0-.5.3-1 .8-1.2l11.9-4.7c.7-.3 1.4 0 1.7.7s0 1.4-.7 1.7l-8.8 3.4 8.8 3.4c.7.3 1 1 .7 1.7-.1.6-.6 1-1.2 1z"/></g><g class="st0"><path class="st1" d="M1076.3 24.5c-.7 0-1.3-.6-1.3-1.3v-3.7c0-.7.6-1.3 1.3-1.3.7 0 1.3.6 1.3 1.3v3.7c0 .7-.6 1.3-1.3 1.3z"/></g><g class="st0"><path class="st1" d="M991.9 43.7h-14.4c-.7 0-1.3-.6-1.3-1.3v-7c-8.5-4.7-11.7-15.4-7-24 4.7-8.5 15.4-11.7 24-7s11.7 15.4 7 24c-1.6 2.9-4 5.4-7 7v7c0 .7-.5 1.3-1.3 1.3.1 0 .1 0 0 0zm-13.1-2.6h11.8v-6.5c0-.5.3-1 .7-1.2 7.4-3.7 10.5-12.6 6.9-20.1-3.7-7.4-12.6-10.5-20.1-6.9s-10.5 12.6-6.9 20.1c1.5 3 3.9 5.4 6.9 6.9.5.2.7.7.7 1.2v6.5z"/></g><g class="st0"><path class="st1" d="M984.7 59.3c-2.8 0-5.1-2.3-5.1-5.1s2.3-5.1 5.1-5.1 5.1 2.3 5.1 5.1-2.3 5.1-5.1 5.1zm0-7.6c-1.4 0-2.5 1.1-2.5 2.5s1.1 2.5 2.5 2.5 2.5-1.1 2.5-2.5-1.1-2.5-2.5-2.5z"/></g><g class="st0"><path class="st1" d="M985.6 55.5h-1.7c-4.2 0-7.7-3.4-7.7-7.7v-5.5c0-.7.6-1.3 1.3-1.3h14.4c.7 0 1.3.6 1.3 1.3v5.5c.1 4.3-3.4 7.7-7.6 7.7zm-6.8-11.8v4.1c0 2.7 2.3 5 5 5h1.7c2.7 0 5-2.3 5-5v-4.1h-11.7z"/></g><g class="st0"><path class="st1" d="M984.7 43.7c-.7 0-1.3-.6-1.3-1.3V23.8c0-.7.6-1.3 1.3-1.3s1.3.6 1.3 1.3v18.6c0 .7-.6 1.3-1.3 1.3z"/></g><g class="st0"><path class="st1" d="M988.5 172.5H945c-.7 0-1.3-.6-1.3-1.3V112c0-.7.6-1.3 1.3-1.3h43.5c.7 0 1.3.6 1.3 1.3v59.2c0 .7-.6 1.3-1.3 1.3zm-42.2-2.6h40.9v-56.6h-40.9v56.6z"/></g><g class="st0"><path class="st1" d="M1032.1 172.5h-43.5c-.7 0-1.3-.6-1.3-1.3V112c0-.7.6-1.3 1.3-1.3h43.5c.7 0 1.3.6 1.3 1.3v59.2c-.1.7-.6 1.3-1.3 1.3zm-42.3-2.6h40.9v-56.6h-40.9v56.6z"/></g><g class="st0"><path class="st1" d="M982.6 121.8H951c-.7 0-1.3-.6-1.3-1.3 0-.7.6-1.3 1.3-1.3h31.6c.7 0 1.3.6 1.3 1.3 0 .8-.6 1.3-1.3 1.3z"/></g><g class="st0"><path class="st1" d="M982.6 129H951c-.7 0-1.3-.6-1.3-1.3 0-.7.6-1.3 1.3-1.3h31.6c.7 0 1.3.6 1.3 1.3 0 .7-.6 1.3-1.3 1.3z"/></g><g class="st0"><path class="st1" d="M982.6 136.3H951c-.7 0-1.3-.6-1.3-1.3s.6-1.3 1.3-1.3h31.6c.7 0 1.3.6 1.3 1.3 0 .7-.6 1.3-1.3 1.3z"/></g><g class="st0"><path class="st1" d="M982.6 143.5H951c-.7 0-1.3-.6-1.3-1.3s.6-1.3 1.3-1.3h31.6c.7 0 1.3.6 1.3 1.3 0 .7-.6 1.3-1.3 1.3z"/></g><g class="st0"><path class="st1" d="M982.6 150.8H951c-.7 0-1.3-.6-1.3-1.3s.6-1.3 1.3-1.3h31.6c.7 0 1.3.6 1.3 1.3 0 .7-.6 1.3-1.3 1.3z"/></g><g class="st0"><path class="st1" d="M982.6 158H951c-.7 0-1.3-.6-1.3-1.3s.6-1.3 1.3-1.3h31.6c.7 0 1.3.6 1.3 1.3 0 .7-.6 1.3-1.3 1.3z"/></g><g class="st0"><path class="st1" d="M1026.1 121.8h-31.6c-.7 0-1.3-.6-1.3-1.3 0-.7.6-1.3 1.3-1.3h31.6c.7 0 1.3.6 1.3 1.3 0 .8-.6 1.3-1.3 1.3z"/></g><g class="st0"><path class="st1" d="M1026.1 129h-31.6c-.7 0-1.3-.6-1.3-1.3 0-.7.6-1.3 1.3-1.3h31.6c.7 0 1.3.6 1.3 1.3 0 .7-.6 1.3-1.3 1.3z"/></g><g class="st0"><path class="st1" d="M1026.1 136.3h-31.6c-.7 0-1.3-.6-1.3-1.3 0-.7.6-1.3 1.3-1.3h31.6c.7 0 1.3.6 1.3 1.3 0 .7-.6 1.3-1.3 1.3z"/></g><g class="st0"><path class="st1" d="M1026.1 143.5h-31.6c-.7 0-1.3-.6-1.3-1.3 0-.7.6-1.3 1.3-1.3h31.6c.7 0 1.3.6 1.3 1.3 0 .7-.6 1.3-1.3 1.3z"/></g><g class="st0"><path class="st1" d="M1026.1 150.8h-31.6c-.7 0-1.3-.6-1.3-1.3s.6-1.3 1.3-1.3h31.6c.7 0 1.3.6 1.3 1.3 0 .7-.6 1.3-1.3 1.3z"/></g><g class="st0"><path class="st1" d="M1026.1 158h-31.6c-.7 0-1.3-.6-1.3-1.3 0-.7.6-1.3 1.3-1.3h31.6c.7 0 1.3.6 1.3 1.3 0 .7-.6 1.3-1.3 1.3z"/></g><g class="st0"><path class="st1" d="M1050.9 220.3H947.6c-.7 0-1.3-.6-1.3-1.3v-9.8c0-.7.6-1.3 1.3-1.3h103.3c.7 0 1.3.6 1.3 1.3v9.8c0 .7-.6 1.3-1.3 1.3zm-102-2.6h100.6v-7.1H948.9v7.1z"/></g><g class="st0"><path class="st1" d="M1044.4 210.6h-45.2c-.7 0-1.3-.6-1.3-1.3v-2.8c0-.7.5-1.3 1.2-1.3l45.2-2.8c.4 0 .7.1 1 .4.3.3.4.6.4 1v5.6c-.1.6-.6 1.2-1.3 1.2zm-43.9-2.7h42.5v-2.8l-42.5 2.6v.2z"/></g><g class="st0"><path class="st1" d="M999.2 210.6H954c-.7 0-1.3-.6-1.3-1.3v-5.6c0-.4.1-.7.4-1 .3-.3.6-.4 1-.4l45.2 2.8c.7.1 1.2.6 1.2 1.3v2.8c.1.7-.5 1.4-1.2 1.4h-.1zm-43.8-2.7h42.5v-.2l-42.5-2.6v2.8z"/></g><g class="st0"><path class="st1" d="M999.2 207.8c-.6 0-1.1-.4-1.3-1-.2-.7.2-1.4.9-1.6l43.8-12.9c.7-.2 1.4.2 1.6.9.2.7-.2 1.4-.9 1.6l-43.8 12.9s-.2.1-.3.1z"/></g><g class="st0"><path class="st1" d="M1075.9 144.4h-14.4c-.7 0-1.3-.6-1.3-1.3v-7c-8.5-4.7-11.7-15.4-7-24s15.4-11.7 24-7 11.7 15.4 7 24c-1.6 2.9-4 5.4-7 7v7c0 .6-.5 1.2-1.3 1.3.1 0 .1 0 0 0zm-13.1-2.7h11.8v-6.5c0-.5.3-1 .7-1.2 7.4-3.7 10.5-12.6 6.9-20.1-3.7-7.4-12.6-10.5-20.1-6.9s-10.5 12.6-6.9 20.1c1.5 3 3.9 5.4 6.9 6.9.5.2.7.7.7 1.2v6.5z"/></g><g class="st0"><path class="st1" d="M1068.7 160c-2.8 0-5.1-2.3-5.1-5.1s2.3-5.1 5.1-5.1 5.1 2.3 5.1 5.1-2.3 5.1-5.1 5.1zm0-7.6c-1.4 0-2.5 1.1-2.5 2.5s1.1 2.5 2.5 2.5 2.5-1.1 2.5-2.5-1.1-2.5-2.5-2.5z"/></g><g class="st0"><path class="st1" d="M1069.6 156.2h-1.7c-4.2 0-7.7-3.4-7.7-7.7V143c0-.7.6-1.3 1.3-1.3h14.4c.7 0 1.3.6 1.3 1.3v5.4c.1 4.3-3.3 7.7-7.6 7.8zm-6.8-11.8v4.1c0 2.7 2.3 5 5 5h1.7c2.7 0 5-2.3 5-5v-4.1h-11.7z"/></g><g class="st0"><path class="st1" d="M1068.7 144.4c-.7 0-1.3-.6-1.3-1.3v-18.6c0-.7.6-1.3 1.3-1.3.7 0 1.3.6 1.3 1.3V143c.1.7-.5 1.3-1.3 1.4z"/></g><g class="st0"><path class="st1" d="M1105.6 208.3c-.4 0-.7-.1-1-.4l-6.9-6.9c-2.6.7-5.4 1.1-8.1 1.1-12.8 0-23.2-7.9-23.2-17.6s10.4-17.6 23.2-17.6 23.2 7.9 23.2 17.6c-.1 4.6-2.3 8.9-5.9 11.8V207c0 .5-.3 1-.8 1.2-.1.1-.3.1-.5.1zm-7.4-10c.4 0 .7.1 1 .4l5.2 5.2v-8.1c0-.4.2-.8.5-1.1 3.5-2.8 5.4-6.4 5.4-10.1 0-8.3-9.2-15-20.5-15s-20.6 6.8-20.6 15 9.2 15 20.5 15c2.7 0 5.5-.4 8.1-1.2.1-.1.3-.1.4-.1z"/></g><g class="st0"><path class="st1" d="M1077.4 188c-2.1 0-3.8-1.7-3.8-3.8s1.7-3.8 3.8-3.8c2.1 0 3.8 1.7 3.8 3.8 0 2.1-1.7 3.8-3.8 3.8zm0-4.9c-.6 0-1.2.5-1.2 1.2 0 .6.5 1.2 1.2 1.2.6 0 1.2-.5 1.2-1.2-.1-.7-.6-1.2-1.2-1.2z"/></g><g class="st0"><path class="st1" d="M1089.7 188c-2.1 0-3.8-1.7-3.8-3.8s1.7-3.8 3.8-3.8c2.1 0 3.8 1.7 3.8 3.8 0 2.1-1.7 3.8-3.8 3.8zm0-4.9c-.6 0-1.2.5-1.2 1.2 0 .6.5 1.2 1.2 1.2.6 0 1.2-.5 1.2-1.2-.1-.7-.6-1.2-1.2-1.2z"/></g><g class="st0"><path class="st1" d="M1102 188c-2.1 0-3.8-1.7-3.8-3.8s1.7-3.8 3.8-3.8c2.1 0 3.8 1.7 3.8 3.8 0 2.1-1.7 3.8-3.8 3.8zm0-4.9c-.6 0-1.2.5-1.2 1.2 0 .6.5 1.2 1.2 1.2.6 0 1.2-.5 1.2-1.2-.1-.7-.6-1.2-1.2-1.2z"/></g><g class="st0"><path class="st1" d="M897.8 192.1c-.4 0-.7-.1-1-.4l-6.9-6.9c-2.6.7-5.4 1.1-8.1 1.1-12.8 0-23.2-7.9-23.2-17.6s10.4-17.6 23.2-17.6 23.2 7.9 23.2 17.6c-.1 4.6-2.3 8.9-5.9 11.8v10.6c0 .5-.3 1-.8 1.2-.2.1-.4.2-.5.2zm-7.5-10c.4 0 .7.1 1 .4l5.2 5.2v-8.1c0-.4.2-.8.5-1.1 3.5-2.8 5.5-6.4 5.5-10.1 0-8.3-9.2-15-20.5-15s-20.5 6.7-20.5 15 9.2 15 20.5 15c2.7 0 5.5-.4 8.1-1.2l.2-.1z"/></g><g class="st0"><path class="st1" d="M869.5 171.8c-2.1 0-3.8-1.7-3.8-3.8s1.7-3.8 3.8-3.8 3.8 1.7 3.8 3.8c0 2.1-1.7 3.8-3.8 3.8zm0-5c-.6 0-1.2.5-1.2 1.2s.5 1.2 1.2 1.2c.6 0 1.2-.5 1.2-1.2-.1-.7-.6-1.2-1.2-1.2z"/></g><g class="st0"><path class="st1" d="M881.8 171.8c-2.1 0-3.8-1.7-3.8-3.8s1.7-3.8 3.8-3.8 3.8 1.7 3.8 3.8c0 2.1-1.7 3.8-3.8 3.8zm0-5c-.6 0-1.2.5-1.2 1.2s.5 1.2 1.2 1.2c.6 0 1.2-.5 1.2-1.2-.1-.7-.6-1.2-1.2-1.2z"/></g><g class="st0"><path class="st1" d="M894.1 171.8c-2.1 0-3.8-1.7-3.8-3.8s1.7-3.8 3.8-3.8 3.8 1.7 3.8 3.8c0 2.1-1.7 3.8-3.8 3.8zm0-5c-.6 0-1.2.5-1.2 1.2s.5 1.2 1.2 1.2c.6 0 1.2-.5 1.2-1.2s-.6-1.2-1.2-1.2z"/></g><g class="st0"><path class="st1" d="M916.6 126.5h-15.5c-4.2 0-7.7-3.4-7.7-7.7v-26c0-.7.6-1.3 1.3-1.3h28.2c.7 0 1.3.6 1.3 1.3v26.1c0 4.2-3.4 7.6-7.6 7.6zm-20.5-32.4v24.8c0 2.7 2.3 5 5 5h15.5c2.7 0 5-2.3 5-5V94.1h-25.5z"/></g><g class="st0"><path class="st1" d="M922.9 119c-.7 0-1.3-.6-1.3-1.3v-21c0-.7.6-1.3 1.3-1.3 6.5 0 11.8 5.3 11.8 11.8s-5.3 11.8-11.8 11.8zm1.3-20.8v18.1c5-.7 8.4-5.4 7.7-10.4-.6-4-3.7-7.1-7.7-7.7z"/></g><g class="st0"><path class="st1" d="M1603.3 225.1h-9.6c-.7 0-1.3-.6-1.3-1.3v-24.1c0-.7.6-1.3 1.3-1.3h9.6c.7 0 1.3.6 1.3 1.3v24.1c0 .7-.5 1.3-1.3 1.3zm-8.2-2.6h6.9v-21.4h-6.9v21.4z"/></g><g class="st0"><path class="st1" d="M1341 211.3c-2.1 0-3.8-1.7-3.8-3.8s1.7-3.8 3.8-3.8c2.1 0 3.8 1.7 3.8 3.8 0 2-1.7 3.7-3.8 3.8zm0-5c-.6 0-1.2.5-1.2 1.2 0 .6.5 1.2 1.2 1.2.6 0 1.2-.5 1.2-1.2-.1-.7-.6-1.2-1.2-1.2z"/></g><g class="st0"><path class="st1" d="M1353.3 211.3c-2.1 0-3.8-1.7-3.8-3.8s1.7-3.8 3.8-3.8c2.1 0 3.8 1.7 3.8 3.8 0 2-1.7 3.7-3.8 3.8zm0-5c-.6 0-1.2.5-1.2 1.2 0 .6.5 1.2 1.2 1.2.6 0 1.2-.5 1.2-1.2-.1-.7-.6-1.2-1.2-1.2z"/></g><g class="st0"><path class="st1" d="M1365.7 211.3c-2.1 0-3.8-1.7-3.8-3.8s1.7-3.8 3.8-3.8c2.1 0 3.8 1.7 3.8 3.8-.1 2-1.8 3.7-3.8 3.8zm0-5c-.6 0-1.2.5-1.2 1.2 0 .6.5 1.2 1.2 1.2.6 0 1.2-.5 1.2-1.2-.1-.7-.6-1.2-1.2-1.2z"/></g><g class="st0"><path class="st1" d="M1427.2 175.5h-15.6c-4.2 0-7.7-3.4-7.7-7.7v-26.1c0-.7.6-1.3 1.3-1.3h28.2c.7 0 1.3.6 1.3 1.3v26.1c.1 4.2-3.2 7.7-7.5 7.7.1 0 0 0 0 0zm-20.6-32.4v24.8c0 2.7 2.3 5 5 5h15.5c2.7 0 5-2.3 5-5v-24.8h-25.5z"/></g><g class="st0"><path class="st1" d="M1433.5 168c-.7 0-1.3-.6-1.3-1.3v-21c0-.7.6-1.3 1.3-1.3 6.5 0 11.8 5.3 11.8 11.8 0 6.5-5.2 11.7-11.8 11.8zm1.4-20.8v18c5-.7 8.4-5.4 7.7-10.4-.6-4-3.8-7.1-7.7-7.6z"/></g><g class="st0"><path class="st1" d="M1635.3 63.3h-61.5c-.7 0-1.3-.6-1.3-1.3v-9.4c0-.7.6-1.3 1.3-1.3h61.5c.7 0 1.3.6 1.3 1.3V62c0 .7-.6 1.3-1.3 1.3zm-60.2-2.7h58.8v-6.7h-58.8v6.7z"/></g><g class="st0"><path class="st1" d="M1635.3 58.5h-61.5c-.7 0-1.3-.6-1.3-1.3 0-.7.6-1.3 1.3-1.3h61.5c.7 0 1.3.6 1.3 1.3 0 .8-.6 1.3-1.3 1.3z"/></g><g class="st0"><path class="st1" d="M1573.8 63.3c-.2 0-.3 0-.5-.1l-12-4.7c-.5-.2-.9-.7-.8-1.2 0-.5.3-1 .8-1.2l12-4.7c.7-.3 1.4 0 1.7.7s0 1.4-.7 1.7l-8.8 3.4 8.8 3.4c.7.3 1 1 .7 1.7-.1.6-.6 1-1.2 1z"/></g><g class="st0"><path class="st1" d="M1566.6 60.4c-.7 0-1.3-.6-1.3-1.3v-3.7c0-.7.6-1.3 1.3-1.3.7 0 1.3.6 1.3 1.3v3.7c0 .7-.6 1.3-1.3 1.3z"/></g><g class="st0"><path class="st1" d="M1840.5 183.2h-31.6c-.7 0-1.3-.6-1.3-1.3 0-.7.6-1.3 1.3-1.3h31.6c.7 0 1.3.6 1.3 1.3.1.7-.5 1.3-1.3 1.3z"/></g><g class="st0"><path class="st1" d="M1840.5 190.4h-31.6c-.7 0-1.3-.6-1.3-1.3 0-.7.6-1.3 1.3-1.3h31.6c.7 0 1.3.6 1.3 1.3.1.7-.5 1.3-1.3 1.3z"/></g><g class="st0"><path class="st1" d="M1840.5 197.7h-31.6c-.7 0-1.3-.6-1.3-1.3 0-.7.6-1.3 1.3-1.3h31.6c.7 0 1.3.6 1.3 1.3.1.7-.5 1.3-1.3 1.3z"/></g><g class="st0"><path class="st1" d="M1840.5 204.9h-31.6c-.7 0-1.3-.6-1.3-1.3 0-.7.6-1.3 1.3-1.3h31.6c.7 0 1.3.6 1.3 1.3.1.7-.5 1.3-1.3 1.3z"/></g><g class="st0"><path class="st1" d="M1840.5 212.2h-31.6c-.7 0-1.3-.6-1.3-1.3 0-.7.6-1.3 1.3-1.3h31.6c.7 0 1.3.6 1.3 1.3.1.7-.5 1.3-1.3 1.3z"/></g><g class="st0"><path class="st1" d="M1840.5 219.4h-31.6c-.7 0-1.3-.6-1.3-1.3 0-.7.6-1.3 1.3-1.3h31.6c.7 0 1.3.6 1.3 1.3.1.7-.5 1.3-1.3 1.3z"/></g><g class="st0"><path class="st1" d="M1884 183.2h-31.6c-.7 0-1.3-.6-1.3-1.3 0-.7.6-1.3 1.3-1.3h31.6c.7 0 1.3.6 1.3 1.3 0 .7-.6 1.3-1.3 1.3z"/></g><g class="st0"><path class="st1" d="M1884 190.4h-31.6c-.7 0-1.3-.6-1.3-1.3 0-.7.6-1.3 1.3-1.3h31.6c.7 0 1.3.6 1.3 1.3 0 .7-.6 1.3-1.3 1.3z"/></g><g class="st0"><path class="st1" d="M1884 197.7h-31.6c-.7 0-1.3-.6-1.3-1.3 0-.7.6-1.3 1.3-1.3h31.6c.7 0 1.3.6 1.3 1.3 0 .7-.6 1.3-1.3 1.3z"/></g><g class="st0"><path class="st1" d="M1884 204.9h-31.6c-.7 0-1.3-.6-1.3-1.3 0-.7.6-1.3 1.3-1.3h31.6c.7 0 1.3.6 1.3 1.3 0 .7-.6 1.3-1.3 1.3z"/></g><g class="st0"><path class="st1" d="M1884 212.2h-31.6c-.7 0-1.3-.6-1.3-1.3 0-.7.6-1.3 1.3-1.3h31.6c.7 0 1.3.6 1.3 1.3 0 .7-.6 1.3-1.3 1.3z"/></g><g class="st0"><path class="st1" d="M1884 219.4h-31.6c-.7 0-1.3-.6-1.3-1.3 0-.7.6-1.3 1.3-1.3h31.6c.7 0 1.3.6 1.3 1.3 0 .7-.6 1.3-1.3 1.3z"/></g><g class="st0"><path class="st1" d="M1507.2 99.6h-103.3c-.7 0-1.3-.6-1.3-1.3v-9.8c0-.7.6-1.3 1.3-1.3h103.3c.7 0 1.3.6 1.3 1.3v9.8c0 .7-.5 1.3-1.1 1.3h-.2zm-102-2.6h100.6v-7.1h-100.6V97z"/></g><g class="st0"><path class="st1" d="M1500.6 89.9h-45.2c-.7 0-1.3-.6-1.3-1.3v-2.8c0-.7.5-1.3 1.2-1.3l45.2-2.8c.4 0 .7.1 1 .4.3.3.4.6.4 1v5.6c0 .6-.6 1.2-1.3 1.2zm-43.8-2.7h42.5v-2.8l-42.5 2.6v.2z"/></g><g class="st0"><path class="st1" d="M1455.5 89.9h-45.1c-.7 0-1.3-.6-1.3-1.3V83c0-.4.1-.7.4-1 .3-.3.6-.4 1-.4l45.2 2.8c.7.1 1.2.6 1.2 1.3v2.8c0 .7-.6 1.3-1.4 1.4zm-43.8-2.7h42.5V87l-42.5-2.6v2.8z"/></g><g class="st0"><path class="st1" d="M1455.5 87.1c-.6 0-1.1-.4-1.3-1-.2-.7.2-1.4.9-1.6l43.9-12.8c.7-.2 1.4.2 1.6.9.2.7-.2 1.4-.9 1.6L1455.9 87c-.1.1-.3.1-.4.1z"/></g><g class="st0"><path class="st1" d="M1404.4 10.3h-31.6c-.7 0-1.3-.6-1.3-1.3 0-.7.6-1.3 1.3-1.3h31.6c.7 0 1.3.6 1.3 1.3 0 .7-.6 1.3-1.3 1.3z"/></g><g class="st0"><path class="st1" d="M1404.4 17.6h-31.6c-.7 0-1.3-.6-1.3-1.3 0-.7.6-1.3 1.3-1.3h31.6c.7 0 1.3.6 1.3 1.3 0 .7-.6 1.3-1.3 1.3z"/></g><g class="st0"><path class="st1" d="M1404.4 24.8h-31.6c-.7 0-1.3-.6-1.3-1.3 0-.7.6-1.3 1.3-1.3h31.6c.7 0 1.3.6 1.3 1.3 0 .7-.6 1.3-1.3 1.3z"/></g><g class="st0"><path class="st1" d="M1404.4 32.1h-31.6c-.7 0-1.3-.6-1.3-1.3 0-.7.6-1.3 1.3-1.3h31.6c.7 0 1.3.6 1.3 1.3 0 .7-.6 1.3-1.3 1.3z"/></g><g class="st0"><path class="st1" d="M1404.4 39.3h-31.6c-.7 0-1.3-.6-1.3-1.3 0-.7.6-1.3 1.3-1.3h31.6c.7 0 1.3.6 1.3 1.3 0 .7-.6 1.3-1.3 1.3z"/></g><g class="st0"><path class="st1" d="M1404.4 46.5h-31.6c-.7 0-1.3-.6-1.3-1.3 0-.7.6-1.3 1.3-1.3h31.6c.7 0 1.3.6 1.3 1.3 0 .8-.6 1.3-1.3 1.3z"/></g><g class="st0"><path class="st1" d="M1447.9 10.3h-31.6c-.7 0-1.3-.6-1.3-1.3 0-.7.6-1.3 1.3-1.3h31.6c.7 0 1.3.6 1.3 1.3.1.7-.5 1.3-1.3 1.3z"/></g><g class="st0"><path class="st1" d="M1447.9 17.6h-31.6c-.7 0-1.3-.6-1.3-1.3 0-.7.6-1.3 1.3-1.3h31.6c.7 0 1.3.6 1.3 1.3.1.7-.5 1.3-1.3 1.3z"/></g><g class="st0"><path class="st1" d="M1447.9 24.8h-31.6c-.7 0-1.3-.6-1.3-1.3 0-.7.6-1.3 1.3-1.3h31.6c.7 0 1.3.6 1.3 1.3 0 .7-.5 1.3-1.3 1.3z"/></g><g class="st0"><path class="st1" d="M1447.9 32.1h-31.6c-.7 0-1.3-.6-1.3-1.3 0-.7.6-1.3 1.3-1.3h31.6c.7 0 1.3.6 1.3 1.3 0 .7-.5 1.3-1.3 1.3z"/></g><g class="st0"><path class="st1" d="M1447.9 39.3h-31.6c-.7 0-1.3-.6-1.3-1.3 0-.7.6-1.3 1.3-1.3h31.6c.7 0 1.3.6 1.3 1.3 0 .7-.5 1.3-1.3 1.3z"/></g><g class="st0"><path class="st1" d="M1447.9 46.5h-31.6c-.7 0-1.3-.6-1.3-1.3 0-.7.6-1.3 1.3-1.3h31.6c.7 0 1.3.6 1.3 1.3 0 .8-.5 1.3-1.3 1.3z"/></g><g class="st0"><path class="st1" d="M1506.3 44.2c-.4 0-.7-.1-1-.4l-6.8-6.9c-2.6.7-5.4 1.1-8.1 1.1-12.8 0-23.2-7.9-23.2-17.6s10.4-17.6 23.2-17.6 23.2 7.9 23.2 17.6c-.1 4.6-2.3 8.9-5.9 11.8v10.6c0 .5-.3 1-.8 1.2-.3.2-.5.2-.6.2zm-7.5-10c.4 0 .7.1 1 .4l5.2 5.2v-8.1c0-.4.2-.8.5-1.1 3.5-2.8 5.4-6.4 5.4-10.1 0-8.3-9.2-15-20.5-15s-20.5 6.7-20.5 15 9.2 15 20.5 15c2.7 0 5.5-.4 8.1-1.2l.3-.1z"/></g><g class="st0"><path class="st1" d="M1478 24c-2.1 0-3.8-1.7-3.8-3.8s1.7-3.8 3.8-3.8c2.1 0 3.8 1.7 3.8 3.8 0 2.1-1.7 3.8-3.8 3.8zm0-5c-.6 0-1.2.5-1.2 1.2 0 .6.5 1.2 1.2 1.2.6 0 1.2-.5 1.2-1.2s-.6-1.2-1.2-1.2z"/></g><g class="st0"><path class="st1" d="M1490.3 24c-2.1 0-3.8-1.7-3.8-3.8s1.7-3.8 3.8-3.8c2.1 0 3.8 1.7 3.8 3.8 0 2.1-1.7 3.8-3.8 3.8zm0-5c-.6 0-1.2.5-1.2 1.2 0 .6.5 1.2 1.2 1.2.6 0 1.2-.5 1.2-1.2s-.5-1.2-1.2-1.2z"/></g><g class="st0"><path class="st1" d="M1502.7 24c-2.1 0-3.8-1.7-3.8-3.8s1.7-3.8 3.8-3.8c2.1 0 3.8 1.7 3.8 3.8-.1 2.1-1.8 3.8-3.8 3.8zm0-5c-.6 0-1.2.5-1.2 1.2 0 .6.5 1.2 1.2 1.2.6 0 1.2-.5 1.2-1.2-.1-.7-.6-1.2-1.2-1.2z"/></g><g class="st0"><path class="st1" d="M1545.8 93.9h-9.6c-.7 0-1.3-.6-1.3-1.3v-56c0-.7.6-1.3 1.3-1.3h9.6c.7 0 1.3.6 1.3 1.3v55.9c0 .8-.6 1.4-1.3 1.4zm-8.4-2.7h6.9V37.9h-6.9v53.3z"/></g><g class="st0"><path class="st1" d="M1545.8 62h-9.6c-.7 0-1.3-.6-1.3-1.3V36.6c0-.7.6-1.3 1.3-1.3h9.6c.7 0 1.3.6 1.3 1.3v24.1c-.1.7-.6 1.3-1.3 1.3zm-8.4-2.6h6.9V37.9h-6.9v21.5z"/></g><g class="st0"><path class="st1" d="M1545.8 65.9h-9.6c-.7 0-1.3-.6-1.3-1.3v-3.9c0-.7.6-1.3 1.3-1.3h9.6c.7 0 1.3.6 1.3 1.3v3.9c0 .7-.6 1.3-1.3 1.3zm-8.4-2.6h6.9V62h-6.9v1.3z"/></g><g class="st0"><path class="st1" d="M1544.6 98.1h-7.4c-.7 0-1.3-.6-1.3-1.3v-4.2c0-.7.6-1.3 1.3-1.3h7.4c.7 0 1.3.6 1.3 1.3v4.2c.1.7-.5 1.3-1.3 1.3.1 0 0 0 0 0zm-6-2.6h4.8v-1.6h-4.8v1.6z"/></g><g class="st0"><path class="st1" d="M1540.9 123.4c-.1 0-.3 0-.4-.1-.3-.1-.5-.3-.7-.5l-7.3-10.3c-.2-.3-.3-.7-.2-1.1l3.7-15c.2-.6.7-1 1.3-1h7.4c.6 0 1.1.4 1.3 1l3.7 15c.1.4 0 .8-.2 1.1l-7.4 10.4c-.1.2-.3.3-.5.4-.3.1-.5.1-.7.1zm-6-11.9l6 8.3 6-8.3-3.3-13.4h-5.3l-3.4 13.4z"/></g><g class="st0"><path class="st1" d="M1540.9 123.4c-.7 0-1.3-.6-1.3-1.3v-14.7c0-.7.6-1.3 1.3-1.3.7 0 1.3.6 1.3 1.3v14.7c.1.7-.5 1.3-1.3 1.3.1 0 0 0 0 0z"/></g><g class="st0"><path class="st1" d="M1506.7 165.6h-14.4c-.7 0-1.3-.6-1.3-1.3v-7c-8.5-4.7-11.7-15.4-7-24s15.4-11.7 24-7c8.5 4.7 11.7 15.4 7 24-1.6 2.9-4 5.4-7 7v7c0 .7-.6 1.3-1.3 1.3zm-13.1-2.6h11.8v-6.5c0-.5.3-1 .7-1.2 7.4-3.7 10.5-12.6 6.9-20.1-3.7-7.4-12.6-10.5-20.1-6.9-7.4 3.7-10.5 12.6-6.9 20.1 1.5 3 3.9 5.4 6.9 6.9.5.2.7.7.7 1.2v6.5z"/></g><g class="st0"><path class="st1" d="M1499.4 181.2c-2.8 0-5.1-2.3-5.1-5.1s2.3-5.1 5.1-5.1 5.1 2.3 5.1 5.1-2.2 5.1-5.1 5.1zm0-7.6c-1.4 0-2.5 1.1-2.5 2.5s1.1 2.5 2.5 2.5 2.5-1.1 2.5-2.5-1.1-2.5-2.5-2.5c.1 0 0 0 0 0z"/></g><g class="st0"><path class="st1" d="M1500.3 177.4h-1.7c-4.2 0-7.7-3.4-7.7-7.7v-5.4c0-.7.6-1.3 1.3-1.3h14.4c.7 0 1.3.6 1.3 1.3v5.4c.1 4.3-3.3 7.7-7.6 7.7zm-6.7-11.8v4.1c0 2.7 2.3 5 5 5h1.7c2.7 0 5-2.3 5-5v-4.1h-11.7z"/></g><g class="st0"><path class="st1" d="M1499.4 165.6c-.7 0-1.3-.6-1.3-1.3v-18.6c0-.7.6-1.3 1.3-1.3.7 0 1.3.6 1.3 1.3v18.6c0 .8-.6 1.3-1.3 1.3z"/></g><g class="st0"><path class="st1" d="M1406.2 125.8h-61.5c-.7 0-1.3-.6-1.3-1.3v-9.4c0-.7.6-1.3 1.3-1.3h61.5c.7 0 1.3.6 1.3 1.3v9.4c0 .7-.6 1.3-1.3 1.3zm-60.2-2.6h58.8v-6.7H1346v6.7z"/></g><g class="st0"><path class="st1" d="M1406.2 121.1h-61.5c-.7 0-1.3-.6-1.3-1.3 0-.7.6-1.3 1.3-1.3h61.5c.7 0 1.3.6 1.3 1.3 0 .7-.6 1.3-1.3 1.3z"/></g><g class="st0"><path class="st1" d="M1344.7 125.8c-.2 0-.3 0-.5-.1l-12-4.7c-.5-.2-.9-.7-.8-1.2 0-.5.3-1 .8-1.2l12-4.7c.7-.3 1.4 0 1.7.7.3.7 0 1.4-.7 1.7l-8.8 3.4 8.8 3.4c.7.3 1 1 .7 1.7-.1.6-.6 1-1.2 1z"/></g><g class="st0"><path class="st1" d="M1337.5 123c-.7 0-1.3-.6-1.3-1.3V118c0-.7.6-1.3 1.3-1.3.7 0 1.3.6 1.3 1.3v3.7c0 .7-.6 1.3-1.3 1.3z"/></g><g class="st0"><path class="st1" d="M1772.4 90.1h-103.3c-.7 0-1.3-.6-1.3-1.3V79c0-.7.6-1.3 1.3-1.3h103.3c.7 0 1.3.6 1.3 1.3v9.8c0 .7-.6 1.3-1.3 1.3zm-101.9-2.7h100.6v-7.1h-100.6v7.1z"/></g><g class="st0"><path class="st1" d="M1765.9 80.3h-45.2c-.7 0-1.3-.6-1.3-1.3v-2.8c0-.7.5-1.3 1.2-1.3l45.2-2.8c.4 0 .7.1 1 .4.3.3.4.6.4 1V79c0 .7-.6 1.3-1.3 1.3zm-43.8-2.6h42.5v-2.8l-42.5 2.6v.2z"/></g><g class="st0"><path class="st1" d="M1720.8 80.3h-45.2c-.7 0-1.3-.6-1.3-1.3v-5.6c0-.4.1-.7.4-1 .3-.3.6-.4 1-.4l45.2 2.8c.7.1 1.2.6 1.2 1.3v2.8c.1.7-.5 1.4-1.2 1.4h-.1zm-43.8-2.7h42.5v-.2l-42.5-2.6v2.8z"/></g><g class="st0"><path class="st1" d="M1720.8 77.5c-.6 0-1.1-.4-1.3-1-.2-.7.2-1.4.9-1.6l43.8-12.8c.7-.2 1.4.2 1.6.9s-.2 1.4-.9 1.6l-43.8 12.8c0 .1-.2.1-.3.1z"/></g><g class="st0"><path class="st1" d="M1809.1 120.7h-9.6c-.7 0-1.3-.6-1.3-1.3v-56c0-.7.5-1.3 1.3-1.4h9.7c.7 0 1.3.6 1.3 1.3v55.9c-.1.8-.6 1.4-1.4 1.5zm-8.3-2.7h6.9V64.7h-6.9V118z"/></g><g class="st0"><path class="st1" d="M1809.1 88.8h-9.6c-.7 0-1.3-.6-1.3-1.3V63.4c0-.7.5-1.3 1.2-1.4h9.7c.7 0 1.3.6 1.3 1.3v24.1c0 .7-.6 1.3-1.3 1.4zm-8.3-2.7h6.9V64.7h-6.9v21.4z"/></g><g class="st0"><path class="st1" d="M1809.1 92.7h-9.6c-.7 0-1.3-.6-1.3-1.3v-3.9c0-.7.6-1.3 1.3-1.3h9.6c.7 0 1.3.6 1.3 1.3v3.9c0 .7-.6 1.2-1.3 1.3zm-8.3-2.7h6.9v-1.3h-6.9V90z"/></g><g class="st0"><path class="st1" d="M1808 124.9h-7.4c-.7 0-1.3-.6-1.3-1.3v-4.2c0-.7.6-1.3 1.3-1.3h7.4c.7 0 1.3.6 1.3 1.3v4.2c0 .7-.6 1.3-1.3 1.3zm-6.1-2.7h4.8v-1.6h-4.8v1.6z"/></g><g class="st0"><path class="st1" d="M1804.3 150.2c-.1 0-.3 0-.4-.1-.3-.1-.5-.3-.7-.5l-7.3-10.3c-.2-.3-.3-.7-.2-1.1l3.7-15c.2-.6.7-1 1.3-1h7.4c.6 0 1.1.4 1.3 1l3.7 15c.1.4 0 .8-.2 1.1l-7.4 10.4c-.1.2-.3.3-.5.4-.3 0-.5.1-.7.1zm-6-12l6 8.4 6-8.4-3.3-13.4h-5.3l-3.4 13.4z"/></g><g class="st0"><path class="st1" d="M1804.3 150.2c-.7 0-1.3-.6-1.3-1.3v-14.6c0-.7.6-1.3 1.3-1.3.7 0 1.3.6 1.3 1.3v14.6c0 .7-.6 1.3-1.3 1.3z"/></g><g class="st0"><path class="st1" d="M1874.8 144.8h-15.5c-4.2 0-7.7-3.4-7.7-7.7V111c0-.7.6-1.3 1.3-1.3h28.2c.7 0 1.3.6 1.3 1.3v26.1c.1 4.3-3.3 7.7-7.6 7.7zm-20.5-32.5v24.8c0 2.7 2.3 5 5 5h15.5c2.7 0 5-2.3 5-5v-24.7l-25.5-.1z"/></g><g class="st0"><path class="st1" d="M1881.2 137.2c-.7 0-1.3-.6-1.3-1.3V115c0-.7.6-1.3 1.3-1.3 6.5 0 11.8 5.3 11.8 11.8 0 6.5-5.3 11.8-11.8 11.7zm1.3-20.8v18.1c5-.7 8.4-5.4 7.7-10.4-.6-4-3.7-7.1-7.7-7.7z"/></g><g class="st0"><path class="st1" d="M1842.9 52.7h-14.4c-.7 0-1.3-.6-1.3-1.3v-7c-8.5-4.7-11.7-15.4-7-24s15.4-11.7 24-7 11.7 15.4 7 24c-1.6 2.9-4 5.4-7 7v7c-.1.6-.6 1.2-1.3 1.3zm-13.1-2.7h11.8v-6.5c0-.5.3-1 .7-1.2 7.4-3.7 10.5-12.6 6.9-20.1s-12.6-10.5-20.1-6.9-10.5 12.6-6.9 20.1c1.5 3 3.9 5.4 6.9 6.9.5.2.7.7.7 1.2V50z"/></g><g class="st0"><path class="st1" d="M1835.7 68.2c-2.8 0-5.1-2.3-5.1-5.1s2.3-5.1 5.1-5.1 5.1 2.3 5.1 5.1-2.3 5.1-5.1 5.1zm0-7.5c-1.4 0-2.5 1.1-2.5 2.5s1.1 2.5 2.5 2.5 2.5-1.1 2.5-2.5-1.1-2.5-2.5-2.5z"/></g><g class="st0"><path class="st1" d="M1836.5 64.4h-1.7c-4.2 0-7.7-3.4-7.7-7.7v-5.4c0-.7.6-1.3 1.3-1.3h14.4c.7 0 1.3.6 1.3 1.3v5.5c.1 4.2-3.4 7.6-7.6 7.6zm-6.8-11.7v4.1c0 2.7 2.3 5 5 5h1.7c2.7 0 5-2.3 5-5v-4.1h-11.7z"/></g><g class="st0"><path class="st1" d="M1835.7 52.7c-.7 0-1.3-.6-1.3-1.3V32.8c0-.7.6-1.3 1.3-1.3.7 0 1.3.6 1.3 1.3v18.6c0 .7-.6 1.3-1.3 1.3z"/></g><g class="st0"><path class="st1" d="M1513.1 220.1h-31.6c-.7 0-1.3-.6-1.3-1.3 0-.7.6-1.3 1.3-1.3h31.6c.7 0 1.3.6 1.3 1.3 0 .7-.6 1.3-1.3 1.3z"/></g><g class="st0"><path class="st1" d="M1556.6 220.1H1525c-.7 0-1.3-.6-1.3-1.3 0-.7.6-1.3 1.3-1.3h31.6c.7 0 1.3.6 1.3 1.3.1.7-.5 1.3-1.3 1.3.1 0 .1 0 0 0z"/></g><g class="st0"><path class="st1" d="M1785.3 27.3h-61.5c-.7 0-1.3-.6-1.3-1.3v-9.4c0-.7.6-1.3 1.3-1.3h61.5c.7 0 1.3.6 1.3 1.3V26c0 .7-.5 1.3-1.3 1.3zm-60.1-2.6h58.8V18h-58.8v6.7z"/></g><g class="st0"><path class="st1" d="M1785.3 22.6h-61.5c-.7 0-1.3-.6-1.3-1.3 0-.7.6-1.3 1.3-1.3h61.5c.7 0 1.3.6 1.3 1.3 0 .8-.5 1.3-1.3 1.3z"/></g><g class="st0"><path class="st1" d="M1723.8 27.3c-.2 0-.3 0-.5-.1l-11.9-4.7c-.5-.2-.9-.7-.8-1.2 0-.5.3-1 .8-1.2l11.9-4.7c.7-.3 1.4 0 1.7.7.3.7 0 1.4-.7 1.7l-8.8 3.4 8.8 3.4c.7.3 1 1 .7 1.7-.1.6-.6 1-1.2 1z"/></g><g class="st0"><path class="st1" d="M1716.6 24.5c-.7 0-1.3-.6-1.3-1.3v-3.7c0-.7.6-1.3 1.3-1.3.7 0 1.3.6 1.3 1.3v3.7c0 .7-.5 1.3-1.3 1.3z"/></g><g class="st0"><path class="st1" d="M1671.4 43.7H1657c-.7 0-1.3-.6-1.3-1.3v-7c-8.5-4.7-11.7-15.4-7-24s15.4-11.7 24-7 11.7 15.4 7 24c-1.6 2.9-4 5.4-7 7v7c0 .7-.6 1.3-1.3 1.3zm-13.1-2.6h11.8v-6.5c0-.5.3-1 .7-1.2 7.4-3.7 10.5-12.6 6.9-20.1s-12.6-10.5-20.1-6.9-10.5 12.6-6.9 20.1c1.5 3 3.9 5.4 6.9 6.9.5.2.7.7.7 1.2v6.5z"/></g><g class="st0"><path class="st1" d="M1664.1 59.3c-2.8 0-5.1-2.3-5.1-5.1s2.3-5.1 5.1-5.1 5.1 2.3 5.1 5.1c.1 2.8-2.2 5.1-5.1 5.1zm0-7.6c-1.4 0-2.5 1.1-2.5 2.5s1.1 2.5 2.5 2.5 2.5-1.1 2.5-2.5-1.1-2.5-2.5-2.5c.1 0 0 0 0 0z"/></g><g class="st0"><path class="st1" d="M1665 55.5h-1.7c-4.2 0-7.7-3.4-7.7-7.7v-5.5c0-.7.6-1.3 1.3-1.3h14.4c.7 0 1.3.6 1.3 1.3v5.5c.1 4.3-3.4 7.7-7.6 7.7zm-6.8-11.8v4.1c0 2.7 2.3 5 5 5h1.8c2.7 0 5-2.3 5-5v-4.1h-11.8z"/></g><g class="st0"><path class="st1" d="M1664.1 43.7c-.7 0-1.3-.6-1.3-1.3V23.8c0-.7.6-1.3 1.3-1.3.7 0 1.3.6 1.3 1.3v18.6c.1.7-.5 1.3-1.3 1.3.1 0 .1 0 0 0z"/></g><g class="st0"><path class="st1" d="M1667.9 172.5h-43.5c-.7 0-1.3-.6-1.3-1.3V112c0-.7.6-1.3 1.3-1.3h43.5c.7 0 1.3.6 1.3 1.3v59.2c0 .7-.5 1.3-1.3 1.3zm-42.2-2.6h40.9v-56.6h-40.9v56.6z"/></g><g class="st0"><path class="st1" d="M1711.5 172.5H1668c-.7 0-1.3-.6-1.3-1.3V112c0-.7.6-1.3 1.3-1.3h43.5c.7 0 1.3.6 1.3 1.3v59.2c0 .7-.6 1.3-1.3 1.3zm-42.2-2.6h40.9v-56.6h-40.9v56.6z"/></g><g class="st0"><path class="st1" d="M1662 121.8h-31.6c-.7 0-1.3-.6-1.3-1.3 0-.7.6-1.3 1.3-1.3h31.6c.7 0 1.3.6 1.3 1.3 0 .8-.6 1.3-1.3 1.3z"/></g><g class="st0"><path class="st1" d="M1662 129h-31.6c-.7 0-1.3-.6-1.3-1.3 0-.7.6-1.3 1.3-1.3h31.6c.7 0 1.3.6 1.3 1.3 0 .7-.6 1.3-1.3 1.3z"/></g><g class="st0"><path class="st1" d="M1662 136.3h-31.6c-.7 0-1.3-.6-1.3-1.3 0-.7.6-1.3 1.3-1.3h31.6c.7 0 1.3.6 1.3 1.3 0 .7-.6 1.3-1.3 1.3z"/></g><g class="st0"><path class="st1" d="M1662 143.5h-31.6c-.7 0-1.3-.6-1.3-1.3 0-.7.6-1.3 1.3-1.3h31.6c.7 0 1.3.6 1.3 1.3 0 .7-.6 1.3-1.3 1.3z"/></g><g class="st0"><path class="st1" d="M1662 150.8h-31.6c-.7 0-1.3-.6-1.3-1.3 0-.7.6-1.3 1.3-1.3h31.6c.7 0 1.3.6 1.3 1.3 0 .7-.6 1.3-1.3 1.3z"/></g><g class="st0"><path class="st1" d="M1662 158h-31.6c-.7 0-1.3-.6-1.3-1.3 0-.7.6-1.3 1.3-1.3h31.6c.7 0 1.3.6 1.3 1.3 0 .7-.6 1.3-1.3 1.3z"/></g><g class="st0"><path class="st1" d="M1705.5 121.8h-31.6c-.7 0-1.3-.6-1.3-1.3 0-.7.6-1.3 1.3-1.3h31.6c.7 0 1.3.6 1.3 1.3.1.8-.5 1.3-1.3 1.3z"/></g><g class="st0"><path class="st1" d="M1705.5 129h-31.6c-.7 0-1.3-.6-1.3-1.3 0-.7.6-1.3 1.3-1.3h31.6c.7 0 1.3.6 1.3 1.3.1.7-.5 1.3-1.3 1.3z"/></g><g class="st0"><path class="st1" d="M1705.5 136.3h-31.6c-.7 0-1.3-.6-1.3-1.3 0-.7.6-1.3 1.3-1.3h31.6c.7 0 1.3.6 1.3 1.3.1.7-.5 1.3-1.3 1.3z"/></g><g class="st0"><path class="st1" d="M1705.5 143.5h-31.6c-.7 0-1.3-.6-1.3-1.3 0-.7.6-1.3 1.3-1.3h31.6c.7 0 1.3.6 1.3 1.3.1.7-.5 1.3-1.3 1.3z"/></g><g class="st0"><path class="st1" d="M1705.5 150.8h-31.6c-.7 0-1.3-.6-1.3-1.3 0-.7.6-1.3 1.3-1.3h31.6c.7 0 1.3.6 1.3 1.3.1.7-.5 1.3-1.3 1.3z"/></g><g class="st0"><path class="st1" d="M1705.5 158h-31.6c-.7 0-1.3-.6-1.3-1.3 0-.7.6-1.3 1.3-1.3h31.6c.7 0 1.3.6 1.3 1.3.1.7-.5 1.3-1.3 1.3z"/></g><g class="st0"><path class="st1" d="M1730.3 220.3H1627c-.7 0-1.3-.6-1.3-1.3v-9.8c0-.7.6-1.3 1.3-1.3h103.3c.7 0 1.3.6 1.3 1.3v9.8c0 .7-.5 1.3-1.3 1.3zm-102-2.6H1729v-7.1h-100.7v7.1z"/></g><g class="st0"><path class="st1" d="M1723.8 210.6h-45.2c-.7 0-1.3-.6-1.3-1.3v-2.8c0-.7.5-1.3 1.2-1.3l45.2-2.8c.4 0 .7.1 1 .4.3.3.4.6.4 1v5.6c0 .6-.6 1.2-1.3 1.2zm-43.8-2.7h42.5v-2.8l-42.5 2.6v.2z"/></g><g class="st0"><path class="st1" d="M1678.7 210.6h-45.2c-.7 0-1.3-.6-1.3-1.3v-5.6c0-.4.1-.7.4-1 .3-.3.6-.4 1-.4l45.2 2.8c.7.1 1.2.6 1.2 1.3v2.8c.1.7-.5 1.4-1.2 1.4h-.1zm-43.8-2.7h42.5v-.2l-42.5-2.6v2.8z"/></g><g class="st0"><path class="st1" d="M1678.7 207.8c-.6 0-1.1-.4-1.3-1-.2-.7.2-1.4.9-1.6l43.8-12.9c.7-.2 1.4.2 1.6.9.2.7-.2 1.4-.9 1.6l-43.9 12.9c0 .1-.1.1-.2.1z"/></g><g class="st0"><path class="st1" d="M1755.4 144.4H1741c-.7 0-1.3-.6-1.3-1.3v-7c-8.5-4.7-11.7-15.4-7-24s15.4-11.7 24-7 11.7 15.4 7 24c-1.6 2.9-4 5.4-7 7v7c0 .7-.5 1.3-1.2 1.3h-.1zm-13.1-2.7h11.8v-6.5c0-.5.3-1 .7-1.2 7.4-3.7 10.5-12.6 6.9-20.1-3.7-7.4-12.6-10.5-20.1-6.9s-10.5 12.6-6.9 20.1c1.5 3 3.9 5.4 6.9 6.9.5.2.7.7.7 1.2v6.5z"/></g><g class="st0"><path class="st1" d="M1748.2 160c-2.8 0-5.1-2.3-5.1-5.1s2.3-5.1 5.1-5.1 5.1 2.3 5.1 5.1-2.3 5.1-5.1 5.1zm0-7.6c-1.4 0-2.5 1.1-2.5 2.5s1.1 2.5 2.5 2.5 2.5-1.1 2.5-2.5-1.1-2.5-2.5-2.5z"/></g><g class="st0"><path class="st1" d="M1749.1 156.2h-1.7c-4.2 0-7.7-3.4-7.7-7.7V143c0-.7.6-1.3 1.3-1.3h14.4c.7 0 1.3.6 1.3 1.3v5.4c.1 4.3-3.4 7.7-7.6 7.8zm-6.8-11.8v4.1c0 2.7 2.3 5 5 5h1.7c2.7 0 5-2.3 5-5v-4.1h-11.7z"/></g><g class="st0"><path class="st1" d="M1748.2 144.4c-.7 0-1.3-.6-1.3-1.3v-18.6c0-.7.6-1.3 1.3-1.3.7 0 1.3.6 1.3 1.3V143c0 .7-.5 1.3-1.3 1.4z"/></g><g class="st0"><path class="st1" d="M1785.1 208.3c-.4 0-.7-.1-1-.4l-6.9-6.9c-2.6.7-5.4 1.1-8.1 1.1-12.8 0-23.2-7.9-23.2-17.6s10.4-17.6 23.2-17.6 23.2 7.9 23.2 17.6c-.1 4.6-2.3 8.9-5.9 11.8V207c0 .5-.3 1-.8 1.2-.2.1-.3.1-.5.1zm-7.4-10c.4 0 .7.1 1 .4l5.2 5.2v-8.1c0-.4.2-.8.5-1.1 3.5-2.8 5.4-6.4 5.4-10.1 0-8.3-9.2-15-20.5-15s-20.6 6.8-20.6 15 9.2 15 20.5 15c2.7 0 5.5-.4 8.1-1.2.1-.1.3-.1.4-.1z"/></g><g class="st0"><path class="st1" d="M1756.8 188c-2.1 0-3.8-1.7-3.8-3.8s1.7-3.8 3.8-3.8c2.1 0 3.8 1.7 3.8 3.8.1 2.1-1.6 3.8-3.8 3.8.1 0 0 0 0 0zm0-4.9c-.6 0-1.2.5-1.2 1.2 0 .6.5 1.2 1.2 1.2.6 0 1.2-.5 1.2-1.2s-.6-1.2-1.2-1.2z"/></g><g class="st0"><path class="st1" d="M1769.2 188c-2.1 0-3.8-1.7-3.8-3.8s1.7-3.8 3.8-3.8c2.1 0 3.8 1.7 3.8 3.8 0 2.1-1.7 3.8-3.8 3.8zm0-4.9c-.6 0-1.2.5-1.2 1.2 0 .6.5 1.2 1.2 1.2.6 0 1.2-.5 1.2-1.2-.1-.7-.6-1.2-1.2-1.2z"/></g><g class="st0"><path class="st1" d="M1781.5 188c-2.1 0-3.8-1.7-3.8-3.8s1.7-3.8 3.8-3.8c2.1 0 3.8 1.7 3.8 3.8 0 2.1-1.7 3.8-3.8 3.8zm0-4.9c-.6 0-1.2.5-1.2 1.2 0 .6.5 1.2 1.2 1.2.6 0 1.2-.5 1.2-1.2-.1-.7-.6-1.2-1.2-1.2z"/></g><g class="st0"><path class="st1" d="M1577.2 192.1c-.4 0-.7-.1-1-.4l-6.9-6.9c-2.6.7-5.4 1.1-8.1 1.1-12.8 0-23.2-7.9-23.2-17.6s10.4-17.6 23.2-17.6 23.2 7.9 23.2 17.6c-.1 4.6-2.3 8.9-5.9 11.8v10.6c0 .5-.3 1-.8 1.2-.2.1-.3.2-.5.2zm-7.4-10c.4 0 .7.1 1 .4l5.2 5.2v-8.1c0-.4.2-.8.5-1.1 3.5-2.8 5.4-6.4 5.4-10.1 0-8.3-9.2-15-20.5-15s-20.5 6.7-20.5 15 9.2 15 20.5 15c2.7 0 5.5-.4 8.1-1.2l.3-.1z"/></g><g class="st0"><path class="st1" d="M1548.9 171.8c-2.1 0-3.8-1.7-3.8-3.8s1.7-3.8 3.8-3.8c2.1 0 3.8 1.7 3.8 3.8 0 2.1-1.6 3.8-3.8 3.8zm0-5c-.6 0-1.2.5-1.2 1.2 0 .6.5 1.2 1.2 1.2.6 0 1.2-.5 1.2-1.2s-.6-1.2-1.2-1.2z"/></g><g class="st0"><path class="st1" d="M1561.2 171.8c-2.1 0-3.8-1.7-3.9-3.8 0-2.1 1.7-3.8 3.8-3.9 2.1 0 3.8 1.7 3.9 3.8 0 2.2-1.7 3.9-3.8 3.9zm0-5c-.6 0-1.2.5-1.2 1.2 0 .6.5 1.2 1.2 1.2.6 0 1.2-.5 1.2-1.2s-.5-1.2-1.2-1.2z"/></g><g class="st0"><path class="st1" d="M1573.6 171.8c-2.1 0-3.8-1.7-3.8-3.8s1.7-3.8 3.8-3.8c2.1 0 3.8 1.7 3.8 3.8 0 2.1-1.7 3.8-3.8 3.8zm0-5c-.6 0-1.2.5-1.2 1.2 0 .6.5 1.2 1.2 1.2.6 0 1.2-.5 1.2-1.2-.1-.7-.6-1.2-1.2-1.2z"/></g><g class="st0"><path class="st1" d="M1596 126.5h-15.5c-4.2 0-7.7-3.4-7.7-7.7v-26c0-.7.6-1.3 1.3-1.3h28.2c.7 0 1.3.6 1.3 1.3v26.1c.1 4.2-3.4 7.6-7.6 7.6zm-20.5-32.4v24.8c0 2.7 2.3 5 5 5h15.5c2.7 0 5-2.3 5-5V94.1h-25.5z"/></g><g class="st0"><path class="st1" d="M1602.4 119c-.7 0-1.3-.6-1.3-1.3v-21c0-.7.6-1.3 1.3-1.3 6.5 0 11.8 5.3 11.8 11.8s-5.3 11.8-11.8 11.8zm1.3-20.8v18.1c5-.7 8.4-5.4 7.7-10.4-.6-4-3.7-7.1-7.7-7.7z"/></g><path class="st2" d="M6.7 0c0 .1-.1.3-.1.4v59.2c0 .7.6 1.3 1.3 1.3h43.6c.7 0 1.3-.6 1.3-1.3V.4c0-.2 0-.3-.1-.4h-46zm43.4 58.3H9.2V1.8h40.9v56.5z"/><path class="st2" d="M50.2 0c-.1.1-.1.3-.1.4v59.2c0 .7.6 1.3 1.3 1.3H95c.7 0 1.3-.6 1.3-1.3V.4c0-.2 0-.3-.1-.4h-46zm43.5 58.3H52.8V1.8h40.9v56.5zM206.4 0c-.8 3.8-3.8 6.7-7.6 7.2V0h-2.6v9.9c0 2.7-2.3 5-5 5h-15.5c-2.7 0-5-2.3-5-5V0H168v9.9c0 4.2 3.4 7.7 7.7 7.7h15.5c4.2 0 7.6-3.4 7.7-7.6 5.3-.6 9.5-4.7 10.3-10h-2.8zm63.5 0c-1 2.4-2.6 4.4-4.6 6-.3.3-.5.7-.5 1.1v8.1l-5.2-5.2c-.3-.2-.6-.4-1-.4-.2 0-.3.1-.4.1-2.6.8-5.3 1.2-8.1 1.2-9.4 0-17.2-4.6-19.7-10.9h-2.9c2.4 7.7 11.6 13.6 22.5 13.6 2.8 0 5.5-.4 8.1-1.1l6.9 6.9c.3.2.6.4 1 .4.2 0 .3 0 .5-.1.5-.2.8-.7.8-1.2V7.7c2.5-2 4.3-4.7 5.3-7.7h-2.7zm276.5 0h-.4v1.8L541.4 0h-7c.1.1.3.3.5.3L546.8 5c.1 0 .2.1.2.1.1 0 .2.1.4.1h61.5c.7 0 1.3-.6 1.3-1.3V0h-63.8zm61.2 2.5h-58.9V.4h58.9v2.1zM638.7 0c-.1.1-.1.3-.1.4v59.2c0 .7.6 1.3 1.3 1.3h87c.7 0 1.3-.6 1.3-1.3V.4c0-.2 0-.3-.1-.4h-89.4zM682 58.3h-40.8V1.8H682v56.5zm43.6 0h-40.8V1.8h40.9l-.1 56.5zM885.8 0c-.8 3.8-3.8 6.7-7.6 7.2V0h-2.6v9.9c0 2.7-2.3 5-5 5H855c-2.7 0-5-2.3-5-5V0h-2.6v9.9c0 4.2 3.4 7.6 7.6 7.7h15.5c4.2 0 7.6-3.4 7.7-7.6 5.3-.6 9.5-4.7 10.3-10h-2.7zm63.5 0c-1 2.4-2.6 4.4-4.7 6-.3.3-.5.7-.5 1.1v8.1L939 10c-.3-.2-.6-.4-1-.4-.2 0-.3.1-.4.1-2.6.8-5.3 1.2-8.1 1.2-9.4 0-17.2-4.6-19.7-10.9H907c2.4 7.7 11.6 13.6 22.5 13.6 2.8 0 5.5-.4 8.1-1.1l6.9 6.9c.3.2.6.4 1 .4.2 0 .3 0 .5-.1.5-.2.8-.7.8-1.2V7.7c2.5-2 4.3-4.7 5.2-7.7h-2.7zm308.4 0c-.1.1-.1.3-.1.4v59.2c0 .7.6 1.3 1.3 1.3h43.5c.7 0 1.3-.6 1.3-1.3V.4c0-.2 0-.3-.1-.4h-45.9zm43.3 58.3h-40.9V1.8h40.9v56.5zM1365.6 0c-.1.1-.1.3-.1.4v59.2c0 .7.6 1.3 1.3 1.3h87c.7 0 1.3-.6 1.3-1.3V.4c0-.2 0-.3-.1-.4h-89.4zm43.4 58.3h-40.9V1.8h40.9v56.5zm43.6 0h-40.9V1.8h40.9v56.5zM1565.3 0c-.8 3.8-3.8 6.7-7.7 7.3V0h-2.6v9.9c0 2.7-2.3 5-5 5h-15.5c-2.7 0-5-2.3-5-5V0h-2.6v9.9c0 4.2 3.4 7.7 7.7 7.7h15.5c4.2 0 7.6-3.4 7.7-7.6 5.3-.6 9.5-4.7 10.3-10h-2.8zm63.5 0c-1 2.4-2.6 4.4-4.7 6-.3.3-.5.7-.5 1.1v8.1l-5.2-5.2c-.3-.2-.6-.4-1-.4-.2 0-.3.1-.4.1-2.6.8-5.3 1.2-8.1 1.2-9.4 0-17.2-4.6-19.7-10.9h-2.9c2.4 7.7 11.6 13.6 22.5 13.6 2.8 0 5.5-.4 8.1-1.1l6.9 6.9c.3.2.6.4 1 .4.2 0 .3 0 .5-.1.5-.2.8-.7.8-1.2V7.7c2.5-2 4.3-4.7 5.3-7.7h-2.6zM1920 58.3h-23.1V1.8h23.1V0h-25.6c-.1.1-.1.3-.1.4v59.2c0 .7.6 1.3 1.3 1.3h24.4v-2.6z"/><path class="st2" d="M1920 7.7h-18.4c-.7 0-1.3.6-1.3 1.3 0 .7.6 1.3 1.3 1.3h18.4V7.7zm0 7.2h-18.4c-.7 0-1.3.6-1.3 1.3 0 .7.6 1.3 1.3 1.3h18.4v-2.6zm0 7.3h-18.4c-.7 0-1.3.6-1.3 1.3 0 .7.6 1.3 1.3 1.3h18.4v-2.6zm0 7.2h-18.4c-.7 0-1.3.6-1.3 1.3 0 .7.6 1.3 1.3 1.3h18.4v-2.6zm0 7.3h-18.4c-.7 0-1.3.6-1.3 1.3 0 .7.6 1.3 1.3 1.3h18.4v-2.6zm0 7.2h-18.4c-.7 0-1.3.6-1.3 1.3 0 .7.6 1.3 1.3 1.3h18.4v-2.6zM1804.3 226v-51.3h40.9V226h2.7v-51.3h40.9V226h2.6v-52.6c0-.7-.5-1.3-1.3-1.3H1803c-.7 0-1.3.6-1.3 1.3V226h2.6zm-327.5 0v-14.4h40.9V226h2.6v-14.4h40.9V226h2.6v-15.7c0-.7-.6-1.3-1.3-1.3h-87c-.7 0-1.3.6-1.3 1.3V226h2.6zm-40.7 0v-7.6h6.9v7.6h2.6v-8.9c0-.7-.6-1.3-1.3-1.3h-9.6c-.7 0-1.3.6-1.3 1.3v8.9h2.7zm-72.9 0h3.8l-4.2-4.2c-.3-.2-.6-.4-1-.4-.1 0-.3 0-.4.1-2.6.8-5.3 1.2-8.1 1.2-11.3 0-20.5-6.8-20.5-15s9.2-15 20.5-15 20.5 6.7 20.5 15c0 3.8-2 7.4-5.4 10.1-.3.3-.5.7-.5 1.1v7.1h2.6v-6.4c3.6-2.9 5.8-7.2 5.9-11.8 0-9.7-10.4-17.6-23.2-17.6s-23.2 7.9-23.2 17.6 10.4 17.6 23.2 17.6c2.8 0 5.5-.4 8.1-1.1l1.9 1.7zm-177.4 0v-51.3h40.9V226h2.7v-51.3h40.9V226h2.6v-52.6c0-.7-.6-1.3-1.3-1.3h-87c-.7 0-1.3.6-1.3 1.3V226h2.5zm-388.4 0v-16.7h40.9V226h2.6v-16.7h40.9V226h2.6v-18c0-.7-.6-1.3-1.3-1.3h-87c-.7 0-1.3.6-1.3 1.3v18h2.6zm-720.2 0v-7.6h6.9v7.6h2.6v-8.9c0-.7-.6-1.3-1.3-1.3h-9.6c-.7 0-1.3.6-1.3 1.3v8.9h2.7zm-24.8 0h3.8l-4.2-4.2c-.3-.2-.6-.4-1-.4-.1 0-.3 0-.4.1-2.6.8-5.3 1.2-8.1 1.2-11.3 0-20.5-6.8-20.5-15s9.2-15 20.5-15 20.5 6.7 20.5 15c0 3.8-2 7.4-5.5 10.1-.3.3-.5.7-.5 1.1v7.1h2.6v-6.4c3.6-2.9 5.8-7.2 5.9-11.8 0-9.7-10.4-17.6-23.2-17.6s-23.2 7.9-23.2 17.6 10.4 17.6 23.2 17.6c2.8 0 5.5-.4 8.1-1.1l2 1.7zm65.5 0v-16.4h40.9V226h2.6v-16.4h40.9V226h2.7v-17.7c0-.7-.6-1.3-1.3-1.3h-87c-.7 0-1.3.6-1.3 1.3V226h2.5zm371.2 0v-51.3H530V226h2.7v-51.3h40.9V226h2.6v-52.6c0-.7-.6-1.3-1.3-1.3h-87c-.7 0-1.3.6-1.3 1.3V226h2.5zm197.7-1.7l1.7 1.7h3.8l-4.2-4.2c-.3-.2-.6-.4-1-.4-.1 0-.3 0-.4.1-2.6.8-5.3 1.2-8.1 1.2-11.3 0-20.5-6.8-20.5-15s9.2-15 20.5-15 20.5 6.7 20.5 15c0 3.8-2 7.4-5.5 10.1-.3.3-.5.7-.5 1.1v7.1h2.6v-6.4c3.6-2.9 5.8-7.2 5.9-11.8 0-9.7-10.4-17.6-23.2-17.6s-23.2 7.9-23.2 17.6 10.4 17.6 23.2 17.6c3 0 5.8-.4 8.4-1.1z"/></g></g></svg>