<svg id="Layer_1" xmlns="http://www.w3.org/2000/svg" viewBox="0 0 1920 652"><style>.st0{fill:#f0fbff}.st1{fill:#fff}.st2{fill:#d1d2d3}.st3{fill:#82c8f3}.st4{fill:#3196df}.st5{fill:#62bf7c}.st6{fill:#5db888}.st7{fill:#6bd49c}.st8{fill:#66cc86}.st9{fill:#2c87bf}.st10{opacity:.1;enable-background:new}.st11{fill:#fcc690}.st12{fill:#e09e5e}.st13{fill:#4a4342}.st14{fill:#fdc88b}.st15{fill:#4f9964}.st16{fill:#fdc78b}.st17{fill:#00233f}.st18{fill:#e26a3e}.st19{fill:#27384c}.st20{fill:#003263}.st21{fill:#3a5273}.st22{fill:#bdbdbd}.st23{fill:#3294b6}.st24{opacity:.81;fill:#e0f6ff;enable-background:new}.st25{fill:#cce3ed}.st26{fill:#555d66}.st27{fill:#41474c}.st28{fill:#85949d}.st29{fill:#1d2930}.st30{fill:#cc7c3a}.st31{fill:#75b7d8}.st32{fill:#7fd3f0}.st33{fill:#d94760}.st34{fill:#f49742}.st35{fill:#fed4a3}.st36{fill:#f38498}.st37{fill:#f4f4f4}.st38{fill:#fbad18}.st39{fill:#86b8bd}.st40{fill:#f1f0f0}.st41{fill:#7cc2e5}</style><title>hero</title><path class="st0" d="M0 518.9V652h1920V518.9z"/><path class="st1" d="M0 181h161.8v8.4H0z"/><path class="st2" d="M0 189.4h150l-150 30z"/><path class="st1" d="M0 291.4h118v7.5H0z"/><path class="st2" d="M0 327.3V299h101.6z"/><path class="st3" d="M1460.5 17.1c-23.6 0-42.8 19.5-42.8 43.5s19.2 43.5 42.8 43.5 42.8-19.5 42.8-43.5-19.2-43.5-42.8-43.5zm0 83.3c-21.6 0-39.1-17.8-39.1-39.8s17.5-39.8 39.1-39.8 39.1 17.8 39.1 39.8-17.5 39.8-39.1 39.8z"/><path class="st4" d="M292.9 522.1h68.7v19h-68.7z"/><path class="st5" d="M318.7 511.1c-10.4-11.4-29.3-33.8-37-47.3l15-4c-6.2-.7-18.3-3.4-18.2-3-1.5-4.4-2.7-8.9-3.6-13.5 0 0 6-2.3 8.6-3 0 0-7.3-3.5-9.9-4.6-1.7-5.9-3-12-3.8-18.1l.2.4c8.3 7.4 30.6 10.9 48.2 83.4l.5 9.7z"/><path class="st6" d="M320.4 522.6c-.3 0-.5-.2-.5-.4-12.3-69.2-32.2-90.6-48.2-101.6-.3-.1-.3-.5-.2-.7.1-.3.5-.3.7-.2 0 0 .1 0 .1.1 7.1 4.9 16.4 12.5 25.4 28.5 10 17.7 17.6 41.8 23.3 73.7 0 .3-.1.5-.4.6h-.2z"/><path class="st5" d="M328.5 437.9c4.3-9 13.2-28.9 15.9-38.6 1.5-5.5 2.8-11.3 1.9-17l-.1-1.5c-1.7-.8-3.4-1.4-5.2-1.9l.7-1.5 8.3-2.6-.6 1.1c5-8.2 8.8-17 11.2-26.2l-.9-.8c-2.8-.3-5.5-.5-8.3-.5l2.1-1.2c2-2.1 5.4-2.7 6.8-5.3.6-1.3.9-2.8.9-4.2l.6-12.4h-.3c-18.9 16.5-34.4 43.8-40.2 68.6l7.2 44z"/><path class="st7" d="M328 440c7.8-18.7 16.9-40.4 31.9-53.8-.1 9.9-2.6 34-2.6 34l-6.8 2.4 5.5 5.3-14.7 45.9-2.5 5.5-5.2 2.3 1.5 4.3s-11.4 8.8-12.9 14.9c-.7-18.1.8-36.3 4.6-54l1.2-6.8z"/><path class="st6" d="M326.9 522.3c-.3 0-.5-.2-.5-.5-.4-12.4 1.8-24.8 3.8-36.7 5.1-30.1 11.8-62 25.3-92 .1-.2.5-.3.7-.2.2.1.3.4.2.6-13.5 29.9-20.1 61.7-25.3 91.7-2 11.9-4.1 24.2-3.8 36.5.1.3-.2.5-.4.6z"/><path class="st8" d="M321.6 496.3c-17.3-19.6-28-44.3-30.4-70.4 4.9-.6 9.8 0 14.4 1.6-3-6-11-8.3-13.3-14.6-.7-2.3-.9-4.8-.7-7.2.2-5.8.6-11.5 1.1-17.3l13.3 4.3c-4.6-1.6-7.9-6-9.3-10.8s-1.5-9.9-1.2-14.9c.4-8.1 1.2-16.1 2.5-24.1v.5c16.1 18.5 24.1 43.1 28.5 67.6 5.3 29.1 3.9 59.1-4.3 87.5l-.6-2.2z"/><path class="st6" d="M322.5 523l-2-46.6c-.3-7.5-.7-15.2-1.2-22.8-2.3-32-8.2-63.5-17.7-94.1l1-.3c9.5 30.7 15.5 62.3 17.8 94.4.5 7.6.9 15.3 1.2 22.8l2 46.6h-1.1z"/><path class="st8" d="M385.8 390.3c-7.3 5.5-30.4 29.8-30.4 29.8l3.8 6.8-6.4-1.2-7.7 36.1s-3.4-7.6-4.2-11.7c-3.5 15.9-4.5 32.2-3 48.3l.6.1c11.7-8.8 27.9-33.9 27.9-33.9l-9.7-5.6 13.9-5.4 10.6-27.7-6-1.8 9.8-7.8.8-26z"/><path class="st6" d="M331.6 524.2h-.1c-.3-.1-.5-.3-.4-.6 8.6-42.6 25.9-85.6 51.3-128 .2-.2.5-.3.7-.1.2.1.3.4.2.6-25.4 42.2-42.6 85.2-51.2 127.7 0 .2-.2.4-.5.4z"/><path class="st4" d="M298.5 540.8l4 40.3h48.1l5.3-40.3h-.3z"/><path class="st9" d="M298.5 540.8l.8 8.4 56.3-8.4z"/><ellipse class="st10" cx="1581.1" cy="596" rx="47" ry="6.6"/><path class="st11" d="M1497.1 267.6l-2.2-8-10-6.5-.9 1.9-2.3-1.2-2.4 2.6-1 11c-.1 1.1.5 2.1 1.5 2.5l9.3 4.4 3.3 2.9 7.3-7.2-2.6-2.4z"/><path class="st11" d="M1479.8 257.3l-5.5-4.7c-1.2-1-1.5-2.8-.7-4.2.3-.5.9-.6 1.4-.3 0 0 .1 0 .1.1l9.3 7m-.5-.3l-.5 2"/><path class="st12" d="M1491.9 269.6c-1.5-.9-2.9-2-4-3.5-.3-.4-.5-.8-.7-1.2-.1-.2-.1-.5-.1-.7s0-.5.1-.7c.3-.8.7-1.6 1.1-2.4l.1.3c-1-.8-1.9-1.5-2.8-2.4-.5-.4-.9-.9-1.3-1.3-.2-.2-.4-.4-.6-.7-.2-.2-.4-.5-.5-.8v-.2l.9-1.2h.1v.1l-.7 1.4v-.2c.3.5.6 1 1.1 1.4.4.4.8.9 1.3 1.3.9.8 1.8 1.6 2.8 2.3.1.1.1.2.1.3-.4.8-.8 1.5-1.1 2.3-.2.8 0 1.6.6 2.2 1.1 1.4 2.4 2.5 3.9 3.3.1.1.1.2 0 .3-.2.1-.3.1-.3.1z"/><path class="st12" d="M1479.2 257c2.1 1.5 4.4 2.7 6.6 4l1.4.8c.1 0 .3.1.3.2-.1.4-.2.8-.4 1.2-1 2.9-1.9 5.7-4.5 7.5-.1 0-.1.1 0 .2 0 .1.1.1.2 0 2.5-1.3 3.5-4.2 4.4-6.7l.4-1.2c.1-.2.3-.7.3-.9s0-.1-.1-.3c-.3-.2-.6-.5-1-.6l-4.4-2.6c-1.1-.7-2.1-1.3-3.2-1.6z"/><path class="st13" d="M1565.8 243.4h57.7l.1-65.7c0-15.6-12.6-28.2-28.2-28.2h-1.3c-15.6 0-28.2 12.6-28.2 28.2l-.1 65.7z"/><path class="st5" d="M1548.6 320.3c-5.6 0-10.2-4.6-10.2-10.2 0-1.2.2-2.3.6-3.5l21.3-59c1.9-5.3 7.7-8 13-6.1s8 7.7 6.1 13l-21.3 59c-1.4 4.1-5.3 6.8-9.5 6.8z"/><path class="st14" d="M1538.3 319.4l-47.2-43.3 6.6-7.7 50.1 39.9z"/><path class="st15" d="M1556.1 317.4l-15-20.8-3.2 3.9v20s10.7 3.6 18.2-3.1z"/><path class="st8" d="M1570.5 240.9h51.1c5.7.1 9.6 6.4 7.3 11.6l-30 69.2h-44.2l-1.4-37s-9-1.9-7.5-12.4 24.7-31.4 24.7-31.4z"/><path class="st8" d="M1664.3 307.3c-2.8 0-5.6-1.2-7.5-3.3l-41.8-45.1c-3.9-4-3.9-10.5.1-14.4s10.5-3.9 14.4.1l.4.4 41.8 45.1c3.8 4.1 3.6 10.6-.5 14.4-1.9 1.8-4.3 2.8-6.9 2.8z"/><path class="st14" d="M1668.6 308l-58.9 25-4.3-9.2 57.1-29.1z"/><path class="st16" d="M1600.1 240.9l-25.7 16.1 4.5-16.1v-25.1h21.2z"/><path class="st10" d="M1591 215.6l-12.1 8.4v-8.4z"/><path class="st16" d="M1581 215.8h25.9v-40.4c0-10.1-8.2-18.3-18.3-18.3h-8.3c-9.9 0-18 8.1-18 18v22c-.1 10.3 8.3 18.7 18.7 18.7z"/><path class="st17" d="M1564.1 186.9c-.9 0-1.6-.7-1.6-1.6v-.7c0-.9.7-1.6 1.6-1.6.9 0 1.6.7 1.6 1.6v.7c.1.9-.7 1.6-1.6 1.6zm15.9 0c-.9 0-1.6-.7-1.6-1.6v-.7c0-.9.7-1.6 1.6-1.6.9 0 1.6.7 1.6 1.6v.7c0 .9-.7 1.6-1.6 1.6z"/><path class="st13" d="M1589.8 145.4c18.6 0 33.7 15.1 33.7 33.6v60.6c0 13.4-13.3 24.3-26.8 24.3v-82.8c-11.6-2-26.3-7.9-36.7-17.6 1.4-2.4 3-4.7 4.8-6.9 6.3-7.2 15.5-11.3 25-11.2z"/><path class="st1" d="M1580.3 198.2c-.9 4-4.9 6.5-8.9 5.6-2.8-.6-5-2.8-5.6-5.6h14.5z"/><path class="st12" d="M1570 193.6h-.2c-1 .1-2.1-.4-2.6-1.3-.3-.6-.3-1.3 0-1.9.2-.5.5-.9.8-1.3l.1-.1c1.6-2.2 2.8-4.7 3.4-7.4.1-.3.3-.5.6-.4.3.1.5.3.4.6-.6 2.8-1.8 5.5-3.5 7.8l-.1.2c-.3.3-.5.6-.7 1-.2.3-.2.7 0 1.1.3.6 1.2.7 1.7.7.9 0 1.8-.1 2.7-.4.3-.1.6.1.7.3s-.1.6-.3.7c-1 .3-2 .4-3 .4z"/><path class="st18" d="M1564.6 189.1c-6.1 0-9.1-5.4-10.1-7.7-.3-.8-.3-1.6.2-2.4.3-.5.8-.8 1.3-.8h14.5c.4 0 .7.3.7.7 0 .2.1 5.6-2.7 8.4-1 1.2-2.4 1.8-3.9 1.8zm-8.6-9.3s-.1 0-.1.1c-.2.3-.2.7-.1 1 .9 2 3.4 6.8 8.7 6.8 1.1 0 2.2-.4 3-1.2 1.8-1.8 2.2-5.2 2.2-6.7H1556z"/><path class="st18" d="M1570.9 180.4c-.3 0-.5-.2-.5-.5 0-.1 0-.2.1-.3.4-.5.9-.9 1.5-1 .9-.2 1.8.1 2.5.7.2.2.2.5 0 .7s-.4.2-.6 0c-.4-.4-1-.6-1.6-.5-.4.1-.7.3-.9.6-.2.2-.3.3-.5.3z"/><path class="st18" d="M1581.8 189.2c-2.1.1-4-.7-5.5-2.2-2.9-2.9-2.8-7.8-2.8-8 0-.4.4-.8.8-.8h18.1c.7 0 1.4.4 1.7 1 .4.7.4 1.6.1 2.3-2.3 4.7-7.1 7.7-12.4 7.7zm-6.6-9.4c.1 1.4.5 4.2 2.3 6.1 1.1 1.1 2.7 1.7 4.3 1.7 4.7 0 8.9-2.6 11-6.8.1-.2.1-.5 0-.7-.1-.1-.2-.2-.3-.2h-17.3v-.1z"/><path class="st17" d="M1561 175.9c-.5 0-.8-.4-.8-.9 0-.4.3-.7.7-.8l9.5-1.9c.5 0 .9.3.9.8 0 .4-.2.8-.6.9l-9.5 1.9h-.2zm31 0l-13.3-1.9c-.5 0-.8-.5-.8-.9 0-.5.5-.8.9-.8h.1l13.1 1.9c.5.1.8.5.7 1 0 .4-.3.7-.7.7z"/><path class="st19" d="M1554.7 321.7h44.8v6.8h-45z"/><path class="st16" d="M1595 573.9l-10.8-110.5 20-2-2.7 110.1zm-10-2.4l-2.9-109-19.7 1.2 16.1 110.2z"/><path class="st16" d="M1563.4 592.8l15-18.9 6.5-2.4 1.2 2.5-14.8 20.5-9-.8z"/><path class="st20" d="M1586.4 574l1.4 2.7c.9 1.7.6 3.7-.6 5.1l-1.4 1.7-1.6 11.5h-1.5s-.6-10.6-.7-10.5-7.9 4.6-8.8 13.1l-18.1 1.9v-1.3l8.2-5.2s6.7 0 7.5-.7c1.3-1.1 9.5-15.7 10.5-16.2 1.7-.9 3.4-1.6 5.1-2.1z"/><path class="st16" d="M1580 592.8l15-18.9 6.5-2.4 1.2 2.5-14.8 20.5-9-.8z"/><path class="st20" d="M1603 574l1.4 2.7c.9 1.7.6 3.7-.6 5.1l-1.4 1.7-1.6 11.5h-1.5s-.6-10.6-.7-10.5-7.9 4.6-8.8 13.1l-18.1 1.9v-1.3l8.2-5.2s6.7 0 7.5-.7c1.3-1.1 9.5-15.7 10.5-16.2 1.7-.9 3.4-1.6 5.1-2.1z"/><path class="st21" d="M1554.5 328.4l-8.2 23.9c-2.8 8.3-3.5 17.1-2 25.8l15.9 89.2 46.1.6 11.8-85.2c1.5-10.8-.5-21.8-5.6-31.4l-13.8-22.8-44.2-.1z"/><path class="st14" d="M1606 323.9l-6.9-5.5-12.8-.8c-.3 0-.6.2-.6.5v.1l.1 1c0 .3.2.5.5.5l1.4.1-1.7.3c-.3 0-.4.3-.4.6.2.8.6 2.5.8 3.4.1.4.3.9.6 1.2.4.3.9.6 1.4.7 3.4.9 7.3 1.9 10.2 3 .7 2.4 1 3.3 3.1 4.7 1.9 1.3 6.3 1 7.9-.7"/><path class="st15" d="M1674.2 290.9l-25.2 5 2.2 4.5 18.2 8.3s7.8-8.2 4.8-17.8z"/><path class="st21" d="M1568.2 282.9c2.5.1 5 .5 7.5 1.1 1.9.5 3.8 1.1 5.8 1.7 3.5 1.1 7 1.8 10.6.6 2.6-.8 4.9-2.2 6.9-4.1.2-.1-.1-.4-.2-.2-2.4 2.2-5.3 3.8-8.5 4.4-2.2.4-4.5.2-6.7-.4-2.3-.6-4.5-1.4-6.7-2-3-.7-5.8-1.1-8.7-1.1z"/><path class="st22" d="M1552.9 590h-56.3c-.5 0-.9-.4-.9-.9s.4-.9.9-.9h56.3c.5 0 .9.4.9.9s-.4.9-.9.9zm39.8 51.1h-63.4c-.5 0-.9-.4-.9-.9s.4-.9.9-.9h63.4c.5 0 .9.4.9.9s-.4.9-.9.9z"/><path class="st23" d="M1516.4 589.1h-7.7L1471.3 381h7.7z"/><path class="st24" d="M1540.7 439.1h-365.8c-1.8 0-2.9-1.9-2-3.5l38.2-65.4c.4-.7 1.2-1.1 2-1.1h286.6l41 70z"/><path class="st23" d="M1551.2 640.2h-7.8l-34.7-196.5h7.7z"/><path class="st25" d="M1173.1 439.1h367.5v4.6h-367.5c-1.3 0-2.3-1-2.3-2.3 0-1.3 1.1-2.3 2.3-2.3z"/><path class="st26" d="M1352.3 383l88.7-.2 42 25.7h-84.7z"/><path class="st27" d="M1488.4 415.6v-.2c0-3.8-3.2-6.9-7-6.9h-83.1v7.1h90.1z"/><path class="st28" d="M1398.3 415.6v-7.1l-46-25.5v3.6c0 1.4 1.5 2.2 3.6 3.7l42.4 25.3z"/><path class="st29" d="M1368.2 346.3l23.4 62.1h6.7l-20.4-55.6c-1.6-3.9-5.5-6.4-9.7-6.5z"/><path id="_Path_" class="st27" d="M1374.5 343.8l-32.7-24.5c-.9-.4-1.9-.6-2.9-.5-2.5.3-6.2 1.1-7.5 2.9l27 58.7 39.7 27.6-23.6-64.2z"/><path id="_Path_2" class="st2" d="M1368.4 346.3l-34.9-25.5c-1.6 0-2.8 1.3-2.8 2.9 0 .3.1.7.2 1l21.5 58.3 39.2 25.5-23.2-62.2z"/><ellipse transform="rotate(-18.612 1359.221 369.253)" class="st1" cx="1359.2" cy="369.3" rx="2.7" ry="5.3"/><path class="st3" d="M1447.7 78.4l8.4-8.4 4.1-4.1.3-.3V39c0-.4.4-.8.8-.8.5 0 .8.4.8.8v27.3c0 .1-.1.1-.1.2v.1l-13 13c-.3.3-.8.3-1.1 0-.5-.3-.5-.9-.2-1.2z"/><path class="st30" d="M0 95.8v14.9L23.5 181h5.1L0 95.8z"/><path class="st31" d="M26 106.1l-1.8 7L47 180.9h4l-25-74.8z"/><path class="st3" d="M26 106.1l5.8-2 25.1 74.8-5.8 2L26 106.1z"/><path class="st32" d="M27 109.1l5.8-2 1 3.1-5.8 2-1-3.1zm1.1 3.4l5.8-2 1 3.1-5.8 2-1-3.1zM49.4 176l5.8-2 1 3.1-5.8 2-1-3.1z"/><path class="st33" d="M18.1 116.1l10.4 64.8h11.3l-21.7-64.8z"/><path class="st34" d="M0 95.8l10-3.4 28.6 85.2-10 3.4L0 95.8z"/><path class="st35" d="M10.5 101.8c.5 1.4-.3 3-1.7 3.5s-3-.3-3.5-1.7.3-3 1.7-3.5 3.1.3 3.5 1.7z"/><path class="st1" d="M8.1 111.9l5.2-1.7 21.6 64.4-5.2 1.7-21.6-64.4z"/><path class="st36" d="M18.2 116.1l10-3.4 21.7 64.8-10 3.4-21.7-64.8z"/><path class="st1" d="M23.5 120.7l3.1-1 17.8 53.2-3.1 1-17.8-53.2z"/><path class="st37" d="M49.1 125L66 175.8l-7.6 2.5-16.9-50.8c-.7-2.1.4-4.3 2.5-5 2.1-.7 4.4.4 5.1 2.5z"/><path class="st38" d="M50.6 124.2l17.6 53.2-1.5.5-17.6-53c-.7-2.1-2.9-3.2-5-2.5-2.1.7-3.2 2.9-2.5 5l17.6 53-1.5.5-17.6-53.2c-1-2.9.6-6.1 3.6-7.1 2.7-.9 5.9.7 6.9 3.6z"/><path class="st36" d="M155.5 158.3H80.4v-2.2h74.8c2.9 0 5.3-2.4 5.3-5.3s-2.4-5.3-5.3-5.3H80.4v-2.2h75.2c4.1 0 7.5 3.4 7.5 7.5 0 4.2-3.4 7.5-7.6 7.5z"/><path class="st37" d="M72.4 140.7h67.7v-12.5H72.4c-3.4 0-6.3 2.8-6.3 6.3.1 3.4 2.9 6.2 6.3 6.2z"/><path class="st8" d="M72.1 143.3h71.6v-2.6H72.4c-3.4 0-6.3-2.8-6.3-6.3 0-3.4 2.8-6.3 6.3-6.3h71.3v-2.6H72.1c-4.9 0-8.8 4-8.8 8.8-.1 5 3.9 9 8.8 9z"/><path class="st37" d="M155.2 156.2H83.4v-10.7h71.8c2.9 0 5.3 2.4 5.3 5.3.1 3-2.3 5.4-5.3 5.4zm-18.8 3.8H70.1v8h66.3c2.2 0 4-1.8 4-4s-1.8-4-4-4z"/><path class="st8" d="M136.6 158.3H67.9v1.6h68.5c2.2 0 4 1.8 4 4s-1.8 4-4 4H67.9v1.6h68.8c3.1 0 5.7-2.5 5.7-5.7-.1-2.9-2.7-5.5-5.8-5.5z"/><path class="st37" d="M140 171.3H73.7v8H140c2.2 0 4-1.8 4-4s-1.8-4-4-4z"/><path class="st39" d="M140.2 169.7H71.4v1.6h68.5c2.2 0 4 1.8 4 4s-1.8 4-4 4H71.4v1.6h68.8c3.1 0 5.7-2.5 5.7-5.7-.1-3-2.6-5.5-5.7-5.5z"/><path class="st34" d="M145.3 150h-11.9v12.3l5.9-3.5 5.9 3.5V150h.1z"/><path class="st8" d="M11.7 234.5h16.9V291H11.7v-56.5z"/><path class="st1" d="M11.7 278.4h16.9v2.9H11.7v-2.9zm0-37.5h16.9v2.9H11.7v-2.9z"/><path class="st40" d="M34.8 291h-6.2l.1-69.3h6.2l-.1 69.3z"/><path class="st37" d="M33.3 270.6h-3.1l.1-29.1h3.1l-.1 29.1z"/><path class="st41" d="M33.3 270.6h-1.5l.1-29.1h1.5l-.1 29.1z"/><path class="st3" d="M41 291h-6.2l.1-69.3h6.2L41 291z"/><path class="st37" d="M39.5 270.6h-3.1l.1-29.1h3.1l-.1 29.1z"/><path class="st41" d="M37.9 270.6l.1-29.1h1.5l-.1 29.1h-1.5z"/><path class="st3" d="M55.8 219.6h17.6v71.8H55.8v-71.8z"/><path class="st37" d="M55.8 248.1h17.6v22.2H55.8v-22.2z"/><path class="st8" d="M55.8 275.3h17.6v3.7H55.8v-3.7z"/><path class="st34" d="M48 291.4l-6.3-.6 7.8-71.4 6.4.6-7.9 71.4z"/><path class="st37" d="M48.7 270.2l-3.2-.3 3.3-30 3.2.3-3.3 30z"/><path class="st41" d="M48.7 270.2l-1.6-.2 3.3-30 1.6.2-3.3 30z"/><path class="st39" d="M73.7 227.1h13.2v64.3H73.7v-64.3z"/><path class="st34" d="M73.7 277h13.2v3.3H73.7V277zm0-38.9h13.2v3.4H73.7v-3.4z"/><path class="st40" d="M73.7 254.4h13.2v9.7H73.7v-9.7z"/></svg>