<svg id="Layer_1" xmlns="http://www.w3.org/2000/svg" viewBox="0 0 213.9 200"><style>.st0{opacity:.5;fill:#eafaff;enable-background:new}.st1{opacity:.1}.st2{fill:#463e3b}.st3{fill:none;stroke:#fff;stroke-width:3;stroke-miterlimit:10}.st4{fill:#fff}.st5{fill:#28567f}.st6{fill:#e6f4ff}.st7{fill:#ceeaff}.st8{fill:#31679f}</style><title>how02</title><g id="Layer_2"><g id="Layer_1-2"><g id="Layer_2-2"><g id="Layer_1-2-2"><path class="st0" d="M213.9 100.2c0-23.5-17.5-43.2-41.1-48.3-15.3-15.7-36.3-24.5-58.2-24.3-27.3 0-51.2 13.1-65.1 32.8-22.8 6.9-39.2 26.8-39.2 50.3s16.4 43.3 39 50.3c3.2 20.6 22.2 36.4 45.2 36.4 16 .2 30.9-7.8 39.5-21.2 7.1 3.8 15 5.7 23 5.7 25.4 0 45.9-19.1 45.9-42.8 0-2.6-.3-5.2-.8-7.8 7.5-8.8 11.7-19.8 11.8-31.1z"/><g class="st1"><path class="st2" d="M173.6 59.2H148V46.1h25.6v13.1zm-24.5-1h23.4v-11h-23.4v11z"/><path class="st2" d="M192 72h-25.6V58.9H192V72zm-24.5-1h23.4V60h-23.4v11z"/></g><g class="st1"><path class="st2" d="M91.9 189.1H66.3v-11.4h25.6v11.4zM67.5 188h23.4v-9.2H67.5v9.2z"/><path class="st2" d="M110.3 200H84.7v-11.4h25.6V200zm-24.5-1.1h23.4v-9.3H85.8v9.3z"/></g><g class="st1"><path class="st2" d="M25.6 113.4H0v-12h25.6v12zm-24.5-1.1h23.4v-10H1.1v10z"/><path class="st2" d="M43.9 125.1H18.3V113h25.6v12.1zm-24.5-1h23.4v-10H19.4v10z"/></g><path class="st4" d="M158.7 1.6l-.2 50.7c0 7.6-6.2 13.7-13.8 13.7h-11.2c-7.6 0-13.7-6.2-13.7-13.8 0-4.7-3.7-8.5-8.4-8.5h-17c-4.6 0-8.4 3.7-8.5 8.3l-.1 18.5h-5.3l.1-18.5c.1-7.6 6.2-13.7 13.8-13.7h16.9c7.6 0 13.8 6.1 13.8 13.7v.1c0 4.7 3.7 8.5 8.4 8.5h11.3c4.7 0 8.5-3.7 8.5-8.4l.1-52.2c1.8.5 3.6 1 5.3 1.6z"/><path class="st5" d="M88.7 77H77.8l1.8-6.9h7.3z"/><path class="st6" d="M40 157l.3-77.3c0-1.6 1.3-2.9 2.9-2.9l163.1.7c1.6 0 2.9 1.3 2.9 2.9l-.3 77.3c0 1.6-1.3 2.9-2.9 2.9l-163.1-.7c-1.7-.1-3-1.4-2.9-2.9z"/><path class="st7" d="M208.5 152.1c0 2.3-1.9 4.1-4.1 4.1l-160.6-.6c-2.2 0-4-1.8-4.1-4v4.6c0 2.3-1 4.1 1.3 4.1l165.4.6c2.3 0 2.2-1.8 2.3-4.1L209 82v-.2l-.5 70.3z"/><path class="st4" d="M209.1 82.4v-2.1c0-1.1-.9-1.9-1.9-1.9l-164.9-.7c-1.1 0-2 .8-2 1.8v2.8l168.8.1z"/><path class="st8" d="M205.4 162.6L42.3 162c-2.4 0-4.3-1.9-4.3-4.3l.3-77.4c0-2.4 1.9-4.3 4.2-4.3l163.1.7c2.4 0 4.3 1.9 4.2 4.3v.1l-.3 77.3c.2 2.3-1.7 4.2-4.1 4.2zm0-2.8c.8 0 1.4-.6 1.4-1.4l.3-77.3c0-.8-.6-1.4-1.4-1.4l-163-.8c-.8 0-1.4.6-1.4 1.4l-.3 77.3c0 .8.7 1.4 1.4 1.4l163 .8z"/><g id="_05"><path id="button" class="st4" d="M68.4 147.8H65c-1.9 0-3.4-1.5-3.4-3.4v-1.7c0-1.9 1.5-3.4 3.4-3.4h3.4c1.9 0 3.4 1.5 3.4 3.4v1.7c.1 1.8-1.5 3.4-3.4 3.4z"/><path id="button-2" class="st4" d="M82.2 147.8h-3.4c-1.9 0-3.4-1.6-3.4-3.5v-1.7c0-1.9 1.5-3.4 3.4-3.4h3.4c1.9 0 3.4 1.5 3.4 3.4v1.7c.1 1.9-1.5 3.5-3.4 3.5z"/><path id="button-3" class="st4" d="M164.9 147.8h-3.4c-1.9 0-3.4-1.5-3.4-3.4v-1.7c0-1.9 1.5-3.4 3.4-3.4h3.4c1.9 0 3.4 1.5 3.4 3.4v1.7c.1 1.8-1.5 3.4-3.4 3.4z"/><path id="button-4" class="st4" d="M178.7 147.8h-3.4c-1.9 0-3.4-1.5-3.4-3.4v-1.7c0-1.9 1.5-3.4 3.4-3.4h3.4c1.9 0 3.4 1.5 3.4 3.4v1.7c0 1.8-1.5 3.4-3.4 3.4z"/><path id="button-5" class="st4" d="M151.1 147.8H92.6c-1.9 0-3.4-1.5-3.4-3.4v-1.7c0-1.9 1.5-3.4 3.4-3.4h58.6c1.9 0 3.4 1.5 3.4 3.4v1.7c0 1.8-1.6 3.4-3.5 3.4z"/></g><g id="_04"><path id="button-6" class="st4" d="M96 135.7h-3.4c-1.9 0-3.5-1.5-3.5-3.5v-1.7c0-1.9 1.5-3.4 3.4-3.4H96c1.9 0 3.4 1.5 3.4 3.4v1.7c0 2-1.5 3.5-3.4 3.5z"/><path id="button-7" class="st4" d="M109.8 135.7h-3.4c-1.9 0-3.5-1.5-3.5-3.5v-1.7c0-1.9 1.5-3.4 3.4-3.4h3.5c1.9 0 3.4 1.5 3.4 3.4v1.7c0 2-1.5 3.5-3.4 3.5z"/><path id="button-8" class="st4" d="M123.6 135.7h-3.4c-1.9 0-3.5-1.5-3.5-3.4v-1.8c0-1.9 1.5-3.4 3.4-3.4h3.4c1.9 0 3.4 1.5 3.4 3.4v1.7c0 1.9-1.5 3.4-3.3 3.5z"/><path id="button-9" class="st4" d="M137.3 135.7h-3.4c-1.9 0-3.4-1.6-3.4-3.5v-1.7c0-1.9 1.5-3.4 3.4-3.4h3.4c1.9 0 3.4 1.5 3.4 3.4v1.7c.1 1.9-1.5 3.5-3.4 3.5z"/><path id="button-10" class="st4" d="M151.1 135.7h-3.4c-1.9 0-3.4-1.6-3.4-3.5v-1.7c0-1.9 1.5-3.4 3.4-3.4h3.4c1.9 0 3.4 1.5 3.4 3.4v1.7c.1 1.9-1.5 3.5-3.4 3.5z"/><path id="button-11" class="st4" d="M178.7 135.7h-17.2c-1.9 0-3.4-1.6-3.4-3.5v-1.7c0-1.9 1.5-3.4 3.4-3.4h17.2c1.9 0 3.4 1.5 3.4 3.4v1.7c0 1.9-1.5 3.5-3.4 3.5z"/><path id="button-12" class="st4" d="M82.2 135.7H65c-1.9 0-3.4-1.6-3.4-3.5v-1.7c0-1.9 1.5-3.4 3.4-3.4h17.2c1.9 0 3.4 1.5 3.4 3.4v1.7c.1 2-1.5 3.5-3.4 3.5z"/></g><g id="_03"><path id="button-13" class="st4" d="M68.4 123.7H65c-1.9 0-3.4-1.5-3.4-3.4v-1.8c0-1.9 1.5-3.5 3.4-3.5h3.4c1.9 0 3.4 1.5 3.4 3.4v1.7c.1 2-1.4 3.5-3.4 3.6z"/><path id="button-14" class="st4" d="M82.2 123.7h-3.4c-1.9 0-3.4-1.6-3.4-3.5v-1.7c0-1.9 1.5-3.5 3.4-3.5h3.4c1.9 0 3.4 1.5 3.4 3.4v1.7c.1 2-1.4 3.5-3.4 3.6z"/><path id="button-15" class="st4" d="M96 123.7h-3.4c-1.9 0-3.4-1.5-3.4-3.4v-1.8c0-1.9 1.5-3.5 3.4-3.5H96c1.9 0 3.4 1.5 3.4 3.4v1.7c.1 2-1.5 3.5-3.4 3.6z"/><path id="button-16" class="st4" d="M109.8 123.7h-3.4c-1.9 0-3.4-1.5-3.4-3.4v-1.8c0-1.9 1.5-3.4 3.4-3.4h3.4c1.9 0 3.4 1.5 3.4 3.4v1.7c0 1.9-1.5 3.5-3.4 3.5z"/><path id="button-17" class="st4" d="M123.6 123.7h-3.4c-1.9 0-3.5-1.5-3.5-3.4v-1.8c0-1.9 1.5-3.4 3.4-3.5h3.4c1.9 0 3.4 1.5 3.4 3.4v1.7c0 2-1.5 3.5-3.3 3.6z"/><path id="button-18" class="st4" d="M137.3 123.7h-3.4c-1.9 0-3.4-1.5-3.4-3.4v-1.8c0-1.9 1.5-3.4 3.4-3.4h3.4c1.9 0 3.4 1.5 3.4 3.4v1.7c.1 1.9-1.4 3.5-3.4 3.5z"/><path id="button-19" class="st4" d="M151.1 123.7h-3.4c-1.9 0-3.4-1.5-3.4-3.4v-1.8c0-1.9 1.5-3.4 3.4-3.4h3.4c1.9 0 3.4 1.5 3.4 3.4v1.7c.1 1.9-1.4 3.5-3.4 3.5z"/><path id="button-20" class="st4" d="M164.9 123.7h-3.4c-1.9 0-3.4-1.5-3.4-3.4v-1.8c0-1.9 1.5-3.4 3.4-3.4h3.4c1.9 0 3.4 1.5 3.4 3.4v1.7c.1 1.9-1.4 3.5-3.4 3.5z"/><path id="button-21" class="st4" d="M178.7 123.7h-3.4c-1.9 0-3.4-1.5-3.4-3.4v-1.8c0-1.9 1.5-3.4 3.4-3.4h3.4c1.9 0 3.4 1.5 3.4 3.4v1.7c0 1.9-1.5 3.5-3.4 3.5z"/></g><g id="_02"><path id="button-22" class="st4" d="M68.4 111.6H65c-1.9 0-3.4-1.5-3.4-3.4v-1.7c0-1.9 1.5-3.4 3.4-3.4h3.4c1.9 0 3.4 1.5 3.4 3.4v1.7c.1 1.9-1.5 3.4-3.4 3.4z"/><path id="button-23" class="st4" d="M82.2 111.6h-3.4c-1.9 0-3.4-1.6-3.4-3.5v-1.7c0-1.9 1.6-3.4 3.4-3.4h3.4c1.9 0 3.4 1.5 3.4 3.4v1.7c.1 2-1.5 3.5-3.4 3.5z"/><path id="button-24" class="st4" d="M96 111.6h-3.4c-1.9 0-3.4-1.5-3.4-3.4v-1.7c0-1.9 1.5-3.4 3.4-3.4H96c1.9 0 3.4 1.5 3.4 3.4v1.7c0 1.9-1.5 3.4-3.4 3.4z"/><path id="button-25" class="st4" d="M109.8 111.6h-3.4c-1.9 0-3.4-1.5-3.4-3.4v-1.7c0-1.9 1.5-3.4 3.4-3.4h3.4c1.9 0 3.4 1.5 3.4 3.4v1.7c0 1.8-1.5 3.4-3.4 3.4z"/><path id="button-26" class="st4" d="M123.6 111.6h-3.4c-1.9 0-3.5-1.5-3.5-3.4v-1.8c0-1.9 1.5-3.4 3.4-3.4h3.4c1.9 0 3.4 1.5 3.4 3.4v1.7c0 1.9-1.5 3.4-3.3 3.5z"/><path id="button-27" class="st4" d="M137.3 111.6h-3.4c-1.9 0-3.4-1.5-3.4-3.4v-1.7c0-1.9 1.5-3.4 3.4-3.4h3.4c1.9 0 3.4 1.5 3.4 3.4v1.7c.1 1.8-1.5 3.4-3.4 3.4z"/><path id="button-28" class="st4" d="M151.1 111.6h-3.4c-1.9 0-3.4-1.5-3.4-3.4v-1.7c0-1.9 1.5-3.4 3.4-3.4h3.4c1.9 0 3.4 1.5 3.4 3.4v1.7c0 1.8-1.5 3.4-3.4 3.4z"/><path id="button-29" class="st4" d="M164.9 111.6h-3.4c-1.9 0-3.4-1.5-3.4-3.4v-1.7c0-1.9 1.5-3.4 3.4-3.4h3.4c1.9 0 3.4 1.5 3.4 3.4v1.7c.1 1.8-1.5 3.4-3.4 3.4z"/><path id="button-30" class="st4" d="M178.7 111.6h-3.4c-1.9 0-3.4-1.5-3.4-3.4v-1.7c0-1.9 1.5-3.4 3.4-3.4h3.4c1.9 0 3.4 1.5 3.4 3.4v1.7c0 1.8-1.5 3.4-3.4 3.4z"/></g><g id="_01"><path id="button-31" class="st4" d="M68.4 99.5H65c-1.9 0-3.4-1.5-3.4-3.4v-1.7c0-1.9 1.5-3.4 3.4-3.4h3.4c1.9 0 3.4 1.5 3.4 3.4v1.7c.1 1.9-1.5 3.4-3.4 3.4z"/><path id="button-32" class="st4" d="M82.2 99.5h-3.4c-1.9 0-3.4-1.6-3.4-3.5v-1.7c0-1.9 1.5-3.4 3.4-3.4h3.4c1.9 0 3.4 1.5 3.4 3.4V96c.1 2-1.5 3.5-3.4 3.5z"/><path id="button-33" class="st4" d="M96 99.5h-3.4c-1.9 0-3.4-1.5-3.4-3.4v-1.7c0-1.9 1.5-3.4 3.4-3.4H96c1.9 0 3.4 1.5 3.4 3.4v1.7c0 1.9-1.5 3.4-3.4 3.4z"/><path id="button-34" class="st4" d="M109.8 99.5h-3.4c-1.9 0-3.4-1.5-3.4-3.4v-1.7c0-1.9 1.5-3.4 3.4-3.4h3.4c1.9 0 3.4 1.5 3.4 3.4v1.7c0 1.9-1.5 3.4-3.4 3.4z"/><path id="button-35" class="st4" d="M123.6 99.5h-3.4c-1.9 0-3.5-1.5-3.5-3.4v-1.8c0-1.9 1.5-3.4 3.4-3.4h3.4c1.9 0 3.4 1.5 3.4 3.4V96c0 1.9-1.5 3.5-3.3 3.5z"/><path id="button-36" class="st4" d="M137.3 99.5h-3.4c-1.9 0-3.4-1.5-3.4-3.4v-1.7c0-1.9 1.5-3.4 3.4-3.4h3.4c1.9 0 3.4 1.5 3.4 3.4v1.7c.1 1.9-1.5 3.4-3.4 3.4z"/><path id="button-37" class="st4" d="M151.1 99.5h-3.4c-1.9 0-3.4-1.5-3.4-3.4v-1.7c0-1.9 1.5-3.4 3.4-3.4h3.4c1.9 0 3.4 1.5 3.4 3.4v1.7c.1 1.9-1.5 3.4-3.4 3.4z"/><path id="button-38" class="st4" d="M178.7 99.5h-17.2c-1.9 0-3.4-1.5-3.4-3.4v-1.7c0-1.9 1.5-3.4 3.4-3.4h17.2c1.9 0 3.4 1.5 3.4 3.4v1.7c0 1.9-1.5 3.4-3.4 3.4z"/></g></g></g></g></g></svg>