<svg id="Layer_1" xmlns="http://www.w3.org/2000/svg" viewBox="0 0 275 250"><style>.st0{opacity:.5;fill:#eafaff;enable-background:new}.st1{opacity:.1}.st2{fill:#463e3b}.st3{fill:#fff}.st4{fill:#e6f4ff}.st5{fill:none;stroke:#fff;stroke-width:3;stroke-miterlimit:10}.st6{fill:#ceeaff}.st7{fill:#ffb82a}.st8{opacity:.15;fill:#6262a0;enable-background:new}.st9{fill:#31679f}.st10{fill:#25c83a}.st11{fill:#ff5750}.st12{opacity:.15;fill:#fff;enable-background:new}.st13{fill:#3196df}</style><title>how01</title><g id="Layer_2"><g id="Layer_1-2"><g id="Layer_2-2"><g id="Layer_1-2-2"><path class="st0" d="M275 107c.1-33.8-22.9-63.1-55.5-71.3C181.8-7.6 116-12.1 72.5 25.6 65 32.1 58.4 39.9 53 48.2c-40.9 14-62.8 58.5-48.8 99.4 7.9 22.9 25.8 40.8 48.6 48.8 4.3 33.6 35 57.4 68.5 53.1 19.4-2.4 36.3-13.9 45.9-30.8 9.5 5.5 20.1 8.5 31 8.5 34.4 0 62-28.1 62-63 0-3.9-.4-7.8-1-11.5 10.3-13.2 15.8-29.2 15.8-45.7z"/><g class="st1"><path class="st2" d="M68.1 18.5H34.7V1.4h33.4v17.1zM36 17.1h30.6V2.7H36v14.4z"/><path class="st2" d="M92.1 35.2H58.7V18.1h33.4v17.1zM60 33.9h30.6V19.4H60v14.5z"/></g><g class="st1"><path class="st2" d="M100 230.6H66.7v-14.9H100v14.9zm-32-1.5h30.6V217H68v12.1z"/><path class="st2" d="M124 244.9H90.7V230h33.4c-.1-.1-.1 14.9-.1 14.9zm-32-1.4h30.6v-12.1H92v12.1z"/></g><g class="st1"><path class="st2" d="M274.9 108.4h-33.4V92.6h33.4v15.8zm-32.1-1.4h30.6V94h-30.6v13z"/><path class="st2" d="M250.9 123.5h-33.4v-15.6h33.4v15.6zm-32-1.3h30.6v-13h-30.6v13z"/></g><path class="st3" d="M228 67.1l.1 7.5c.1.6.6 1.1 1.3 1 .5 0 1-.5 1-1l-.1-7.5c-.1-.6-.6-1.1-1.3-1-.5 0-1 .4-1 1zm-4.9-12.7h6l-1.1-1.1v5.5c.1.6.6 1.1 1.3 1 .5 0 1-.5 1-1v-5.5c0-.6-.5-1.1-1.1-1.1h-6c-.6.1-1.1.6-1 1.3.1.4.4.7.9.9z"/><path class="st4" d="M22.1 33.4h217.6V211H22.1z"/><path class="st3" d="M22.7 33.1h216.9v6H22.7z"/><path class="st6" d="M22 181h217.1v31.3H22z"/><path class="st3" d="M32.1 79.9h193v117.4h-193z"/><path class="st7" d="M32.1 79.7h55.8l-7.4-11.1h-41z"/><path class="st8" d="M87.9 79.7h55.8l-7.5-11h-41z"/><path class="st9" d="M234.8 215.3H27.2c-3.9 0-7.1-3.1-7.1-7.1V38c0-3.9 3.1-7.1 7.1-7.1h207.6c3.9 0 7.1 3.1 7.1 7.1v170.1c0 3.9-3.3 7-7.1 7.2zM27.2 34.5c-1.9 0-3.5 1.6-3.5 3.5v170.1c0 1.9 1.6 3.5 3.5 3.5h207.6c2 0 3.5-1.6 3.5-3.6V38c0-1.9-1.6-3.5-3.5-3.5H27.2z"/><circle class="st3" cx="214.8" cy="57.9" r="8.6"/><circle class="st3" cx="187.1" cy="57.9" r="8.6"/><circle class="st3" cx="159.5" cy="57.9" r="8.6"/><circle class="st10" cx="71.2" cy="55.5" r="5"/><circle class="st7" cx="54.7" cy="55.5" r="5"/><circle class="st11" cx="38.4" cy="55.5" r="5"/><path class="st12" d="M71.9 54.9c1.8 0 3.3.9 4.3 2.4.1-.5.3-.9.3-1.4 0-2.8-2.4-5-5.1-4.9-2.8 0-5 2.4-4.9 5.1 0 .9.3 1.8.8 2.5.3-2.2 2.3-3.7 4.6-3.7zm-16.3 0c1.8 0 3.3.9 4.3 2.4.1-.5.3-.9.3-1.4 0-2.8-2.3-5-5-5-2.8 0-5 2.3-5 5 0 .9.3 1.9.8 2.6.4-2.1 2.4-3.6 4.6-3.6zm-16.5 0c1.8 0 3.3.9 4.3 2.4.1-.5.3-.9.3-1.4 0-2.8-2.4-5-5.1-4.9-2.8 0-5 2.4-4.9 5.1 0 .9.3 1.8.8 2.5.2-2.2 2.2-3.7 4.6-3.7z"/><path class="st13" d="M69.6 104.4h114v7.6h-114zm0 17.8h114v7.6h-114zm0 17.9h114v7.6h-114zm0 17.9H135v7.6H69.6z"/></g></g></g></g></svg>