<svg id="Layer_1" xmlns="http://www.w3.org/2000/svg" viewBox="0 0 220 200"><style>.st0{opacity:.5;fill:#eafaff;enable-background:new}.st1{opacity:.1}.st2{fill:#463e3b}.st3{fill:none;stroke:#fff;stroke-width:3;stroke-miterlimit:10}.st4{fill:#e6f4ff}.st5{fill:#fff}.st6{fill:#ceeaff}.st7{fill:#31679f}</style><title>how03</title><g id="Layer_2"><g id="Layer_1-2"><g id="Layer_2-2"><g id="Layer_1-2-2"><path class="st0" d="M220 85.6c.1-27-18.3-50.5-44.4-56.9C145.4-6.1 92.8-9.8 58.1 20.4 52 25.7 46.7 31.8 42.4 38.7 9.6 49.9-7.8 85.5 3.4 118.2c6.3 18.3 20.6 32.6 38.8 38.9 3.4 26.9 28 45.9 54.9 42.5 15.4-2 29-11.1 36.6-24.7 7.5 4.4 16.1 6.8 24.8 6.8 27.6-.2 49.9-22.7 49.7-50.3v-.1c0-3.1-.3-6.2-.9-9.2 8.3-10.4 12.7-23.3 12.7-36.5z"/><g class="st1"><path class="st2" d="M68.9 21.4H42.1V7.7h26.8v13.7zm-25.6-1.1h24.5V8.8H43.3v11.5z"/><path class="st2" d="M88.1 34.8H61.3V21h26.8v13.8zm-25.6-1.1H87V22.2H62.5v11.5z"/></g><g class="st1"><path class="st2" d="M83.2 164.3H56.5v-11.9h26.8l-.1 11.9zm-25.6-1.1h24.5v-9.7H57.6v9.7z"/><path class="st2" d="M102.4 175.8H75.6v-11.9h26.8v11.9zm-25.6-1.1h24.5V165H76.8v9.7z"/></g><g class="st1"><path class="st2" d="M219.9 86.7h-26.8V74.1h26.8v12.6zm-25.6-1.1h24.5V75.2h-24.5v10.4z"/><path class="st2" d="M200.7 98.9h-26.8V86.3h26.8v12.6zm-25.6-1.1h24.5V87.4h-24.5v10.4z"/></g><path class="st4" d="M24.1 106.9l19.1-67.7c3.1-11 14.5-17.4 25.4-14.3l112 31.5c11 3.1 17.4 14.5 14.3 25.4l-19.1 67.7c-3.1 11-14.5 17.4-25.4 14.3l-112-31.5c-11-3.1-17.4-14.5-14.3-25.4z"/><path class="st5" d="M179.1 55.7L70.2 25.4C59.5 22.4 50.9 25 48 30l-1.6 4.1c1.5-5.5 11.5-6.1 22.2-3.2l108.9 30.4c10.7 3 18.1 9.9 16.5 15.4l1.5-5.6c1.6-5.5-5.8-12.4-16.4-15.4z"/><path class="st6" d="M24.8 119.1L23 115l59.4-27.5.9 2.1c.1.2 9.4 20.3 24.4 23.1 7.7 1.4 15.7-2 23.9-10.2l3.2 3.1c-9.3 9.3-18.7 13.1-27.9 11.4-14.4-2.6-23.6-18-26.6-23.5l-55.5 25.6z"/><path transform="rotate(-36.739 152.865 129.998)" class="st6" d="M150.6 98.8h4.5v62.3h-4.5z"/><path class="st7" d="M181.3 53.6L68.9 22.4c-11.8-3.3-24 3.6-27.3 15.4l-18.9 68c-3.3 11.8 3.6 24.1 15.4 27.4l112.4 31.2c1.9.5 3.9.8 6 .8 10 0 18.7-6.7 21.4-16.3l18.9-68c3.2-11.8-3.7-24-15.5-27.3zM63 24.5c1.7 0 3.5.3 5.1.7l112.4 31.1c7.8 2.2 13.2 8.9 14 16.5l-76.6 36.6c-8.3 4.5-18.7 1.6-23.4-6.5L47.7 32.2c3.5-4.7 9.1-7.6 15.3-7.7zm-37.5 82.1l18.9-67.9c.4-1.3.9-2.6 1.5-3.8l34.4 52.2-55.5 25.5c0-2 .2-4 .7-6zm125.8 54.9L38.9 130.2c-7.2-2-12.2-7.8-13.7-14.6l56.7-26 9.9 15c2.8 4.4 7.1 7.7 12.1 9.2 1.7.5 3.4.7 5.2.7 3.5 0 6.9-.8 10-2.3l15.9-7.6 36.4 50.3c-4.6 5.8-12.5 8.7-20.1 6.6zm23.6-13.4c-.4 1.5-1 2.9-1.7 4.2l-35.5-49 56.8-27.1c-.1 1.3-.3 2.6-.7 3.9l-18.9 68z"/></g></g></g></g></svg>