<?xml version="1.0" encoding="utf-8"?>
<!-- Generator: Adobe Illustrator 21.1.0, SVG Export Plug-In . SVG Version: 6.00 Build 0)  -->
<svg version="1.1" id="Layer_1" xmlns="http://www.w3.org/2000/svg" xmlns:xlink="http://www.w3.org/1999/xlink" x="0px" y="0px"
	 viewBox="0 0 245 33" style="enable-background:new 0 0 245 33;" xml:space="preserve">
<style type="text/css">
	.st0{fill:#FFFFFF;}
	.st1{fill:#66CC86;}
</style>
<g>
	<g>
		<path class="st0" d="M69.2,30.5l1.2-1.8c1.3,1.5,2.8,2.1,5.1,2.1c2.6,0,5-1.3,5-4.7v-2.2c-1.1,1.6-3,2.8-5.2,2.8
			c-4.1,0-6.9-3-6.9-8c0-5,2.8-8.1,6.9-8.1c2.1,0,4,1,5.2,2.7V11h2.4v15.1c0,5.2-3.6,6.8-7.4,6.8C72.9,32.8,71.1,32.3,69.2,30.5z
			 M80.5,22v-6.8c-0.8-1.4-2.7-2.5-4.6-2.5c-3.1,0-5,2.5-5,5.9c0,3.4,1.9,5.9,5,5.9C77.8,24.6,79.6,23.4,80.5,22z"/>
		<path class="st0" d="M86.8,18.7c0-4.5,3.2-8.1,7.7-8.1c4.7,0,7.5,3.7,7.5,8.3v0.6H89.4c0.2,2.9,2.3,5.4,5.6,5.4
			c1.8,0,3.6-0.7,4.8-2l1.2,1.6c-1.5,1.5-3.6,2.4-6.2,2.4C90.1,26.9,86.8,23.6,86.8,18.7z M94.5,12.6c-3.3,0-5,2.8-5.1,5.2h10.2
			C99.5,15.4,98,12.6,94.5,12.6z"/>
		<path class="st0" d="M106.3,23.3V13.1h-2.6V11h2.6V6.7h2.4V11h3.2v2.1h-3.2v9.7c0,1.2,0.5,2,1.6,2c0.7,0,1.3-0.3,1.6-0.6l0.7,1.8
			c-0.6,0.6-1.5,1-2.9,1C107.5,26.9,106.3,25.6,106.3,23.3z"/>
		<path class="st0" d="M114.4,18.7c0-4.5,3.2-8.1,7.7-8.1c4.7,0,7.5,3.7,7.5,8.3v0.6H117c0.2,2.9,2.3,5.4,5.6,5.4
			c1.8,0,3.6-0.7,4.8-2l1.2,1.6c-1.5,1.5-3.6,2.4-6.2,2.4C117.7,26.9,114.4,23.6,114.4,18.7z M122.1,12.6c-3.3,0-5,2.8-5.1,5.2h10.2
			C127.1,15.4,125.6,12.6,122.1,12.6z"/>
		<path class="st0" d="M132.1,24.5l1.3-1.7c1,1.2,3,2.2,5.1,2.2c2.4,0,3.7-1.1,3.7-2.7c0-3.8-9.6-1.4-9.6-7.2c0-2.4,2.1-4.5,5.8-4.5
			c2.6,0,4.5,1,5.8,2.3l-1.1,1.7c-0.9-1.1-2.6-2-4.6-2c-2.1,0-3.4,1.1-3.4,2.4c0,3.4,9.6,1.2,9.6,7.2c0,2.6-2.1,4.7-6.1,4.7
			C135.8,26.9,133.7,26.1,132.1,24.5z"/>
		<path class="st0" d="M147.1,24.5l1.3-1.7c1,1.2,3,2.2,5.1,2.2c2.4,0,3.7-1.1,3.7-2.7c0-3.8-9.6-1.4-9.6-7.2c0-2.4,2.1-4.5,5.8-4.5
			c2.6,0,4.5,1,5.8,2.3l-1.1,1.7c-0.9-1.1-2.6-2-4.6-2c-2.1,0-3.4,1.1-3.4,2.4c0,3.4,9.6,1.2,9.6,7.2c0,2.6-2.1,4.7-6.1,4.7
			C150.8,26.9,148.6,26.1,147.1,24.5z"/>
		<path class="st0" d="M173.1,26.5v-1.8c-1.3,1.4-3.1,2.2-5.2,2.2c-2.6,0-5.4-1.8-5.4-5.2c0-3.5,2.8-5.1,5.4-5.1
			c2.1,0,3.9,0.7,5.2,2.1V16c0-2.1-1.7-3.3-3.9-3.3c-1.9,0-3.4,0.7-4.8,2.2l-1.1-1.7c1.7-1.7,3.7-2.6,6.2-2.6c3.3,0,6,1.5,6,5.2
			v10.7H173.1z M173.1,23.2v-2.9c-0.9-1.3-2.6-1.9-4.3-1.9c-2.3,0-3.8,1.4-3.8,3.4c0,2,1.6,3.4,3.8,3.4
			C170.5,25.2,172.2,24.5,173.1,23.2z"/>
		<path class="st0" d="M179.9,30.4c0.4,0.2,0.9,0.3,1.3,0.3c1.1,0,1.8-0.4,2.3-1.6l1-2.4L178,11h2.6l5.2,12.8L191,11h2.6l-7.8,18.7
			c-0.9,2.3-2.5,3.1-4.6,3.2c-0.5,0-1.3-0.1-1.8-0.2L179.9,30.4z"/>
		<path class="st0" d="M193.8,25.1c0-1,0.8-1.8,1.8-1.8c1,0,1.8,0.8,1.8,1.8c0,1-0.8,1.8-1.8,1.8C194.6,26.8,193.8,26,193.8,25.1z"
			/>
		<path class="st0" d="M212.2,26.5V16.3c0-2.7-1.4-3.6-3.5-3.6c-1.9,0-3.7,1.2-4.6,2.4v11.4h-2.4V11h2.4v2.3
			c1.1-1.3,3.2-2.6,5.5-2.6c3.3,0,5,1.6,5,5v10.9H212.2z"/>
		<path class="st0" d="M218.5,18.7c0-4.5,3.2-8.1,7.7-8.1c4.7,0,7.5,3.7,7.5,8.3v0.6h-12.6c0.2,2.9,2.3,5.4,5.6,5.4
			c1.8,0,3.6-0.7,4.8-2l1.2,1.6c-1.5,1.5-3.6,2.4-6.2,2.4C221.9,26.9,218.5,23.6,218.5,18.7z M226.2,12.6c-3.3,0-5,2.8-5.1,5.2h10.2
			C231.3,15.4,229.7,12.6,226.2,12.6z"/>
		<path class="st0" d="M238.1,23.3V13.1h-2.6V11h2.6V6.7h2.4V11h3.2v2.1h-3.2v9.7c0,1.2,0.5,2,1.6,2c0.7,0,1.3-0.3,1.6-0.6l0.7,1.8
			c-0.6,0.6-1.5,1-2.9,1C239.2,26.9,238.1,25.6,238.1,23.3z"/>
	</g>
</g>
<path id="XMLID_2_" class="st1" d="M59.8,16.8L36.5,29c0,0,0,0,0,0c-1.3,1.8-3.4,2.8-5.6,2.8c-2.2,0-4.3-1-5.6-2.8c0,0,0,0,0,0
	L2,16.8c-0.6-0.3-0.9-1.1-0.7-1.7c0.3-0.7,1.2-1,1.8-0.7l23.5,12.4c0.2,0.1,0.4,0.2,0.5,0.4c0.8,1.2,2.2,1.9,3.6,1.9
	c1.5,0,2.8-0.7,3.6-1.9c0.1-0.2,0.3-0.3,0.5-0.4l23.5-12.4c0.6-0.3,1.3-0.2,1.7,0.3C60.7,15.4,60.5,16.4,59.8,16.8z M27.8,22.3
	c0.1,0.2,0.3,0.3,0.6,0.3c0.1,0,0.2,0,0.3-0.1c0.3-0.2,0.4-0.6,0.2-0.9L17.7,3.3c-0.2-0.3-0.6-0.4-0.9-0.2c-0.3,0.2-0.4,0.6-0.2,0.9
	L27.8,22.3z M7.9,11.4L26,24.1c0.1,0.1,0.2,0.1,0.4,0.1c0.2,0,0.5-0.1,0.6-0.4c0.2-0.3,0-0.7-0.2-0.9L8.6,10.3
	c-0.3-0.2-0.8-0.1-1,0.2C7.5,10.8,7.6,11.2,7.9,11.4z M34.8,24c0.1,0.2,0.3,0.3,0.5,0.3c0.1,0,0.3,0,0.4-0.1l18.1-12.8
	c0.3-0.2,0.4-0.6,0.2-0.9c-0.2-0.4-0.7-0.5-1-0.2L35,23C34.7,23.3,34.6,23.7,34.8,24z M33,22.5c0.1,0.1,0.2,0.1,0.3,0.1
	c0.2,0,0.4-0.1,0.6-0.3L45.1,4c0.2-0.3,0.1-0.7-0.2-0.9C44.6,2.9,44.2,3,44,3.3L32.8,21.6C32.6,21.9,32.7,22.3,33,22.5z M31,22.1
	c0.3,0,0.6-0.4,0.6-0.7l0-20.7c0-0.3-0.2-0.6-0.4-0.7c-0.5-0.1-0.9,0.2-0.9,0.6v20.8C30.2,21.8,30.6,22.1,31,22.1z"/>
</svg>
