<?xml version="1.0" encoding="utf-8"?>
<!-- Generator: Adobe Illustrator 21.1.0, SVG Export Plug-In . SVG Version: 6.00 Build 0)  -->
<svg version="1.1" id="Layer_1" xmlns="http://www.w3.org/2000/svg" xmlns:xlink="http://www.w3.org/1999/xlink" x="0px" y="0px"
	 viewBox="0 0 185 25" style="enable-background:new 0 0 185 25;" xml:space="preserve">
<style type="text/css">
	.st0{fill:#3196DF;}
	.st1{fill:#66CC86;}
</style>
<g>
	<g>
		<path class="st0" d="M52.2,23.1l0.9-1.4c1,1.2,2.1,1.6,3.8,1.6c2,0,3.8-1,3.8-3.5v-1.7c-0.9,1.2-2.3,2.1-4,2.1
			c-3.1,0-5.2-2.3-5.2-6.1c0-3.8,2.1-6.1,5.2-6.1c1.6,0,3,0.8,4,2.1V8.3h1.8v11.4c0,3.9-2.7,5.1-5.6,5.1
			C54.9,24.9,53.6,24.5,52.2,23.1z M60.7,16.7v-5.2c-0.6-1-2.1-1.9-3.5-1.9c-2.4,0-3.8,1.9-3.8,4.5c0,2.6,1.4,4.5,3.8,4.5
			C58.7,18.6,60.1,17.7,60.7,16.7z"/>
		<path class="st0" d="M65.5,14.2c0-3.4,2.4-6.2,5.8-6.2c3.6,0,5.7,2.8,5.7,6.3v0.5h-9.5c0.1,2.2,1.7,4.1,4.2,4.1
			c1.3,0,2.7-0.5,3.6-1.5l0.9,1.2c-1.2,1.2-2.8,1.8-4.7,1.8C68,20.4,65.5,17.9,65.5,14.2z M71.3,9.5c-2.5,0-3.8,2.1-3.9,3.9h7.7
			C75.2,11.7,74,9.5,71.3,9.5z"/>
		<path class="st0" d="M80.3,17.6V9.9h-2V8.3h2V5.1h1.8v3.2h2.4v1.6h-2.4v7.3c0,0.9,0.4,1.5,1.2,1.5c0.5,0,1-0.2,1.2-0.5l0.5,1.4
			c-0.5,0.4-1.1,0.8-2.2,0.8C81.2,20.4,80.3,19.4,80.3,17.6z"/>
		<path class="st0" d="M86.5,14.2c0-3.4,2.4-6.2,5.8-6.2c3.6,0,5.7,2.8,5.7,6.3v0.5h-9.5c0.1,2.2,1.7,4.1,4.2,4.1
			c1.3,0,2.7-0.5,3.6-1.5l0.9,1.2c-1.2,1.2-2.8,1.8-4.7,1.8C89,20.4,86.5,17.9,86.5,14.2z M92.2,9.5c-2.5,0-3.8,2.1-3.9,3.9h7.7
			C96.1,11.7,94.9,9.5,92.2,9.5z"/>
		<path class="st0" d="M99.9,18.5l1-1.3c0.8,0.9,2.3,1.7,3.9,1.7c1.8,0,2.8-0.9,2.8-2c0-2.9-7.3-1.1-7.3-5.5c0-1.8,1.6-3.4,4.4-3.4
			c2,0,3.4,0.8,4.4,1.7l-0.9,1.3c-0.7-0.9-2-1.5-3.5-1.5c-1.6,0-2.6,0.8-2.6,1.9c0,2.6,7.3,0.9,7.3,5.5c0,2-1.6,3.6-4.6,3.6
			C102.7,20.4,101.1,19.8,99.9,18.5z"/>
		<path class="st0" d="M111.2,18.5l1-1.3c0.8,0.9,2.3,1.7,3.9,1.7c1.8,0,2.8-0.9,2.8-2c0-2.9-7.3-1.1-7.3-5.5c0-1.8,1.6-3.4,4.4-3.4
			c2,0,3.4,0.8,4.4,1.7l-0.9,1.3c-0.7-0.9-2-1.5-3.5-1.5c-1.6,0-2.6,0.8-2.6,1.9c0,2.6,7.3,0.9,7.3,5.5c0,2-1.6,3.6-4.6,3.6
			C114,20.4,112.4,19.8,111.2,18.5z"/>
		<path class="st0" d="M131,20.1v-1.3c-1,1.1-2.3,1.6-3.9,1.6c-2,0-4.1-1.3-4.1-3.9c0-2.6,2.1-3.9,4.1-3.9c1.6,0,3,0.5,3.9,1.6v-2.1
			c0-1.6-1.3-2.5-3-2.5c-1.4,0-2.6,0.5-3.6,1.6l-0.9-1.3c1.3-1.3,2.8-2,4.7-2c2.5,0,4.6,1.1,4.6,4v8.1H131z M131,17.6v-2.2
			c-0.7-1-2-1.5-3.2-1.5c-1.7,0-2.9,1.1-2.9,2.6c0,1.5,1.2,2.6,2.9,2.6C129,19,130.2,18.6,131,17.6z"/>
		<path class="st0" d="M136.1,23c0.3,0.1,0.7,0.2,1,0.2c0.8,0,1.3-0.3,1.8-1.2l0.8-1.8l-4.9-11.9h2l3.9,9.7l3.9-9.7h2l-5.9,14.2
			c-0.7,1.7-1.9,2.4-3.5,2.4c-0.4,0-1-0.1-1.3-0.2L136.1,23z"/>
		<path class="st0" d="M146.7,19c0-0.7,0.6-1.3,1.3-1.3s1.3,0.6,1.3,1.3c0,0.7-0.6,1.3-1.3,1.3S146.7,19.7,146.7,19z"/>
		<path class="st0" d="M160.6,20.1v-7.7c0-2.1-1.1-2.7-2.6-2.7c-1.4,0-2.8,0.9-3.5,1.8v8.6h-1.8V8.3h1.8V10c0.8-1,2.4-2,4.2-2
			c2.5,0,3.8,1.2,3.8,3.8v8.3H160.6z"/>
		<path class="st0" d="M165.4,14.2c0-3.4,2.4-6.2,5.8-6.2c3.6,0,5.7,2.8,5.7,6.3v0.5h-9.5c0.1,2.2,1.7,4.1,4.2,4.1
			c1.3,0,2.7-0.5,3.6-1.5l0.9,1.2c-1.2,1.2-2.8,1.8-4.7,1.8C167.9,20.4,165.4,17.9,165.4,14.2z M171.2,9.5c-2.5,0-3.8,2.1-3.9,3.9
			h7.7C175,11.7,173.9,9.5,171.2,9.5z"/>
		<path class="st0" d="M180.2,17.6V9.9h-2V8.3h2V5.1h1.8v3.2h2.4v1.6H182v7.3c0,0.9,0.4,1.5,1.2,1.5c0.5,0,1-0.2,1.2-0.5l0.5,1.4
			c-0.5,0.4-1.1,0.8-2.2,0.8C181.1,20.4,180.2,19.4,180.2,17.6z"/>
	</g>
</g>
<path id="XMLID_2_" class="st1" d="M45,12.7L27.4,22c0,0,0,0,0,0c-1,1.3-2.6,2.1-4.3,2.1c-1.7,0-3.3-0.8-4.3-2.1c0,0,0,0,0,0
	L1.2,12.7c-0.5-0.2-0.7-0.8-0.5-1.3c0.2-0.6,0.9-0.8,1.4-0.5L20,20.3c0.1,0.1,0.3,0.2,0.4,0.3c0.6,0.9,1.6,1.5,2.8,1.5
	c1.1,0,2.1-0.5,2.8-1.5c0.1-0.1,0.2-0.2,0.4-0.3l17.8-9.4c0.4-0.2,1-0.1,1.3,0.2C45.8,11.7,45.6,12.4,45,12.7z M20.8,16.9
	c0.1,0.2,0.3,0.2,0.4,0.2c0.1,0,0.2,0,0.3-0.1c0.2-0.1,0.3-0.5,0.2-0.7L13.2,2.5c-0.1-0.2-0.5-0.3-0.7-0.2c-0.2,0.1-0.3,0.5-0.2,0.7
	L20.8,16.9z M5.7,8.6l13.7,9.7c0.1,0.1,0.2,0.1,0.3,0.1c0.2,0,0.4-0.1,0.4-0.3c0.1-0.2,0-0.5-0.2-0.7L6.2,7.8C6,7.6,5.6,7.7,5.5,7.9
	C5.4,8.2,5.5,8.4,5.7,8.6z M26.1,18.1c0.1,0.1,0.3,0.2,0.4,0.2c0.1,0,0.2,0,0.3-0.1l13.7-9.7c0.2-0.1,0.3-0.4,0.2-0.7
	c-0.1-0.3-0.5-0.4-0.7-0.2l-13.8,9.7C26,17.6,26,17.9,26.1,18.1z M24.7,17c0.1,0.1,0.2,0.1,0.3,0.1c0.2,0,0.3-0.1,0.4-0.2L33.9,3
	c0.1-0.2,0.1-0.5-0.2-0.7c-0.2-0.1-0.5-0.1-0.7,0.2l-8.5,13.9C24.4,16.6,24.5,16.9,24.7,17z M23.2,16.7c0.3,0,0.4-0.3,0.4-0.5V0.5
	c0-0.2-0.1-0.4-0.3-0.5c-0.3-0.1-0.7,0.1-0.7,0.5v15.7C22.6,16.5,22.9,16.8,23.2,16.7z"/>
</svg>
