<svg id="Laag_1" xmlns="http://www.w3.org/2000/svg" viewBox="0 0 75 30"><style>.st0{fill:#fff}.st1{fill:#f79410}.st2{fill:#ff5f00}.st3{fill:#eb001b}.st4{fill:#f79e1b}</style><path class="st0" d="M0 0h75v30H0z"/><title>Tekengebied 1</title><path class="st1" d="M53 21v-.4h-.1l-.1.2-.2-.2h-.1v.4h.1v-.3l.2.2h.1l.2-.2-.1.3zm-.6 0v-.3h.1v-.1h-.3v.1h.2v.3z"/><path class="st2" d="M41.8 22.7h-8.5V7.4h8.5v15.3z"/><path class="st3" d="M33.8 15c0-3.1 1.5-5.9 3.8-7.6-1.7-1.4-3.9-2.1-6-2.1-5.4 0-9.8 4.4-9.8 9.8s4.4 9.8 9.8 9.8c2.2 0 4.3-.8 6-2.1-2.3-2-3.8-4.6-3.8-7.8"/><path class="st4" d="M53.3 15c0 5.4-4.3 9.8-9.8 9.8-2.2 0-4.3-.8-6-2.1 2.3-1.8 3.8-4.6 3.8-7.7s-1.5-5.9-3.8-7.6c1.7-1.4 3.8-2.1 6-2.1 5.5 0 9.8 4.3 9.8 9.7"/></svg>