<svg id="Layer_1" xmlns="http://www.w3.org/2000/svg" viewBox="0 0 50.7 50"><style>.st0{fill:#3196df}.st1{fill:#fff}</style><path class="st0" d="M2.1 28.3c1.1.9 1.4 2.5.8 3.8l-.5 1.2c-.7 1.8.2 4 2.1 4.5l1.2.3c1.4.4 2.3 1.6 2.4 3.1l.1 1.3c.1 1.8 1.6 3.1 3.3 3.1.2 0 .4 0 .6-.1l1.3-.2c.2 0 .4-.1.6-.1 1.2 0 2.3.7 2.9 1.7l.6 1.2c.6 1.2 1.7 1.7 2.9 1.7.7 0 1.3-.2 1.9-.6l1.1-.7c.6-.4 1.2-.6 1.9-.6s1.3.2 1.9.7l1.1.7c.6.4 1.2.7 1.9.7 1.2 0 2.3-.6 2.9-1.7l.7-1.2c.6-1.1 1.7-1.7 2.9-1.7.2 0 .4 0 .6.1l1.2.2c.2 0 .4.1.6.1 1.7 0 3.2-1.3 3.3-3.1l.1-1.3c.1-1.4 1.1-2.6 2.4-3l1.2-.3c1.9-.5 2.9-2.6 2.1-4.5l-.5-1.2c-.6-1.3-.2-2.8.9-3.8l1-.8c1.5-1.3 1.5-3.6 0-5l-1-.8c-1.1-.9-1.4-2.5-.8-3.8l.5-1.2c.7-1.8-.2-4-2.1-4.5l-1.2-.3c-1.4-.4-2.3-1.6-2.4-3.1l-.1-1.3c-.1-1.8-1.6-3.1-3.3-3.1-.2 0-.4 0-.6.1l-1.4.2h-.5c-1.2 0-2.3-.7-2.9-1.7l-.5-1.4C32.7.7 31.6.2 30.4.2c-.7 0-1.3.2-1.9.6l-1.1.7c-.6.4-1.2.6-1.9.6s-1.3-.2-1.9-.7L22.5.7c-.6-.5-1.2-.7-1.9-.7-1.2 0-2.3.6-2.9 1.7L17 2.9c-.6 1.1-1.7 1.7-2.9 1.7-.2 0-.4 0-.6-.1l-1.3-.2c-.2 0-.4-.1-.6-.1-1.7 0-3.2 1.3-3.3 3.1v1.4c-.1 1.4-1.1 2.6-2.4 3l-1.2.3c-1.9.5-2.9 2.6-2.1 4.5l.4 1.2c.6 1.3.2 2.8-.9 3.8l-1 .8c-1.5 1.3-1.5 3.6 0 5l1 1z"/><path class="st1" d="M18.9 21.7l3.9 3.9 9.2-9.2 4 4.1-9.3 9.2-4 3.9-4-4-3.9-3.9z"/></svg>