<svg id="Capa_1" xmlns="http://www.w3.org/2000/svg" viewBox="0 0 12 12"><style>.st0{fill:#49cf72}</style><path class="st0" d="M12 9.5c0 .2 0 .4-.2.5l-1.7 1.7c-.1.1-.2.2-.3.2s-.2.1-.3.1h-.3c-.2 0-.4 0-.8-.1s-.8-.2-1.3-.4-1.1-.5-1.8-1c-.7-.4-1.4-1-2.1-1.8-.6-.5-1-1.1-1.4-1.6s-.7-1-.9-1.5C.6 5.1.4 4.7.3 4.4s-.2-.7-.2-1-.1-.5-.1-.6v-.3c0-.1.1-.2.1-.4s.1-.2.2-.3L2 .2c.2-.1.3-.2.4-.2.1 0 .2 0 .3.1s.2.1.2.2l1.4 2.6c.1.1.1.3.1.5s-.1.3-.2.4l-.7.6v.2c0 .2.1.4.2.6.1.2.3.4.5.7s.5.6.9 1 .7.7 1 .9c.3.2.5.4.7.5.2.1.4.2.5.2h.4l.7-.7c.2-.1.3-.2.5-.2.1 0 .3 0 .3.1l2.5 1.4c.2.1.3.2.3.4z"/></svg>