<svg id="Layer_1" xmlns="http://www.w3.org/2000/svg" viewBox="0 0 89.6 100"><style>.st0{fill:#f2d1a5}.st1{fill:#ffddac}.st2{fill:#f0f2fa}.st3{fill:#e4eaf6}.st4{fill:#66cc86}.st5{fill:#40b260}.st6{fill:#4a4342}</style><title>stats3</title><g id="Layer_2"><g id="Layer_1-2"><path class="st0" d="M54.5 64.2c-1.8 1.3-3.9 2.1-6.2 2.1h-7c-2.2 0-4.4-.7-6.2-2.1l-6-4.6v10.1l15.5 13.8 15.5-13.8v-9.9l-5.6 4.4z"/><path class="st1" d="M54.5 65.9c-1.8 1.3-3.9 2.1-6.2 2.1h-7c-2.2 0-4.4-.7-6.2-2.1l-6-4.4v9.9l15.5 13.8 15.5-13.8v-9.9l-5.6 4.4zm16.1-25.3l-2 7.8c-.2.9-1.1 1.5-2 1.5-1 0-1.9-.8-2-1.8l-1-8c-.2-2 1.1-3.7 3.1-4h.4c2 0 3.6 1.6 3.6 3.6 0 .4 0 .7-.1.9zm-51.5 0l2 7.8c.2.9 1.1 1.5 2 1.5 1 0 1.9-.8 2.1-1.8l1-8c.2-2-1.1-3.7-3.1-4h-.4c-2 0-3.6 1.7-3.6 3.7-.1.3-.1.6 0 .8z"/><path class="st2" d="M84.3 76.3l-21.3-5c-.3-.1-.6-.2-.9-.4L44.8 81 28.2 70.5c-.4.4-1 .7-1.5.9l-21.4 5c-3.1.7-5.3 3.5-5.3 6.7v13.5c0 1.9 1.6 3.4 3.4 3.4h82.7c1.9 0 3.4-1.5 3.4-3.4V83.1c.1-3.2-2.1-6-5.2-6.8z"/><path class="st3" d="M76.9 88.8l11.2-10c1 1.2 1.5 2.7 1.5 4.3v13.5c0 1.9-1.5 3.4-3.4 3.4h-12v-4.8c-.1-2.4.9-4.7 2.7-6.4zm-64.3 0l-11.1-10C.5 80 0 81.5 0 83.1v13.5c0 1.9 1.6 3.4 3.4 3.4h12.1v-4.8c0-2.4-1-4.8-2.9-6.4z"/><path class="st4" d="M49.1 100h-8.6l1.1-15.5h6.5z"/><path class="st5" d="M49.1 81h-8.6v1c0 2.3 1.9 4.1 4.2 4.1h.3c2.3 0 4.2-1.9 4.2-4.2l-.1-.9z"/><path class="st3" d="M29.1 66.8L44.8 81c-3.5 1.9-6.8 4.1-9.9 6.7-.9.8-2.3.7-3.1-.3-.1-.1-.2-.3-.3-.5l-6.4-14.2c-.6-1.3-.5-2.9.3-4.1l1-1.5c.6-.8 1.7-1 2.5-.5.1.1.1.2.2.2zm31.5 0L44.8 81c3.5 1.9 6.8 4.1 9.9 6.7.9.8 2.3.7 3.1-.3.1-.1.2-.3.3-.5l6.5-14.1c.6-1.3.5-2.9-.3-4.1l-1-1.5c-.6-.8-1.7-1-2.5-.5-.1.1-.1.1-.2.1z"/><path class="st1" d="M65.8 43.1l-.3-7.7c-.1-2.9-1-12.3-6.3-15.5-2.8 1.5-7 2.6-13.1 2.6-5.4 0-10.7-1.8-16.7 1.7-4.6 2.7-5.3 8.4-5.3 11.6 0 .7 0 1.5.1 2.2l-.3 5.8c0 .2-.1.3-.2.3l.4 8c.1 3.1 1.7 6 4.1 7.8l7.1 5.3c1.8 1.3 3.9 2.1 6.2 2.1h6.9c2.2 0 4.4-.7 6.2-2.1l7.1-5.3c2.5-1.9 4-4.7 4.1-7.8l.4-8.8c-.2.1-.5 0-.4-.2z"/><path class="st6" d="M62.1 6.6C59.6 3.3 54.2-.1 44.8 0c-6.1.2-12.1 1.3-17.9 3.2-.9.3-1.3 1.2-1 2.1.1.4.3.7.6.9-8.4 6.3-9.4 15.8-9.4 20.4v1c.8 3.2 1.9 6.2 3.2 9.2 1.9 2.8 1.7 3.1 2.7 6.9.1.2.3.3.5.2l.3-.3.3-5.8c-.1-.7-.1-1.4-.1-2.2 0-3.1.7-8.9 5.3-11.6 6-3.6 11.3-1.7 16.7-1.7 6.2 0 10.3-1 13.1-2.6 5.3 3.1 6.2 12.6 6.3 15.5l.3 7.7c0 .1.1.3.2.3s.3-.1.3-.2c.9-3.3.7-2.9 3.1-6.2 1.3-3 2.3-6.1 3-9.2 0-5.1-.9-19.6-10.2-21z"/><path class="st3" d="M65.5 96.6h-8.6c-1.9 0-3.5 1.5-3.5 3.4H69c0-1.9-1.6-3.4-3.5-3.4z"/></g></g></svg>