<svg id="Layer_1" xmlns="http://www.w3.org/2000/svg" viewBox="0 0 70.7 100"><style>.st0{fill:#66cc86}.st1{fill:#fff}.st2{fill:#3196df}.st3{fill:#c6e5e4}</style><title>stats1</title><g id="Layer_2"><g id="icons"><path class="st0" d="M70.7 89H0V69.6L35.6 60l35.1 9.6z"/><path class="st1" d="M7.2.1h57.6v88.8H7.2z"/><path class="st2" d="M64.7.3v88.5H7.3V.3h57.4m.2-.3H7.1v89h57.8V0z"/><path class="st3" d="M10.7 29h5.1v5.1h-5.1zm0 6.4h5.1v5.1h-5.1zm0 6.4h5.1v5.1h-5.1zm0 16.5h5.1v5.1h-5.1zm0 6.4h5.1v5.1h-5.1zm0 6.4h5.1v5.1h-5.1zm8-52.5H59v5.1H18.7zm0 32H59v5.1H18.7zm0-19.6H59v1.4H18.7zm0 6.3H59v1.4H18.7zm0 6.3H59V45H18.7zm0 28.6H59v1.4H18.7zm0-11.5H59v1.4H18.7zm0 5.8H59v1.4H18.7z"/><path class="st2" d="M70.7 100H0V73.2l35.3 13.4 35.4-13.4z"/><path class="st1" d="M66.3 88.3c0 .8-.1 1.6-.4 2.3-.2.6-.6 1.2-1.2 1.7-.5.4-1.1.6-1.7.6-.4 0-.8-.1-1.2-.3-.3-.2-.6-.5-.7-.8H61c-.6.7-1.5 1.2-2.4 1.1-.9 0-1.8-.3-2.5-.9-.6-.7-1-1.6-.9-2.6 0-1.1.4-2.2 1.2-3 .9-.8 2-1.2 3.2-1.1.6 0 1.1.1 1.7.1.5.1 1.1.2 1.6.3l-.5 4.3c0 .8.2 1.2.7 1.2s.7-.3.9-.8c.2-.7.4-1.4.3-2.2 0-.9-.2-1.7-.6-2.5-.4-.7-1-1.3-1.7-1.7-.8-.4-1.6-.6-2.5-.6-1.1 0-2.2.2-3.2.7-.9.5-1.6 1.2-2 2.1-.5 1-.7 2.1-.7 3.2-.1 1.4.4 2.7 1.3 3.8 1 .9 2.4 1.4 3.8 1.3.7 0 1.4-.1 2.1-.2.8-.1 1.5-.3 2.2-.6v1.7c-1.3.5-2.8.8-4.2.8-1.9.1-3.7-.5-5.2-1.7-1.3-1.3-2-3.1-1.9-4.9 0-1.4.3-2.7 1-4 .6-1.2 1.6-2.1 2.7-2.8 1.2-.7 2.7-1 4.1-1 1.2 0 2.4.3 3.5.8 1 .5 1.8 1.3 2.4 2.3.6 1 .9 2.2.9 3.4zm-9.1 1.1c0 1.2.5 1.9 1.6 1.9.5 0 .9-.2 1.2-.6.3-.6.5-1.2.5-1.8v-2h-1c-.6 0-1.3.2-1.7.7-.4.4-.7 1.1-.6 1.8z"/><path class="st3" d="M26.6 11.1v1.2h-5.1V5.7h5V7H23v1.4h3.2v1.2H23v1.6l3.6-.1zm2.8 1.2c-.4-.1-.8-.3-1.2-.6l.5-1.2c.3.2.6.4 1 .5s.8.2 1.2.2c.3 0 .7-.1 1-.2.2-.1.3-.3.3-.5s-.1-.3-.2-.4c-.1-.1-.3-.2-.5-.3l-.8-.2c-.4-.1-.8-.2-1.2-.4-.3-.1-.6-.3-.8-.6-.2-.3-.4-.7-.3-1.1 0-.4.1-.7.3-1 .2-.3.6-.6.9-.7.5-.2 1-.3 1.6-.3.4 0 .8.1 1.2.2s.7.2 1.1.4L33 7.4c-.6-.3-1.2-.5-1.8-.5-.3 0-.7 0-.9.2-.2.1-.3.3-.3.6 0 .2.1.4.4.5.4.1.7.3 1.1.3.4.1.8.2 1.2.4.3.1.6.3.8.6s.4.7.3 1.1c0 .4-.1.7-.3 1s-.6.6-.9.7c-.5.2-1 .3-1.6.3-.6-.1-1.1-.2-1.6-.3zm6.9 0c-.4-.1-.8-.3-1.2-.6l.5-1.2c.3.2.6.4 1 .5s.8.2 1.2.2.7 0 1-.2c.2-.1.3-.3.3-.5s-.1-.3-.2-.4c-.1-.1-.3-.2-.5-.3l-.8-.2c-.4-.1-.8-.2-1.2-.4-.3-.1-.6-.3-.8-.6s-.4-.7-.3-1.1c0-.4.1-.7.3-1s.6-.6.9-.7c.5-.2 1-.3 1.6-.3.4 0 .8.1 1.2.2s.7.2 1.1.4L40 7.4c-.6-.3-1.2-.5-1.8-.5-.3 0-.7 0-.9.2-.2.1-.3.3-.3.6 0 .2.1.4.4.5.4.1.7.3 1.1.3.4.1.8.2 1.2.4.3.1.6.3.8.6s.4.7.3 1.1c0 .4-.1.7-.3 1s-.6.6-.9.7c-.5.2-1 .3-1.6.3-.6-.1-1.2-.2-1.7-.3zM47.1 11h-3.2l-.6 1.4h-1.6l3-6.6h1.6l3 6.6h-1.6l-.6-1.4zm-.5-1.2l-1.1-2.5-1 2.5h2.1zm7.1.2v2.4h-1.6V10l-2.6-4.3h1.6l1.9 3 1.8-3h1.6L53.7 10z"/></g></g></svg>