<svg id="Layer_1" xmlns="http://www.w3.org/2000/svg" viewBox="0 0 90.9 100"><style>.st0{fill:#66cc86}.st1{fill:#3196df}.st2{fill:#3a5273}</style><path class="st0" d="M61.9 92.9c2.5-1.8 6.8-1.8 8.6-4.5 1.8-2.5.6-6.6 1.5-9.5s4.5-5.5 4.5-8.6c0-3.2-3.4-5.8-4.5-8.6-.9-2.9.3-7.1-1.5-9.5-1.8-2.5-6.2-2.6-8.6-4.5-2.5-1.8-3.8-5.8-6.9-6.9-.5-.2-.9-.2-1.4-.2-2.6 0-5.5 1.7-8.2 1.7-2.6 0-5.5-1.7-8.2-1.7-.5 0-.9 0-1.4.2-2.9.9-4.3 5.1-6.9 6.9-2.5 1.8-6.8 1.8-8.6 4.5-1.8 2.5-.6 6.6-1.5 9.5s-4.5 5.5-4.5 8.6c0 3.2 3.4 5.8 4.5 8.6.9 2.9-.3 7.1 1.5 9.5 1.8 2.5 6.2 2.6 8.6 4.5s3.8 5.8 6.9 6.9c.5.2.9.2 1.4.2 2.6 0 5.5-1.7 8.2-1.7s5.5 1.7 8.2 1.7c.5 0 .9 0 1.4-.2 3.1-1 4.5-5 6.9-6.9zm-16.4 2.9C31.3 95.8 20 84.4 20 70.3s11.4-25.5 25.5-25.5S71 56.2 71 70.3 59.6 95.8 45.5 95.8z"/><path class="st1" d="M57 22.9L69.9 0H21l12.9 22.9zm-3.4 15.4c.8 0 1.5.2 2.2.3 2.5.8 4 2.8 5.2 4.6.8 1.1 1.5 2 2.2 2.6.8.6 2 .9 3.2 1.4 1.5.5 3.4 1.1 4.8 2.3l19.2-34.6s.8-1.7.5-3.1-2.2-2.3-2.2-2.3L72.2.5 50.7 38.8c1.1-.3 2-.5 2.9-.5zm-16.3 0c-.8 0-1.5.2-2.2.3-2.5.8-4 2.8-5.2 4.6-.8 1.1-1.5 2-2.2 2.6-.8.6-2 .9-3.2 1.4-1.5.5-3.4 1.1-4.8 2.3L.5 14.9s-.8-1.7-.5-3.1 2.2-2.3 2.2-2.3L18.8.3l21.5 38.3c-1-.1-2.1-.3-3-.3z"/><circle class="st2" cx="53.1" cy="60" r="2.6"/><circle class="st2" cx="37.8" cy="60" r="2.6"/><path class="st2" d="M59.8 75.4s0 .1 0 0c-5.4 8-16 10.2-23.8 4.9-1.8-1.2-3.4-2.8-4.8-4.8-.6-.8-.5-1.8.3-2.5.8-.6 1.8-.5 2.5.3 0 0 0 .2.2.2 4.3 6.5 12.8 8 18.9 3.8 1.5-1.1 2.8-2.3 3.7-3.8.5-.8 1.5-1.1 2.3-.6.8.6 1.1 1.7.7 2.5z"/></svg>