<svg id="Layer_1" xmlns="http://www.w3.org/2000/svg" viewBox="0 0 50 50"><style>.st0{fill:#66cc86}.st1{fill:#fff}</style><path class="st0" d="M42.7 7.3C37.9 2.6 31.7 0 25 0S12.1 2.6 7.3 7.3C2.6 12.1 0 18.4 0 25s2.7 13 7.3 17.6c4.7 4.7 11 7.3 17.7 7.3.8 0 1.6 0 2.4-.1h.1c.8-.1 1.6-.2 2.4-.4 4.8-1 9.2-3.3 12.8-6.9 4-3.9 6.5-9.2 7.2-14.8v-.3c.1-.7.1-1.5.1-2.4 0-6.6-2.6-12.9-7.3-17.7z"/><path class="st1" d="M35.3 33.7c-.1.1-.1.1-.1.2 0 0 0 .1-.1.1l-.1.1-.1.1c-.1.1-.3.2-.5.3-.4.1-.8.1-1.2-.1l-9.9-5.7c-.6-.3-.9-.8-.9-1.4V17c0-.9.7-1.6 1.6-1.6s1.5.7 1.5 1.6v9c0 .1.1.3.2.3l9 5.3c.8.4 1 1.4.6 2.1z"/></svg>