<svg id="Layer_1" xmlns="http://www.w3.org/2000/svg" viewBox="0 0 570 223"><style>.st0{fill:#d9f5fd}.st1{fill:#ffddac}.st2{opacity:.2;enable-background:new}.st3{fill:#fff}.st4{fill:#f5d0b8}.st5{fill:#c73b2a}.st6{fill:#4a4342}.st7{fill:#666261}.st8{fill:#3e2c38}.st9{fill:#333}.st10{opacity:.5;fill:#fff;enable-background:new}.st11{fill:#3d3736}.st12{fill:#3196df}.st13{fill:#fff;stroke:#75b7d8;stroke-miterlimit:10}.st14{fill:#66cc86}</style><path class="st0" d="M326 115.1l-.5-.5h-71l-1 .9-37.9 28.2 16.3 19.2 10.5-4.7 5.9 64.8h82.6l7.4-64.8 10.5 4.7 15.8-19.2z"/><g id="Layer_2"><g id="Layer_1-2"><path class="st1" d="M208.1 175.7c8.2 1.5 16.6.3 24.4-3.1 1.8 2.9 2.7 6.3 3.1 9.7.3 5.3-3.7 5.2-7.8 5.8-13.4 1.8-27 .3-39.4-4.5-4.7-1.8-9.2-3.9-13.4-6.6-6.6-4.2-12.8-8.9-18.6-14 0 0-9-3.1-10.8-5.5 0 0-6.5-4.5-6.1-10.5 0 0-.2-5.5 2.6-4.4 0 0 1.6-6.8 5.8-3.7 0 0 1.8-7.4 7.1-2.6 0 0 2.4-5 5.8.3 1.1 1.5 2.4 2.6 4 3.6 2.3 1.9 3.2 4.8 2.4 7.8 1.1 2.1 2.1 4.2 3.1 6.3.6 1.5 1.5 2.9 2.6 4 3.4 3.7 7.4 6.8 11.9 9 7.4 4.2 15.1 6.9 23.3 8.4zm164.3-10.2c-8.4-.2-16.5-2.7-23.4-7.3-2.3 2.6-3.9 5.7-4.7 8.9-1.3 5.2 2.6 5.8 6.5 7.1 12.8 4.2 26.3 5.2 39.6 2.9 4.8-.8 9.7-2.3 14.4-4 7.3-2.9 14.2-6.5 20.8-10.5 0 0 9.4-1.3 11.6-3.4 0 0 7.1-3.2 7.9-9.2 0 0 1.1-5.3-1.8-4.8 0 0-.3-7.1-5-4.7 0 0-.3-7.6-6.5-3.9 0 0-1.5-5.3-5.8-.6-1.3 1.1-2.9 2.1-4.7 2.6-2.6 1.5-4 4.2-3.7 7.1-1.5 1.8-2.9 3.7-4 5.7-1 1.3-1.9 2.6-3.2 3.6-4 3.1-8.6 5.3-13.4 6.6-8 2.6-16.2 3.9-24.6 3.9z"/><path class="st2" d="M333.1 57.8v38.6c0 2.1-.2 4.4-.6 6.5-1.3 4.5-3.6 8.6-6.8 11.9l.5.5c-6.3 7.4-15.5 11.8-25.2 11.6-6.5 5.8-16.3 5.8-22.8 0-9.5 0-18.6-4.2-24.9-11.3l1-.8c-5-5.5-7.9-12.6-7.9-19.9V56.2c0-2.1.2-4.2.6-6.3 4.2-13.6 16.8-22.8 30.8-22.6h22.8c18.1.2 32.5 13.7 32.5 30.5z"/><path class="st1" d="M333.4 56.2v38.6c0 2.7-.3 5.3-1.1 7.9-1.3 4.5-3.6 8.6-6.8 11.9-6.1 6.8-15 10.5-24.1 10.5-6.5 5.8-16.3 5.8-22.8 0-9.2 0-17.9-3.7-24.1-10.5-5-5.5-7.9-12.6-7.9-19.9V56.2c0-2.1.2-4.2.6-6.3 3.6-14.4 16.5-24.4 31.3-24.2h22.8c17.8 0 32.1 13.9 32.1 30.5z"/><path class="st3" d="M308.6 103.7c-1.6 4.4-5.5 9.4-15.3 11.8-8.9 2.4-18.1-2.4-21.3-11-.3-.6-.5-1.3-.8-1.9 0 0 16.8 8.2 38.3-6 .2 2.5 0 5-.9 7.1z"/><path class="st4" d="M288.6 116.4c-5 0-12.6-1.8-17-11.8-.3-.6-.5-1.1-.8-1.9l-.3-.8.8.3c.2 0 17 7.9 37.9-6l.5-.3v.5c.3 2.4 0 4.8-.8 7.1-1.5 4-5.5 9.4-15.7 12.1-1.6.7-3 .8-4.6.8zm-16.8-13.1c.2.5.3.8.5 1.1 6.6 14.9 20.2 11 20.8 10.8 10-2.6 13.7-7.8 15.2-11.6.8-1.9 1.1-4.2 1-6.3-18.6 12-34 7.3-37.5 6z"/><path class="st5" d="M308.6 103.7c-1.6 4.4-5.5 9.4-15.3 11.8-8.9 2.4-18.1-2.4-21.3-11 7 4 22.2 9.8 36.6-.8z"/><path class="st6" d="M334.9 94.5l-1.1 1.3s-.5-19.9-1.8-24.9c0 0-2.9-11.3-7.6-13.4 0 0 4-13.9-6.5-18.4-9.2 8.2-21.2 12.8-33.6 12.8-9.8.3-19.5-2.4-27.6-7.9-1.9 3.7-2.1 8.1-.6 11.8 0 0-8.4 8.9-9.5 19.9-.2 6-.2 11.9.3 17.9-1.5-1-2.6-2.1-3.7-3.6-2.1-2.6-3.6-5.8-4.2-9-2.6-10.2-2.6-25.8-.3-34.1 0 0 3.2-13.9 6.1-15 0 0-6.5-19.9-5.2-24.9 0 0 3.9 9.7 16.6 8.6 0 0-5.5-7.4-4.4-15.5 0 0 9.7 7.1 20 5.3 3.7-.5 7.3-1.1 10.8-2.3 1.8-.8 3.7-1.3 5.7-1.6 7.3-1.3 22.8-2.6 30.2 6.6 0 0 6 6.1 6.9 12.4 0 0 16 11.1 16.8 30.7.8 8.9.6 17.8-.5 26.5-.6 4.4-1.9 8.6-4 12.4-.5 1.5-1.7 3.1-2.8 4.4z"/><path class="st7" d="M243.2 15s12.9 45.1 59.6 28.9c.1.2-46.1 3.1-59.6-28.9z"/><path class="st7" d="M255.9 6.6s14.5 39.4 55.2 22.1c.1 0-41 5.7-55.2-22.1z"/><path class="st8" d="M269 74.3c-1 1-1.3 2.6-.8 3.9.5 1 1.1 1.8 2.1 2.1 1 .3 1.9.6 2.9.5 1.1 0 2.4-.5 3.4-1.1 1.6-1.1 2.1-3.2 1-4.8-.3-.5-.6-.8-1.1-1.1-1.8-1.1-4-1.3-6-.5-.5.3-1 .7-1.5 1z"/><path class="st3" d="M273.9 73.8c-.5 0-.8.2-1.1.5-.2.5-.2 1 0 1.5.3.8 1 1.5 1.6 1.8.5.3 1.1.5 1.6.2.5-.2.8-.6.8-1.3 0-.5-.2-1-.5-1.5-.7-.7-1.5-1.2-2.4-1.2z"/><path class="st8" d="M304.1 74.3c-1 1-1.5 2.6-1 3.9.5 1 1.1 1.8 2.1 2.1 1 .3 1.9.6 2.9.5 1.1 0 2.4-.5 3.4-1.1 1.6-1.1 2.1-3.2 1-4.8-.3-.5-.6-.8-1.1-1.1-1.8-1.1-4-1.3-6-.5-.5.3-1 .7-1.3 1z"/><path class="st3" d="M308.9 73.8c-.5 0-.8.2-1.1.5-.2.5-.2 1 0 1.5.3.8 1 1.5 1.6 1.8.5.3 1.1.5 1.6.2.5-.2.8-.6.8-1.3 0-.5-.2-1-.5-1.5-.8-.7-1.6-1.2-2.4-1.2z"/><path class="st9" d="M334.4 68.9c-.2-1-.8-1.6-1.8-1.8-1.6-.3-3.1-.8-4.4-1.8-3.1-2.1-6.6-3.4-10.3-4-3.4-.5-6.8-.2-10 .6-3.4.8-6.6 2.6-9 5.2-.6.5-1.1 1.1-1.6 1.6-.6.8-1.9 1-2.7.3h-.2c-1.8-1.5-4.4-1.5-6.3 0-.8.8-1.9.8-2.7 0l-.2-.2-1.6-1.6c-2.6-2.4-5.7-4.2-9-5.2-3.2-.8-6.6-1-10-.6-3.7.6-7.3 1.9-10.3 4-1.3 1-2.7 1.5-4.4 1.8-1 0-1.8.8-1.8 1.8-.2.5-.2 1-.3 1.5v1.9c.2.3.5.6.8 1 1.3.8 2.1 1.9 2.3 3.4.3 1.5.6 2.7 1 4 1 3.7 3.4 7.1 6.6 9.2 4 2.7 9 3.7 13.9 2.6 3.6-.8 6.9-2.7 9.5-5.3 2.1-2.3 3.6-5 4.5-8.1.3-1 .5-1.8.8-2.7.3-1.1 1.3-2.1 2.4-2.1h3c1.1.2 2.3 1 2.4 2.1.3 1 .5 1.8.8 2.7.8 2.9 2.4 5.7 4.5 8.1 2.6 2.6 6 4.5 9.5 5.3 4.8 1.1 10 .2 14-2.7 3.2-2.1 5.7-5.3 6.6-9.2.5-1.3.8-2.7 1-4 .2-1.5 1.1-2.6 2.3-3.4.3-.3.6-.6.8-1v-1.9c.1-.5-.1-1-.1-1.5zM276.9 88c-2.6 1.9-5.8 2.9-9 2.7-4.2 0-8.2-1.8-11-5-4.5-5.2-4.4-12.9.5-17.6 6-6 15.5-6 21.5 0 5 5 5 13.2 0 18.2-.5.6-1.2 1.2-2 1.7zm48.1-2.3c-2.7 3.2-6.8 5-11 5-3.2 0-6.5-1-9-2.7-6-3.9-7.6-11.9-3.6-17.9.5-.6 1-1.5 1.6-1.9 6-6 15.5-6 21.5 0 4.9 4.8 5.1 12.4.5 17.5z"/><path class="st10" d="M276.9 88c-2.6 1.9-5.8 2.9-9 2.7-4.2 0-8.2-1.8-11-5-4.5-5.2-4.4-12.9.5-17.6 6-6 15.5-6 21.5 0 5 5 5 13.2 0 18.2-.5.6-1.2 1.2-2 1.7zm48.1-2.3c-2.7 3.2-6.8 5-11 5-3.2 0-6.5-1-9-2.7-6-4-7.6-11.9-3.6-17.9.5-.6 1-1.3 1.6-1.9 6-6 15.5-6 21.5 0 4.9 4.8 5.1 12.4.5 17.5z"/><path class="st11" d="M257.4 57.3s1.5-3.9 8.6-4.5c0 0 14.2-1.1 16.6 3.6l-11.1-1h-2.6c-3.9.3-7.8 1-11.5 1.9zm65.7 0s-1.5-3.9-8.6-4.5c0 0-14.2-1.1-16.6 3.6l11.1-1h2.6c3.8.3 7.8 1 11.5 1.9z"/></g></g><path class="st2" d="M289 223h4.1l15.8-19.7-11.5-42.6 6.5-13.9-12.8-9.2v-.2l-.1.2-12.8 9.2 6.5 13.9-11.5 42.6z"/><path class="st12" d="M288.6 223h2.1l16.9-21-11.5-42.6 6.3-13.9-12.6-9.2v-.2h-.3v.2l-12.6 9.2 6.5 13.9-11.5 42.6zM43.1 157L0 180.4l25 11.9-3.8 26.8 51.1-27.9-30 .8zm456.6 35.3l49.1 26.8-3.8-26.8 25-11.9-42.4-23.1-.3 32.8z"/><path class="st13" d="M528.8 192v-51.2H42.3V192h460.4z"/><path class="st1" d="M148.7 139.8s2.9 4.5 6.5 4.2 2.3-2.9 1.8-3.2 1.9 2.4 5.7 1.8c3.7-.6 3.1-1.8 3.1-1.8l-10.3-2.1-6.8 1.1zm280.5.5s-3.4 1.9-2.6 3.9c.8 1.9 4.2 1.1 6.1-.3 0 0-.5 1.6 1 1.9 1.5.3 8.7-1.1 8.2-4.8l-.3-.4-.4-.3h-2.9l-1.5-.2-7.6.2z"/><path class="st12" d="M79.3 174.7v-8.1l-4 6.8h-1.5l-4-6.5v7.9h-2.9v-13.6h2.6l5 8.4 5-8.4H82v13.6l-2.7-.1zm10.8-.6c-1.1-.6-1.9-1.5-2.6-2.6-.6-1.1-1-2.3-1-3.6s.3-2.6 1-3.6c.6-1 1.5-1.9 2.6-2.6s2.4-1 3.9-1 2.7.3 3.9 1c1.1.6 1.9 1.5 2.6 2.6.6 1.1 1 2.3 1 3.6s-.3 2.6-1 3.6c-.6 1.1-1.5 1.9-2.6 2.6-1.1.6-2.4 1-3.9 1-1.5-.1-2.8-.4-3.9-1zm6-2.3c.6-.3 1.1-.8 1.5-1.6.3-.6.5-1.5.5-2.3s-.2-1.6-.5-2.3c-.3-.6-.8-1.1-1.5-1.6-.6-.3-1.3-.5-2.1-.5s-1.5.2-2.1.5-1.1.8-1.5 1.6c-.3.8-.5 1.5-.5 2.3s.2 1.6.5 2.3c.3.6.8 1.1 1.5 1.6.6.3 1.3.5 2.1.5s1.4-.2 2.1-.5zm18.2 2.9l-2.6-3.7h-2.9v3.7h-3.1v-13.6h5.8c1.1 0 2.3.2 3.1.6.8.3 1.6 1 2.1 1.8s.6 1.6.6 2.6-.2 1.9-.6 2.6c-.5.8-1.1 1.3-2.1 1.6l3.1 4.4h-3.4zm-.8-10.3c-.5-.5-1.1-.6-2.1-.6h-2.6v4.7h2.6c1 0 1.6-.2 2.1-.6.5-.5.8-1 .8-1.8-.1-.8-.3-1.4-.8-1.7zm18.7 7.9v2.6h-10.5v-13.6h10.2v2.6h-7.1v2.9h6.3v2.4h-6.3v3.1h7.4zm14.7-8.6h-4.4v-2.6h11.8v2.6h-4.2v11h-3.2v-11zm23.6-2.5v13.6h-3.1v-5.5h-6.1v5.5h-3.1v-13.6h3.1v5.3h6.1v-5.3h3.1zm14.1 10.6h-6.3l-1.1 2.9H174l6-13.6h3.1l6.1 13.6H186l-1.4-2.9zm-1-2.4l-2.1-5.2-2.1 5.2h4.2zm21.3-8.2v13.6h-2.6l-6.8-8.2v8.2h-3.1v-13.6h2.6l6.8 8.2v-8.2h3.1z"/><path class="st14" d="M229 172h-2.3v2.9h-3.1V172h-7.3v-2.1l6.5-8.6h3.2l-6 8.2h3.7V167h2.9v2.6h2.3l.1 2.4zm11.8-4.6c1 .8 1.3 1.8 1.3 3.1 0 .8-.2 1.6-.6 2.3-.5.6-1 1.3-1.9 1.6-.8.5-1.9.6-3.1.6-1 0-1.9-.2-2.7-.3-1-.3-1.8-.6-2.4-1.1l1.3-2.4c.5.3 1.1.6 1.8 1 .6.2 1.3.3 2.1.3s1.5-.2 1.9-.5.6-.8.6-1.3c0-.6-.2-1-.6-1.3-.5-.3-1.3-.5-2.4-.5h-3.4l.6-7.6h8.2v2.6h-5.7l-.2 2.6h1.1c1.8-.2 3.1.1 4.1.9zm14.8 6.7c-.8-.5-1.6-1.3-2.1-2.4-.5-1.1-.8-2.3-.8-3.7s.3-2.7.8-3.7c.5-1.1 1.1-1.8 2.1-2.4.8-.5 1.9-.8 3.1-.8s2.1.3 3.1.8c.8.5 1.6 1.3 2.1 2.4s.8 2.3.8 3.7-.3 2.7-.8 3.7c-.5 1.1-1.1 1.9-2.1 2.4s-1.9.8-3.1.8c-1.3.1-2.3-.2-3.1-.8zm4.9-2.8c.5-.6.6-1.8.6-3.2s-.2-2.6-.6-3.2c-.5-.6-1.1-1.1-1.9-1.1s-1.5.3-1.9 1.1c-.5.6-.6 1.8-.6 3.2s.2 2.6.6 3.2c.5.6 1.1 1.1 1.9 1.1.7-.1 1.4-.4 1.9-1.1zm10.1 2.8c-.8-.5-1.6-1.3-2.1-2.4-.5-1.1-.8-2.3-.8-3.7s.3-2.7.8-3.7c.5-1.1 1.1-1.8 2.1-2.4.8-.5 1.9-.8 3.1-.8 1.1 0 2.1.3 3.1.8.8.5 1.6 1.3 2.1 2.4.5 1.1.8 2.3.8 3.7s-.3 2.7-.8 3.7c-.5 1.1-1.1 1.9-2.1 2.4s-1.9.8-3.1.8c-1.1.1-2.1-.2-3.1-.8zm5-2.8c.5-.6.6-1.8.6-3.2s-.2-2.6-.6-3.2c-.5-.6-1.1-1.1-1.9-1.1s-1.5.3-1.9 1.1c-.5.6-.6 1.8-.6 3.2s.2 2.6.6 3.2c.5.6 1.1 1.1 1.9 1.1.8-.1 1.5-.4 1.9-1.1zm10.2 2.8c-.8-.5-1.6-1.3-2.1-2.4-.5-1.1-.8-2.3-.8-3.7s.3-2.7.8-3.7c.5-1.1 1.1-1.8 2.1-2.4.8-.5 1.9-.8 3.1-.8s2.1.3 3.1.8c.8.5 1.6 1.3 2.1 2.4s.8 2.3.8 3.7-.3 2.7-.8 3.7c-.5 1.1-1.1 1.9-2.1 2.4s-1.9.8-3.1.8c-1.3.1-2.3-.2-3.1-.8zm4.9-2.8c.5-.6.6-1.8.6-3.2s-.2-2.6-.6-3.2c-.5-.6-1.1-1.1-1.9-1.1s-1.5.3-1.9 1.1c-.5.6-.6 1.8-.6 3.2s.2 2.6.6 3.2c.5.6 1.1 1.1 1.9 1.1.7-.1 1.4-.4 1.9-1.1z"/><path class="st12" d="M309.1 163.7h-4.4v-2.6h11.8v2.6h-4.4v11H309l.1-11zm19.8 11l-2.6-3.7h-2.9v3.7h-3.1v-13.6h5.8c1.1 0 2.3.2 3.1.6.8.3 1.6 1 2.1 1.8s.6 1.6.6 2.6-.3 1.9-.8 2.6c-.5.8-1.1 1.3-2.1 1.6l3.1 4.4h-3.2zm-.8-10.3c-.5-.5-1.1-.6-2.1-.6h-2.6v4.7h2.6c1 0 1.6-.2 2.1-.6s.8-1 .8-1.8c-.1-.8-.3-1.4-.8-1.7zm9.9 9c-1.1-1.1-1.6-2.6-1.6-4.5v-7.6h3.1v7.4c0 2.4 1 3.7 3.1 3.7 1 0 1.8-.3 2.3-.8.5-.6.8-1.5.8-2.7v-7.4h3.1v7.6c0 1.9-.5 3.6-1.6 4.5-1.1 1-2.6 1.6-4.5 1.6-2.2-.2-3.8-.8-4.7-1.8zm16.9 1.2c-1-.3-1.8-.6-2.4-1.1l1.1-2.4c.6.5 1.3.8 2.1 1s1.6.3 2.4.3c1 0 1.6-.2 1.9-.3.5-.3.6-.6.6-1.1 0-.3-.2-.6-.3-.8-.3-.2-.6-.3-1-.5s-1-.3-1.6-.5c-1-.3-1.9-.5-2.6-.8-.6-.3-1.3-.6-1.6-1.1-.5-.5-.6-1.3-.6-2.1s.2-1.5.6-2.1c.5-.6 1.1-1.1 1.9-1.5.8-.3 1.9-.5 3.2-.5.8 0 1.8.2 2.6.3.8.2 1.6.5 2.1 1l-1 2.4c-1.3-.6-2.6-1.1-3.7-1.1-.8 0-1.5.2-1.9.5s-.6.6-.6 1.1.3.8.8 1 1.3.5 2.3.6c1 .3 1.9.5 2.6.8.6.3 1.3.6 1.6 1.1.3.5.6 1.3.6 2.1s-.2 1.5-.6 2.1c-.5.6-1.1 1.1-1.9 1.5s-1.9.5-3.2.5c-1.3 0-2.4-.1-3.4-.4zm15.7-10.9h-4.4v-2.6H378v2.6h-4.4v11h-3.1v-11h.1zm21.6 8.6v2.6h-10.5v-13.6h10.2v2.6h-7.1v2.9h6.3v2.4h-6.3v3.1h7.4zm4.4-11.1h6.1c1.5 0 2.7.3 3.9.8 1.1.5 1.9 1.3 2.6 2.4.6 1 1 2.3 1 3.6s-.3 2.6-1 3.6c-.6 1-1.5 1.8-2.6 2.4-1.1.5-2.4.8-3.9.8h-6.1v-13.6zm6 10.9c1.3 0 2.4-.3 3.2-1.1.8-.8 1.3-1.8 1.3-3.1s-.5-2.3-1.3-3.1-1.9-1.1-3.2-1.1h-2.9v8.4h2.9zm22.1 2c-1.1-.6-1.9-1.5-2.6-2.4-.6-1.1-1-2.3-1-3.6s.3-2.6 1-3.6c.6-1.1 1.5-1.9 2.6-2.4 1.1-.6 2.4-1 3.7-1 1.1 0 2.3.2 3.2.6 1 .5 1.8 1 2.4 1.8l-1.9 1.9c-1-1.1-2.1-1.6-3.4-1.6-.8 0-1.6.2-2.3.5-.6.3-1.1.8-1.6 1.6-.3.6-.5 1.5-.5 2.3s.2 1.6.5 2.3c.3.6.8 1.1 1.6 1.6.6.3 1.5.5 2.3.5 1.3 0 2.4-.5 3.4-1.6l1.9 1.9c-.6.8-1.5 1.5-2.4 1.8-1 .3-2.1.6-3.2.6-1.3-.3-2.6-.6-3.7-1.2zm13.4-12.9h3.1v11h6.8v2.6h-10v-13.6h.1zm13.7 0h3.1v13.6h-3.1v-13.6zm18.7 11.1v2.6H460v-13.6h10.2v2.6h-7.1v2.9h6.3v2.4h-6.3v3.1h7.4zm16.8-11.1v13.6h-2.6l-6.8-8.2v8.2h-3.1v-13.6h2.6l6.8 8.2v-8.2h3.1zm8.1 2.5H491v-2.6h11.8v2.6h-4.4v11h-3.1l.1-11zm12.3 10.9c-1-.3-1.8-.6-2.4-1.1l1.1-2.4c.6.5 1.3.8 2.1 1 .8.2 1.6.3 2.4.3 1 0 1.6-.2 1.9-.3.5-.3.6-.6.6-1.1 0-.3-.2-.6-.3-.8-.3-.2-.6-.3-1-.5-.3-.2-1-.3-1.6-.5-1-.3-1.9-.5-2.6-.8-.6-.3-1.3-.6-1.6-1.1-.5-.5-.6-1.3-.6-2.1s.2-1.5.6-2.1c.5-.6 1.1-1.1 1.9-1.5.8-.3 1.9-.5 3.2-.5.8 0 1.8.2 2.6.3.8.2 1.6.5 2.1 1l-1 2.4c-1.3-.6-2.6-1.1-3.7-1.1-.8 0-1.5.2-1.9.5-.5.3-.6.6-.6 1.1s.3.8.8 1 1.3.5 2.3.6c1 .3 1.9.5 2.6.8.6.3 1.3.6 1.6 1.1s.6 1.3.6 2.1-.2 1.5-.6 2.1c-.5.6-1.1 1.1-1.9 1.5s-1.9.5-3.2.5c-1.3 0-2.5-.1-3.4-.4z"/></svg>