<svg id="Layer_1" xmlns="http://www.w3.org/2000/svg" viewBox="0 0 22.2 18" width="15" height="13"><style>.st0{fill:#66cc86}</style><path class="st0" d="M14.8 0h1l.4.1c.3 0 .5.1.7.2l.6.3c.2.1.4.2.5.3.2.1.3.2.4.3.1.1.3.2.6.1s.5-.1.8-.2c.3-.1.6-.2.9-.4.3-.1.5-.2.5-.3.1 0 .1-.1.1-.1v.1l-.2.4c-.1.2-.1.7-.3.9s-.3.4-.5.5l-.3.3c0 .1-.1.1-.2.1l-.1.1h.1l.6-.1c.4-.1.7-.2 1.1-.3l.5-.2h.1l-.3.3-.3.6-.1.1-.4.4c-.3.3-.5.5-.8.7-.3.2-.4.5-.4.8v1c0 .4-.1.8-.1 1.2-.1.4-.2.9-.3 1.5-.2.5-.3 1.1-.6 1.6-.2.5-.4 1-.7 1.4-.2.4-.5.8-.7 1-.2.3-.4.6-.6.8-.2.3-.5.5-.8.9l-.5.5s-.2.1-.4.3c-.2.2-.5.4-.7.6-.3.2-.5.3-.7.5-.2.1-.5.3-.8.4-.3.2-.6.3-1 .5-.4.1-.7.3-1.1.4l-1.2.3c-.4.1-.8.1-1.3.2l-.7-.1H5.9c-.1 0-.3 0-.8-.1s-.9-.1-1.1-.2c-.3-.1-.7-.2-1.2-.4s-1-.4-1.4-.6c-.4-.2-.6-.3-.7-.4-.1 0-.2-.1-.3-.2L.2 16h1.4c.3 0 .6 0 .9-.1.3 0 .7-.1 1.1-.2.4-.1.8-.2 1.2-.4.2-.2.5-.3.6-.4.1-.1.4-.2.7-.4l.5-.3h-.5c-.1 0-.3 0-.5-.1s-.4-.1-.7-.2c-.2-.1-.5-.2-.7-.4-.2-.1-.4-.3-.5-.4l-.4-.4c0-.3-.2-.5-.3-.7l-.3-.6-.2-.4h1.6c-.1 0-.2-.1-.5-.2s-.5-.2-.7-.4c-.2-.4-.4-.5-.5-.6-.2-.2-.3-.4-.5-.6-.2-.2-.4-.5-.5-.8-.2-.3-.3-.6-.4-.8 0-.3-.1-.6-.1-.9v-.4l.3.1c.2.1.5.2.8.2.3.1.5.1.5.1h.3s-.1 0-.2-.1-.3-.2-.4-.3c-.1-.1-.2-.3-.3-.4-.2-.2-.3-.3-.4-.5l-.3-.6c-.1-.3-.1-.5-.2-.8 0-.3-.1-.5-.1-.8v-.6c.1-.2.1-.4.2-.6.1-.2.1-.5.3-.7l.2-.4.3.3c.1.2.4.4.6.7l.4.4s.1 0 .1.1l.4.4c.2.2.5.4.9.6.4.2.8.5 1.2.7.5.2.9.4 1.5.6.5.2.8.3 1 .4.2.1.6.1 1.1.2.5.1.9.2 1.1.2h.6v-.9c0-.3 0-.6.1-.8 0-.3.1-.5.2-.8.1-.3.2-.5.3-.6.1-.2.2-.3.4-.5.1-.2.3-.4.6-.6.2-.2.5-.4.8-.6.3-.2.6-.3.8-.4.3-.1.5-.1.6-.2.1-.1.2-.1.2-.1z"/></svg>