<svg id="Layer_1" xmlns="http://www.w3.org/2000/svg" viewBox="0 0 28.2 30" width="30" height="32"><style>.st0{fill:#3196df}</style><title>user_large</title><g id="Layer_2"><g id="Layer_1-2"><g id="Layer_2-2"><g id="Layer_1-2-2"><path class="st0" d="M14.1 16.8c-4.6 0-8.4-3.8-8.4-8.4C5.7 3.8 9.5 0 14.1 0s8.4 3.8 8.4 8.4c0 1.2-.3 2.4-.8 3.5-.2.5-.7.7-1.2.5 0 0-.1 0-.1-.1-.4-.1-.6-.6-.5-1 0-.1.1-.1.1-.2.4-.9.6-1.8.6-2.8 0-3.6-2.9-6.5-6.5-6.5S7.6 4.7 7.6 8.3s2.9 6.5 6.5 6.5c1.5 0 3-.6 4.2-1.6.4-.3 1-.3 1.3.1s.3 1-.1 1.3c-1.4 1.4-3.4 2.2-5.4 2.2z"/><path class="st0" d="M23.6 17c-.3-.2-.7-.3-1-.2l-3.2 1.1c-.4.1-.7.3-1.1.4-2.6 1.1-5.6 1.1-8.2.1-.4-.1-.7-.3-1.1-.4l-3.3-1.2c-.3-.1-.7 0-1 .2-3 2.7-4.7 6.4-4.7 10.4 0 .6.1 1.2.1 1.8.1.5.5.8 1 .8h26c.5 0 .9-.3 1-.8.6-4.6-1.1-9.1-4.5-12.2zm2.7 11.1H2v-.7c0-3.2 1.3-6.3 3.6-8.6l2.7 1c.2.1.4.1.5.2 3.2 1.4 6.9 1.4 10.2 0 .2-.1.5-.2.7-.3l2.9-1c2.3 2.3 3.6 5.4 3.6 8.6l.1.8z"/></g></g></g></g></svg>