<svg id="Layer_1" xmlns="http://www.w3.org/2000/svg" viewBox="0 0 75 30"><style>.st0{fill:#fff}.st1{fill:#2566af}.st2{fill:#e6a540}</style><path class="st0" d="M0 0h75v30H0z"/><path class="st1" d="M33.5 24.4h-5l3.1-18.8h4.9l-3 18.8zM24.4 5.6l-4.6 13-.5-2.8-1.6-8.5s-.2-1.7-2.3-1.7H7.6l-.1.3s2.3.4 5.1 2.2l4.2 16.3h5.1l7.8-18.8h-5.3zM63 24.4h4.5l-4-18.8h-4c-1.8 0-2.3 1.4-2.3 1.4L50 24.4h5.1l1.1-2.8h6.2l.6 2.8zm-5.4-6.6l2.5-7.1 1.4 7.1h-3.9zm-7.1-7.7l.7-4s-2.2-.8-4.3-.8c-2.4 0-8.2 1-8.2 6.2 0 4.9 6.8 5 6.8 7.5s-6.1 2.1-8.1.5l-.8 4.2s2.2 1 5.6 1 8.4-1.7 8.4-6.5c0-4.9-6.8-5.3-6.8-7.5-.2-2 4.6-1.7 6.7-.6z"/><path class="st2" d="M19.3 15.8l-1.7-8.4s-.2-1.7-2.3-1.7H7.6l-.1.2s3.7.7 7.3 3.7c3.4 2.7 4.5 6.2 4.5 6.2z"/></svg>