<svg id="Layer_1" xmlns="http://www.w3.org/2000/svg" viewBox="0 0 25.6 18" width="17" height="13"><style>.st0{fill:#fff}.st1{fill:#e8e0e0}.st2{fill:#66cc86}</style><path class="st0" d="M17.1 8.7c-2.3-1.3-4.6-2.4-6.9-3.6v7.2c2.4-1.3 4.9-2.5 6.9-3.6z"/><path class="st1" d="M17.1 8.7c-2.3-1.3-6.9-3.6-6.9-3.6l6.1 4.1c-.1 0-1.2.6.8-.5z"/><path class="st2" d="M10.6 18c-4.9-.1-6.5-.2-7.6-.4-.7-.1-1.3-.5-1.7-.9-.3-.3-.6-.9-.8-1.6-.2-.6-.3-1.1-.4-2.3-.2-2.8-.2-5 0-7.6.2-1.4.2-3.1 1.3-4C1.9.7 2.5.5 3.1.3c1-.1 5.3-.3 9.7-.3 4.4 0 8.7.2 9.7.3.8.2 1.6.6 2 1.2 1 1.5 1 3.4 1.1 4.8v5.3c-.2 2.3-.3 3.1-.6 4-.2.5-.4.8-.7 1.1-.5.5-1.1.8-1.8.9-4.2.4-7.8.4-11.9.4zm6.5-9.3c-2.3-1.3-4.6-2.4-6.9-3.6v7.2c2.4-1.3 5-2.5 6.9-3.6z"/></svg>